<svg width="32" height="32" viewBox="0 0 32 32" fill="none" xmlns="http://www.w3.org/2000/svg">
<path d="M14.6894 3.75161C14.7466 3.44575 14.9089 3.1695 15.1482 2.9707C15.3876 2.77191 15.6889 2.66309 16.0001 2.66309C16.3113 2.66309 16.6126 2.77191 16.852 2.9707C17.0913 3.1695 17.2536 3.44575 17.3108 3.75161L18.7121 11.1623C18.8116 11.6891 19.0677 12.1738 19.4468 12.5529C19.8259 12.932 20.3106 13.1881 20.8374 13.2876L28.2481 14.6889C28.554 14.7461 28.8302 14.9084 29.029 15.1477C29.2278 15.3871 29.3366 15.6885 29.3366 15.9996C29.3366 16.3108 29.2278 16.6121 29.029 16.8515C28.8302 17.0908 28.554 17.2531 28.2481 17.3103L20.8374 18.7116C20.3106 18.8111 19.8259 19.0672 19.4468 19.4463C19.0677 19.8255 18.8116 20.3101 18.7121 20.8369L17.3108 28.2476C17.2536 28.5535 17.0913 28.8297 16.852 29.0285C16.6126 29.2273 16.3113 29.3361 16.0001 29.3361C15.6889 29.3361 15.3876 29.2273 15.1482 29.0285C14.9089 28.8297 14.7466 28.5535 14.6894 28.2476L13.2881 20.8369C13.1886 20.3101 12.9325 19.8255 12.5534 19.4463C12.1743 19.0672 11.6896 18.8111 11.1628 18.7116L3.7521 17.3103C3.44624 17.2531 3.16999 17.0908 2.97119 16.8515C2.7724 16.6121 2.66357 16.3108 2.66357 15.9996C2.66357 15.6885 2.7724 15.3871 2.97119 15.1477C3.16999 14.9084 3.44624 14.7461 3.7521 14.6889L11.1628 13.2876C11.6896 13.1881 12.1743 12.932 12.5534 12.5529C12.9325 12.1738 13.1886 11.6891 13.2881 11.1623L14.6894 3.75161Z" stroke="white" stroke-width="2.66667" stroke-linecap="round" stroke-linejoin="round"/>
<path d="M26.6667 2.66699V8.00033" stroke="white" stroke-width="2.66667" stroke-linecap="round" stroke-linejoin="round"/>
<path d="M29.3333 5.33301H24" stroke="white" stroke-width="2.66667" stroke-linecap="round" stroke-linejoin="round"/>
<path d="M5.33341 29.3333C6.80617 29.3333 8.00008 28.1394 8.00008 26.6667C8.00008 25.1939 6.80617 24 5.33341 24C3.86066 24 2.66675 25.1939 2.66675 26.6667C2.66675 28.1394 3.86066 29.3333 5.33341 29.3333Z" stroke="white" stroke-width="2.66667" stroke-linecap="round" stroke-linejoin="round"/>
</svg>
