<svg width="32" height="32" viewBox="0 0 32 32" fill="none" xmlns="http://www.w3.org/2000/svg">
<path d="M19 13.9074C19 13.7686 19 13.6009 19 13.5196C18.9557 9.50711 13.0445 9.50586 13 13.5196V13.9074C12.666 14.0534 12.3817 14.2936 12.1819 14.5985C11.9821 14.9035 11.8755 15.26 11.875 15.6246V19.6246C11.8755 20.1217 12.0732 20.5983 12.4248 20.9499C12.7763 21.3014 13.2529 21.4991 13.75 21.4996H18.25C18.7471 21.4991 19.2237 21.3014 19.5752 20.9499C19.9268 20.5983 20.1245 20.1217 20.125 19.6246V15.6246C20.1245 15.26 20.0179 14.9035 19.8181 14.5985C19.6183 14.2936 19.334 14.0534 19 13.9074ZM13.75 13.5246C13.785 10.4841 18.215 10.4849 18.25 13.5246V13.7496H13.75C13.75 13.6599 13.75 13.5746 13.75 13.5246ZM19.375 19.6246C19.3747 19.9229 19.256 20.2088 19.0451 20.4197C18.8342 20.6306 18.5483 20.7493 18.25 20.7496H13.75C13.4517 20.7493 13.1658 20.6306 12.9549 20.4197C12.744 20.2088 12.6253 19.9229 12.625 19.6246V15.6246C12.6253 15.3263 12.744 15.0404 12.9549 14.8295C13.1658 14.6186 13.4517 14.4999 13.75 14.4996H18.25C18.5483 14.4999 18.8342 14.6186 19.0451 14.8295C19.256 15.0404 19.3747 15.3263 19.375 15.6246V19.6246Z" fill="white"/>
<path d="M16.6138 17.1943C16.6083 17.1607 16.6098 17.1264 16.6185 17.0935C16.6271 17.0606 16.6425 17.0298 16.6638 17.0033C16.7476 16.8822 16.7966 16.7405 16.8056 16.5936C16.8146 16.4466 16.7832 16.3 16.7148 16.1696C16.6464 16.0392 16.5437 15.93 16.4177 15.8538C16.2917 15.7776 16.1473 15.7373 16.0001 15.7373C15.8528 15.7373 15.7084 15.7776 15.5824 15.8538C15.4564 15.93 15.3537 16.0392 15.2853 16.1696C15.217 16.3 15.1856 16.4466 15.1946 16.5936C15.2036 16.7405 15.2526 16.8822 15.3363 17.0033C15.3575 17.0296 15.3729 17.06 15.3815 17.0926C15.3902 17.1252 15.3918 17.1593 15.3863 17.1926C15.3276 17.4853 15.1613 18.3223 15.0441 18.9033C15.0298 18.9758 15.0318 19.0505 15.0499 19.1221C15.0679 19.1937 15.1016 19.2604 15.1485 19.3175C15.1955 19.3745 15.2544 19.4204 15.3212 19.452C15.388 19.4835 15.461 19.4998 15.5348 19.4998H16.4648C16.5388 19.4998 16.6119 19.4834 16.6788 19.4518C16.7457 19.4202 16.8047 19.3741 16.8516 19.3169C16.8985 19.2597 16.9322 19.1928 16.9501 19.121C16.968 19.0492 16.9698 18.9744 16.9553 18.9018L16.6138 17.1943Z" fill="white"/>
<path d="M28.8089 4.47271C23.8639 4.98746 20.8967 3.48696 17.1552 0.538706C16.8264 0.27837 16.4193 0.136719 15.9999 0.136719C15.5806 0.136719 15.1735 0.27837 14.8447 0.538706C11.1029 3.48696 8.13819 4.98871 3.19094 4.47271C2.93646 4.44865 2.67975 4.47675 2.4365 4.55529C2.19325 4.63384 1.96858 4.76118 1.77623 4.92952C1.58388 5.09787 1.42788 5.30368 1.31779 5.53437C1.2077 5.76506 1.14582 6.01578 1.13594 6.27121C0.915189 12.7212 0.504438 24.7275 15.1859 31.6895C15.4398 31.8102 15.7174 31.8728 15.9984 31.8728C16.2795 31.8728 16.5571 31.8102 16.8109 31.6895C31.4934 24.7275 31.0827 12.7215 30.8609 6.27121C30.851 6.01607 30.7892 5.76564 30.6793 5.53518C30.5693 5.30473 30.4136 5.09908 30.2216 4.93078C30.0296 4.76249 29.8053 4.63508 29.5624 4.55632C29.3196 4.47757 29.0632 4.44912 28.8089 4.47271ZM16.4917 31.0117C16.3381 31.0849 16.1701 31.1229 15.9999 31.1229C15.8298 31.1229 15.6618 31.0849 15.5082 31.0117C1.27069 24.261 1.67069 12.5747 1.88544 6.29696C1.89114 6.14411 1.92795 5.99403 1.99362 5.85589C2.05929 5.71776 2.15244 5.59446 2.26738 5.49354C2.38231 5.39262 2.51662 5.3162 2.66209 5.26894C2.80756 5.22169 2.96114 5.2046 3.11344 5.21871C8.31344 5.75821 11.4134 4.19821 15.3089 1.12796C15.5056 0.972174 15.7491 0.887405 15.9999 0.887405C16.2508 0.887405 16.4943 0.972174 16.6909 1.12796C20.5877 4.19846 23.6844 5.75921 28.8864 5.21896C29.0387 5.20485 29.1923 5.22194 29.3378 5.2692C29.4833 5.31645 29.6176 5.39287 29.7325 5.49379C29.8474 5.59471 29.9406 5.71801 30.0063 5.85614C30.0719 5.99428 30.1087 6.14436 30.1144 6.29721C30.3292 12.5747 30.7292 24.261 16.4917 31.0117Z" fill="white"/>
<path d="M26.4892 8.02781C22.1323 8.06985 17.9491 5.37893 16.3486 4.21997C16.1519 4.077 15.9149 4 15.6717 4C15.4286 4 15.1916 4.077 14.9949 4.21997C13.4071 5.37016 9.26969 8.02832 4.9585 8.02832C4.79625 8.01376 4.63273 8.03293 4.47824 8.08462C4.32375 8.13631 4.18162 8.21941 4.06078 8.3287C3.93994 8.43798 3.84301 8.57108 3.77609 8.71964C3.70916 8.8682 3.67368 9.02899 3.67188 9.19193C3.67394 15.1474 4.86566 23.6677 15.1481 28.8752C15.3105 28.9573 15.4899 29 15.6719 29C15.8538 29 16.0332 28.9573 16.1957 28.8752C26.4778 23.6677 27.6696 15.1474 27.6719 9.19193C27.6708 9.03778 27.6393 8.88537 27.5792 8.7434C27.5192 8.60144 27.4317 8.47271 27.3218 8.36459C27.212 8.25647 27.0819 8.17107 26.939 8.11328C26.7962 8.05549 26.6433 8.02645 26.4892 8.02781ZM26.8474 11.1118L25.1621 12.3758C25.0951 12.426 25.0137 12.4532 24.93 12.4532H22.3768C22.2742 12.4532 22.1758 12.4939 22.1033 12.5665C22.0307 12.6391 21.99 12.7375 21.99 12.8401C21.99 12.9427 22.0307 13.0411 22.1033 13.1137C22.1758 13.1863 22.2742 13.227 22.3768 13.227H24.93C25.181 13.2263 25.4251 13.1449 25.6263 12.9949L26.7752 12.1323C26.6706 13.371 26.4684 14.5996 26.1704 15.8065H22.3768C22.2742 15.8065 22.1758 15.8473 22.1033 15.9198C22.0307 15.9924 21.99 16.0908 21.99 16.1934C21.99 16.296 22.0307 16.3945 22.1033 16.467C22.1758 16.5396 22.2742 16.5803 22.3768 16.5803H25.9584C25.6935 17.4859 25.3601 18.3701 24.9612 19.2251C24.7453 19.0174 24.4573 18.9015 24.1578 18.9019H22.3768C22.2742 18.9019 22.1758 18.9426 22.1033 19.0152C22.0307 19.0878 21.99 19.1862 21.99 19.2888C21.99 19.3914 22.0307 19.4898 22.1033 19.5624C22.1758 19.635 22.2742 19.6757 22.3768 19.6757H24.1578C24.2558 19.6754 24.3503 19.7123 24.4222 19.7789L24.6027 19.9473C23.0009 22.9986 20.3183 25.9189 15.8465 28.1839C15.7924 28.2112 15.7327 28.2254 15.6721 28.2254C15.6116 28.2254 15.5519 28.2112 15.4978 28.1839C11.0259 25.9189 8.34334 22.9991 6.74157 19.9473L6.9221 19.7789C6.99396 19.7123 7.08844 19.6754 7.18644 19.6757H8.96641C9.06901 19.6757 9.1674 19.635 9.23995 19.5624C9.31249 19.4898 9.35325 19.3914 9.35325 19.2888C9.35325 19.1862 9.31249 19.0878 9.23995 19.0152C9.1674 18.9426 9.06901 18.9019 8.96641 18.9019H7.1854C6.88588 18.9016 6.59789 19.0174 6.38181 19.2248C5.98291 18.3699 5.64961 17.4859 5.3848 16.5803H8.96641C9.06901 16.5803 9.1674 16.5396 9.23995 16.467C9.31249 16.3945 9.35325 16.296 9.35325 16.1934C9.35325 16.0908 9.31249 15.9924 9.23995 15.9198C9.1674 15.8473 9.06901 15.8065 8.96641 15.8065H5.17281C4.87482 14.5996 4.67244 13.371 4.56754 12.1323L5.71696 12.9949C5.91812 13.145 6.16227 13.2264 6.41327 13.227H8.96641C9.06901 13.227 9.1674 13.1863 9.23995 13.1137C9.31249 13.0411 9.35325 12.9427 9.35325 12.8401C9.35325 12.7375 9.31249 12.6391 9.23995 12.5665C9.1674 12.4939 9.06901 12.4532 8.96641 12.4532H6.41327C6.32957 12.4532 6.24813 12.426 6.18117 12.3758L4.49584 11.1118C4.46051 10.4489 4.44581 9.8061 4.44426 9.19244C4.44463 9.14082 4.45518 9.08978 4.4753 9.04224C4.49542 8.9947 4.52471 8.95159 4.5615 8.91539C4.5983 8.87918 4.64187 8.85059 4.68972 8.83126C4.73758 8.81192 4.78878 8.80221 4.84039 8.80268C9.36485 8.86304 13.8006 6.05115 15.4475 4.84782C15.5122 4.80068 15.5903 4.77529 15.6703 4.77529C15.7504 4.77529 15.8284 4.80068 15.8931 4.84782C17.5398 6.05037 21.9709 8.86124 26.4959 8.80268C26.5478 8.80183 26.5994 8.81125 26.6477 8.8304C26.6959 8.84955 26.7399 8.87806 26.7772 8.91428C26.8144 8.9505 26.8441 8.99372 26.8645 9.04146C26.885 9.08919 26.8958 9.14051 26.8964 9.19244C26.8974 9.80507 26.8827 10.4479 26.8474 11.1118Z" fill="white"/>
</svg>
