<svg width="10" height="20" viewBox="0 0 10 20" fill="none" xmlns="http://www.w3.org/2000/svg">
<path d="M3.64352 17.3669C3.69645 17.3669 3.74968 17.3448 3.78723 17.3003C4.35689 16.627 4.68723 15.7845 4.68652 14.931C4.68652 14.0783 4.35837 13.6179 3.98258 13.5559C3.7119 13.5348 3.57502 13.5348 3.30422 13.5559C2.92856 13.6178 2.6007 14.0783 2.6007 14.931C2.59975 15.7852 2.93056 16.6269 3.49951 17.3003C3.5373 17.3446 3.59047 17.3669 3.64352 17.3669Z" fill="url(#paint0_linear_14470_6903)"/>
<path d="M6.35702 17.3669C6.41007 17.3669 6.46318 17.3448 6.50079 17.3003C7.07056 16.627 7.4009 15.7845 7.3999 14.931C7.39996 14.0783 7.07198 13.6179 6.69608 13.5559C6.42534 13.5348 6.28864 13.5348 6.01795 13.5559C5.64217 13.6178 5.31419 14.0783 5.31425 14.931C5.31331 15.7852 5.64423 16.6269 6.21307 17.3002C6.25079 17.3447 6.30402 17.3669 6.35702 17.3669Z" fill="url(#paint1_linear_14470_6903)"/>
<path d="M4.99993 19.9987C5.08953 19.9987 5.17918 19.9612 5.24267 19.8863C6.20409 18.7501 6.76167 17.328 6.76025 15.8875C6.76025 14.4485 6.20668 13.6714 5.57236 13.5668C5.11517 13.5312 4.88475 13.5311 4.42762 13.5668C3.79359 13.6714 3.24008 14.4485 3.24008 15.8875C3.23848 17.3291 3.79677 18.7498 4.75719 19.8864C4.82032 19.9612 4.91051 19.9987 4.99993 19.9987Z" fill="url(#paint2_linear_14470_6903)"/>
<path d="M0.768986 9.99763L1.99755 9.36816L2.60547 11.2488L2.53509 11.4066L1.8552 11.6648L1.24439 12.2442L0.808657 14.6251L0.68876 14.723H0.599455C0.45757 14.2216 0.195965 12.6908 0.0196555 11.6116C-0.0267355 11.3284 0.0113442 10.9094 0.103772 10.6757C0.19626 10.442 0.494176 10.1384 0.768986 9.99763Z" fill="#AE2B2B"/>
<path d="M0.768986 9.99763L1.99755 9.36816L2.60547 11.2488L1.77485 11.5476L1.08559 12.2442L0.68876 14.723H0.599455C0.45757 14.2216 0.195965 12.6908 0.0196555 11.6116C-0.0267355 11.3284 0.0113442 10.9094 0.103772 10.6757C0.19626 10.442 0.494176 10.1384 0.768986 9.99763Z" fill="#F33C3C"/>
<path d="M2.5346 11.403L2.31154 11.4877L2.22589 11.3815L2.60498 11.2451L2.5346 11.403Z" fill="#E6E6E6"/>
<path d="M2.60498 11.2425C2.60498 11.2427 2.22584 11.3792 2.22584 11.3792C2.18569 11.2745 2.14467 11.1641 2.10358 11.0459C1.93882 10.5728 1.75751 10.1106 1.60719 9.56181L1.99689 9.3623L2.60498 11.2425Z" fill="#E6E6E6"/>
<path d="M9.23091 9.99736C9.5059 10.1382 9.80358 10.4418 9.89595 10.6754C9.98832 10.9091 10.0266 11.3282 9.9803 11.6115C9.80393 12.6909 9.54197 14.2217 9.40015 14.7227H9.31102L9.1913 14.6248L8.75539 12.244L8.14423 11.6645L7.46487 11.4063L7.39449 11.2488L8.00235 9.36816L9.23091 9.99736Z" fill="#AE2B2B"/>
<path d="M9.23091 9.99736C9.5059 10.1382 9.80358 10.4418 9.89595 10.6754C9.98832 10.9091 10.0266 11.3282 9.9803 11.6115C9.80393 12.6909 9.54197 14.2217 9.40015 14.7227H9.31102L8.91437 12.244L8.22511 11.5475L7.39449 11.2488L8.00235 9.36816L9.23091 9.99736Z" fill="#F33C3C"/>
<path d="M7.68828 11.4877L7.46522 11.403L7.39484 11.2451L7.77393 11.3817L7.68828 11.4877Z" fill="#E6E6E6"/>
<path d="M8.39258 9.56186C8.24244 10.1106 8.0613 10.5729 7.89619 11.0462C7.85534 11.1641 7.81461 11.2746 7.77411 11.3794L7.39502 11.2427C7.39485 11.2425 8.00271 9.3623 8.00271 9.3623L8.39258 9.56186Z" fill="#E6E6E6"/>
<path d="M2.1491 3.52053C2.59662 2.46693 3.24279 1.63314 3.80626 1.0419C3.98039 0.859498 4.14662 0.699926 4.29717 0.564623C4.44749 0.428947 4.58141 0.317166 4.69147 0.230083C4.80105 0.142519 4.88628 0.0797593 4.93945 0.0421249C4.9783 0.0143802 4.99958 0.000427664 4.99976 0C4.99976 0 5.03312 0.0220247 5.09342 0.0658068C5.19463 0.139365 5.37242 0.274507 5.59459 0.468185C5.77149 0.622786 5.97627 0.814326 6.19331 1.0419C6.75719 1.63314 7.40319 2.46698 7.8503 3.52053C7.87004 3.56747 7.88967 3.61462 7.90877 3.66225C8.20704 4.40788 8.47266 5.84617 8.47266 6.79547C8.47266 8.45246 8.17568 9.42331 7.8668 10.2959C7.85613 10.3259 7.84552 10.3563 7.83491 10.3861C7.77367 10.5575 7.71224 10.7255 7.65324 10.8951C7.30805 11.8861 6.97353 12.4123 6.97353 12.4123H3.02664C3.02664 12.4123 2.6917 11.8861 2.34674 10.8951C2.28733 10.7255 2.22632 10.5575 2.16507 10.3861C2.15405 10.3563 2.14367 10.3259 2.13283 10.2959C1.82395 9.42331 1.52733 8.45246 1.52733 6.79547C1.52733 5.84617 1.79294 4.40788 2.09086 3.66225C2.11007 3.61462 2.12929 3.56747 2.1491 3.52053Z" fill="#FFB138"/>
<path d="M4.29715 0.564303C4.44747 0.42884 4.58139 0.317113 4.69145 0.229816C4.80103 0.142359 4.88627 0.0797593 4.93944 0.0421249C4.9781 0.0143802 4.99938 0.000427664 4.99974 0C4.99974 0 5.0331 0.0220247 5.0934 0.0658068C5.19462 0.139205 5.3724 0.274346 5.59457 0.468185C5.77147 0.622625 5.97625 0.814165 6.19329 1.04179C6.30676 1.16073 6.42336 1.28951 6.54102 1.42765C6.26479 1.4137 5.9845 1.40349 5.70197 1.39707C5.4699 1.39151 5.23564 1.38836 4.99968 1.38836C4.7636 1.38836 4.5297 1.39151 4.29739 1.39707C4.01492 1.40349 3.73498 1.4137 3.45858 1.42765C3.57629 1.28951 3.69271 1.16073 3.80613 1.04179C3.98055 0.85923 4.14666 0.699926 4.29715 0.564303Z" fill="#F33C3C"/>
<path opacity="0.15" d="M5.31548 0.457189C5.48855 0.615211 5.68837 0.810707 5.89987 1.04261C6.44967 1.64492 7.07492 2.49143 7.49633 3.5539C7.51501 3.60111 7.53335 3.64863 7.55115 3.69664C7.83126 4.44804 8.06204 5.89125 8.03893 6.84023C7.99861 8.49695 7.678 9.4616 7.34802 10.3279C7.33664 10.3577 7.32509 10.3877 7.31377 10.4175C7.24869 10.5876 7.18326 10.7543 7.12001 10.9226C6.7829 11.8207 6.46506 12.3305 6.41189 12.4126H5.78858C5.90353 12.2433 6.20416 11.7717 6.53414 11.0143C6.60635 10.849 6.68039 10.6854 6.75484 10.5184C6.76769 10.4892 6.78066 10.4596 6.79368 10.4305C7.16947 9.57953 7.54089 8.63001 7.66934 6.97703C7.74308 6.03013 7.58946 4.57853 7.35002 3.81579C7.3344 3.76709 7.31866 3.71882 7.30233 3.67066C6.9381 2.59113 6.35866 1.71826 5.84169 1.09243C5.64281 0.851548 5.45347 0.647393 5.28901 0.482154C5.17972 0.372351 5.08223 0.280403 4.99994 0.205722C5.00418 0.201873 5.00819 0.198238 5.01261 0.194336C5.09861 0.265221 5.20071 0.352732 5.31548 0.457189Z" fill="white"/>
<path opacity="0.15" d="M2.50349 3.5539C2.9249 2.49143 3.55038 1.64492 4.09977 1.04261C4.31133 0.810707 4.51151 0.615211 4.68452 0.457189C4.79905 0.352785 4.90144 0.265275 4.98739 0.194336C4.99157 0.198238 4.99564 0.201873 5 0.205722C4.91765 0.280457 4.82004 0.372405 4.71087 0.482154C4.54635 0.647393 4.35695 0.851548 4.15807 1.09243C3.64128 1.71826 3.06148 2.59113 2.69725 3.67066C2.68098 3.71877 2.66518 3.76709 2.64991 3.81579C2.41036 4.57853 2.25651 6.03008 2.33042 6.97703C2.45875 8.63001 2.83029 9.57953 3.20625 10.4305C3.2191 10.4596 3.23195 10.4892 3.2451 10.5184C3.31955 10.6854 3.39347 10.849 3.46544 11.0143C3.79578 11.7717 4.09641 12.2433 4.21135 12.4126H3.5877C3.53476 12.3305 3.21686 11.8207 2.87993 10.9226C2.81668 10.7543 2.75119 10.5875 2.68575 10.4175C2.67444 10.3877 2.66324 10.3577 2.65168 10.3279C2.3217 9.4616 2.00132 8.49695 1.96095 6.84023C1.93784 5.89125 2.1685 4.44804 2.44844 3.69664C2.46647 3.64863 2.48492 3.60111 2.50349 3.5539Z" fill="white"/>
<path d="M6.80078 13.1025L6.68442 13.5418H3.31485L3.19849 13.1025H6.80078Z" fill="#F33C3C"/>
<path d="M6.84106 12.7012L6.90283 13.1505H5.63171L4.36813 13.1502H3.09706L3.15907 12.7012H6.84106Z" fill="#F33C3C"/>
<path d="M6.7876 13.1504L6.75795 13.2624H3.24137L3.21172 13.1507L6.7876 13.1504Z" fill="#E6E6E6"/>
<path d="M6.85782 12.8281L6.87598 12.9612H3.12296L3.14188 12.8281H6.85782Z" fill="#E6E6E6"/>
<path d="M6.97363 12.7636C6.97363 12.7985 6.9421 12.8268 6.90413 12.8268H3.09618C3.05751 12.8268 3.02615 12.7985 3.02615 12.7636V12.415H6.97357V12.7636H6.97363Z" fill="#F33C3C"/>
<path d="M6.97349 12.4122H3.0266C3.0266 12.4122 2.97379 12.3287 2.88896 12.168H7.11084C7.02649 12.3287 6.97349 12.4122 6.97349 12.4122Z" fill="#E6E6E6"/>
<path d="M4.9997 4.62402C6.24147 4.62402 7.24805 5.53703 7.24805 6.66318C7.24822 7.78948 6.24147 8.70233 4.9997 8.70233C3.75817 8.70233 2.75142 7.78948 2.75142 6.66318C2.75142 5.53703 3.75817 4.62392 4.9997 4.62402Z" fill="#F0F0F0"/>
<path d="M4.99948 4.92676C6.05333 4.92676 6.90723 5.70147 6.90723 6.65687C6.90723 7.61254 6.05338 8.38715 4.99948 8.38715C3.94598 8.38715 3.0919 7.61243 3.0919 6.65687C3.0919 5.70147 3.94598 4.92676 4.99948 4.92676Z" fill="#48A5D9"/>
<path d="M4.99948 4.92676C6.05333 4.92676 6.90723 5.70147 6.90723 6.65687C6.90723 7.61254 6.05338 8.38715 4.99948 8.38715C3.94598 8.38715 3.0919 7.61243 3.0919 6.65687C3.0919 5.70147 3.94598 4.92676 4.99948 4.92676ZM4.99948 8.32214C6.01377 8.32214 6.83537 7.57656 6.83537 6.65687C6.83537 5.73772 6.01336 4.99219 4.99948 4.99219C3.98577 4.99192 3.16364 5.73772 3.16364 6.65687C3.16364 7.57635 3.98577 8.32214 4.99948 8.32214Z" fill="#E6E6E6"/>
<path opacity="0.2" d="M4.99257 5.10938C5.85013 5.10938 6.55277 5.6818 6.66636 6.42471C6.67502 6.47127 6.65628 6.50062 6.62056 6.51799C6.16231 6.69366 5.59948 6.79672 4.99605 6.79672C4.39243 6.79646 3.82967 6.69366 3.37189 6.51794C3.33611 6.50041 3.31707 6.47132 3.32591 6.42476C3.43915 5.68175 4.14256 5.10938 4.99257 5.10938Z" fill="#E2EFF8"/>
<path d="M5.0001 9.5293C5.07013 9.5293 5.12695 9.58051 5.12695 9.64423C5.12695 9.70763 5.07013 9.75938 5.0001 9.75917C4.92984 9.75938 4.87272 9.70763 4.87272 9.64423C4.87272 9.58051 4.92984 9.5293 5.0001 9.5293Z" fill="white"/>
<path d="M4.99986 9.58496C5.03652 9.58496 5.06641 9.6119 5.06641 9.64489C5.06641 9.66076 5.05921 9.67605 5.04695 9.68728C5.03428 9.69835 5.0176 9.70465 5.00003 9.70465C4.96319 9.70465 4.93336 9.67771 4.93336 9.64489C4.9333 9.6119 4.96313 9.58496 4.99986 9.58496Z" fill="#DB8921"/>
<path d="M5.67002 9.51367C5.73987 9.51367 5.79688 9.56526 5.79688 9.62871C5.79688 9.69227 5.73987 9.74413 5.67002 9.74413C5.59982 9.74413 5.54258 9.69249 5.54258 9.62914C5.54264 9.56526 5.59964 9.51367 5.67002 9.51367Z" fill="white"/>
<path d="M5.67013 9.56934C5.7068 9.56934 5.73633 9.59628 5.73633 9.62953C5.73633 9.6623 5.7068 9.68935 5.67013 9.68935C5.65215 9.68935 5.63547 9.68293 5.6228 9.67155C5.61071 9.66043 5.60358 9.64546 5.60358 9.62953C5.60358 9.59628 5.63364 9.56934 5.67013 9.56934Z" fill="#DB8921"/>
<path d="M6.33977 9.49512C6.40979 9.49512 6.4668 9.54649 6.4668 9.61032C6.4668 9.67367 6.41015 9.72536 6.33977 9.72536C6.26956 9.72536 6.21291 9.67361 6.21291 9.61032C6.21291 9.54633 6.26956 9.49512 6.33977 9.49512Z" fill="white"/>
<path d="M6.33956 9.55078C6.37623 9.55078 6.40576 9.57756 6.40576 9.61071C6.40576 9.64358 6.37605 9.67037 6.33939 9.67063C6.30308 9.67063 6.2736 9.64358 6.2736 9.61071C6.2736 9.57756 6.30314 9.55078 6.33956 9.55078Z" fill="#DB8921"/>
<path d="M7.00977 9.4541C7.07979 9.4541 7.13721 9.50553 7.13721 9.56973C7.13721 9.63292 7.08003 9.68472 7.00977 9.68472C6.93956 9.68472 6.88274 9.63292 6.88274 9.56941C6.88274 9.50558 6.93968 9.4541 7.00977 9.4541Z" fill="white"/>
<path d="M7.0098 9.50977C7.04646 9.50977 7.07617 9.53687 7.07617 9.57012C7.07617 9.60289 7.04646 9.62967 7.00962 9.62967C6.97313 9.62967 6.94348 9.60289 6.94348 9.57012C6.94342 9.53687 6.97313 9.50977 7.0098 9.50977Z" fill="#DB8921"/>
<path d="M7.67961 9.37891C7.74982 9.37885 7.80664 9.43039 7.80664 9.49406C7.80664 9.55756 7.74982 9.6091 7.67979 9.6091C7.60905 9.6091 7.5524 9.55756 7.5524 9.49406C7.5524 9.43039 7.60905 9.37891 7.67961 9.37891Z" fill="white"/>
<path d="M7.67976 9.43457C7.71625 9.43457 7.74561 9.46151 7.74561 9.4946C7.74561 9.52753 7.71625 9.55448 7.67976 9.55448C7.6431 9.55448 7.61303 9.52753 7.61303 9.49476C7.61303 9.46167 7.6431 9.43457 7.67976 9.43457Z" fill="#DB8921"/>
<path d="M4.33049 9.51367C4.4007 9.51367 4.45752 9.56526 4.45752 9.62914C4.45752 9.69233 4.40052 9.74413 4.33049 9.74413C4.26028 9.74413 4.20328 9.69228 4.20328 9.62914C4.20328 9.56526 4.26023 9.51367 4.33049 9.51367Z" fill="white"/>
<path d="M4.33078 9.56934C4.36726 9.56934 4.39697 9.59644 4.39697 9.62969C4.39697 9.66246 4.36726 9.68951 4.33078 9.68951C4.29411 9.68951 4.26405 9.66246 4.26405 9.62969C4.26405 9.59644 4.29411 9.56934 4.33078 9.56934Z" fill="#DB8921"/>
<path d="M3.66004 9.49512C3.73018 9.49496 3.7876 9.54617 3.7876 9.61016C3.7876 9.67351 3.73018 9.7252 3.66004 9.7252C3.58995 9.7252 3.53318 9.67345 3.53318 9.61016C3.53313 9.54633 3.58995 9.49496 3.66004 9.49512Z" fill="white"/>
<path d="M3.66001 9.55078C3.69668 9.55078 3.72656 9.57756 3.72656 9.61071C3.72656 9.64358 3.69668 9.67037 3.66001 9.67037C3.62352 9.67037 3.59399 9.64358 3.59399 9.61071C3.59399 9.57756 3.62352 9.55078 3.66001 9.55078Z" fill="#DB8921"/>
<path d="M2.99016 9.4541C3.06019 9.4541 3.11719 9.50553 3.11719 9.56936C3.11719 9.63287 3.06013 9.68467 2.99033 9.68467C2.91995 9.68467 2.86313 9.63287 2.86313 9.56936C2.86313 9.50558 2.91995 9.4541 2.99016 9.4541Z" fill="white"/>
<path d="M2.9905 9.50977C3.02717 9.50977 3.05664 9.53687 3.05664 9.57012C3.05664 9.58605 3.04992 9.60091 3.03742 9.61219C3.02499 9.62352 3.00848 9.62967 2.99068 9.62967C2.95419 9.62967 2.92431 9.60289 2.92431 9.57012C2.92431 9.53687 2.95401 9.50977 2.9905 9.50977Z" fill="#DB8921"/>
<path d="M2.32055 9.37891C2.39075 9.37885 2.44775 9.43039 2.44775 9.49406C2.44716 9.55756 2.39069 9.6091 2.32055 9.6091C2.25052 9.6091 2.19316 9.55756 2.19316 9.49406C2.19316 9.43039 2.25052 9.37885 2.32055 9.37891Z" fill="white"/>
<path d="M2.32101 9.43457C2.35732 9.43457 2.38721 9.46157 2.38721 9.49439C2.38703 9.52759 2.35732 9.55448 2.32066 9.55448C2.28399 9.55448 2.25411 9.52753 2.25411 9.4946C2.25411 9.47857 2.26106 9.46354 2.27332 9.45237C2.286 9.44093 2.30285 9.43457 2.32101 9.43457Z" fill="#DB8921"/>
<path d="M5.35963 3.625C5.43207 3.625 5.49072 3.6783 5.49072 3.74421C5.49072 3.80996 5.43207 3.86332 5.35963 3.86332C5.28706 3.86348 5.22835 3.80996 5.22835 3.74421C5.22841 3.67824 5.28706 3.625 5.35963 3.625Z" fill="white"/>
<path d="M5.36015 3.67676C5.39864 3.67676 5.43018 3.7052 5.43018 3.74075C5.43018 3.77598 5.39864 3.80484 5.35997 3.80484C5.32095 3.80484 5.28959 3.77598 5.28959 3.74075C5.28953 3.7052 5.32107 3.67676 5.36015 3.67676Z" fill="#DB8921"/>
<path d="M6.07886 3.64941C6.15166 3.64941 6.20996 3.70298 6.20996 3.76852C6.20996 3.83459 6.15184 3.88773 6.07886 3.88773C6.00665 3.88773 5.94777 3.83459 5.94777 3.76852C5.948 3.70293 6.00665 3.64968 6.07886 3.64941Z" fill="white"/>
<path d="M6.07903 3.70605C6.11788 3.70605 6.14941 3.73482 6.14941 3.77004C6.14941 3.80554 6.11788 3.83403 6.07903 3.83403C6.04054 3.83403 6.00847 3.80554 6.00847 3.77004C6.00847 3.73482 6.04054 3.70627 6.07903 3.70605Z" fill="#DB8921"/>
<path d="M6.79841 3.7041C6.87104 3.7041 6.92969 3.75751 6.92969 3.82305C6.92969 3.88907 6.87104 3.94247 6.79859 3.94247C6.72579 3.94247 6.66732 3.88901 6.66732 3.82331C6.66737 3.75745 6.72585 3.7041 6.79841 3.7041Z" fill="white"/>
<path d="M6.79852 3.75684C6.83743 3.75684 6.86914 3.7856 6.86914 3.82056C6.86914 3.85605 6.83743 3.88481 6.79876 3.88481C6.75956 3.88481 6.7282 3.85611 6.7282 3.82083C6.72814 3.78565 6.7595 3.75684 6.79852 3.75684Z" fill="#DB8921"/>
<path d="M7.51796 3.75684C7.59076 3.75684 7.64941 3.81013 7.64941 3.87599C7.64941 3.9418 7.59076 3.99494 7.51814 3.9951C7.44558 3.9951 7.3871 3.9418 7.3871 3.87578C7.3871 3.81008 7.44558 3.75684 7.51796 3.75684Z" fill="white"/>
<path d="M7.51817 3.8125C7.55708 3.8125 7.58838 3.84131 7.58838 3.8766C7.58838 3.91177 7.55702 3.94059 7.51817 3.94059C7.47933 3.94059 7.44797 3.91172 7.44797 3.87633C7.44797 3.84105 7.47933 3.8125 7.51817 3.8125Z" fill="#DB8921"/>
<path d="M4.64008 3.625C4.71252 3.625 4.771 3.6783 4.771 3.74421C4.771 3.80996 4.71252 3.86348 4.64008 3.86348C4.56757 3.86348 4.50886 3.80996 4.50886 3.74421C4.50886 3.67846 4.56751 3.625 4.64008 3.625Z" fill="white"/>
<path d="M4.64024 3.67676C4.67891 3.67676 4.71045 3.7052 4.71045 3.74075C4.71045 3.77608 4.67891 3.80484 4.64024 3.80484C4.60146 3.80484 4.56992 3.77608 4.56992 3.74075C4.56986 3.7052 4.6014 3.67676 4.64024 3.67676Z" fill="#DB8921"/>
<path d="M3.92048 3.64941C3.99322 3.64941 4.05176 3.70298 4.05176 3.76879C4.05176 3.83449 3.99328 3.88773 3.92048 3.88773C3.84804 3.88773 3.78909 3.83443 3.78909 3.76879C3.78903 3.70293 3.84804 3.64941 3.92048 3.64941Z" fill="white"/>
<path d="M3.92065 3.70605C3.95968 3.70605 3.99121 3.73482 3.99121 3.77031C3.99121 3.80554 3.95968 3.83403 3.92065 3.83403C3.88216 3.83403 3.85027 3.80554 3.85027 3.77031C3.85021 3.73482 3.8821 3.70605 3.92065 3.70605Z" fill="#DB8921"/>
<path d="M3.20076 3.70508C3.27367 3.70508 3.33232 3.75838 3.33203 3.82418C3.33203 3.88994 3.27373 3.94329 3.20076 3.94313C3.12866 3.94329 3.06966 3.88994 3.06966 3.82392C3.06966 3.75832 3.12866 3.70497 3.20076 3.70508Z" fill="white"/>
<path d="M3.20104 3.75684C3.22008 3.75684 3.23788 3.76352 3.25109 3.77571C3.26453 3.78757 3.27148 3.80361 3.27148 3.8205C3.27148 3.83788 3.26412 3.85418 3.25073 3.86605C3.23771 3.87813 3.21996 3.88449 3.2014 3.88449C3.16255 3.88449 3.13084 3.856 3.13084 3.8205C3.13084 3.80361 3.13821 3.78757 3.15159 3.77539C3.16467 3.76346 3.1823 3.75684 3.20104 3.75684Z" fill="#DB8921"/>
<path d="M2.4814 3.75684C2.55385 3.75684 2.61279 3.81013 2.61279 3.87567C2.61279 3.94185 2.55396 3.9951 2.4814 3.9951C2.40884 3.9951 2.3503 3.9418 2.3503 3.87578C2.3503 3.81008 2.40878 3.75684 2.4814 3.75684Z" fill="white"/>
<path d="M2.4812 3.8125C2.52005 3.8125 2.55176 3.8411 2.55176 3.87622C2.55176 3.91182 2.52005 3.94059 2.4812 3.94059C2.44235 3.94059 2.41111 3.91182 2.41111 3.87633C2.41111 3.84105 2.44229 3.8125 2.4812 3.8125Z" fill="#DB8921"/>
<path d="M2.17967 3.45364C3.08144 3.36655 4.02618 3.32031 4.99956 3.32031C5.97295 3.32031 6.91757 3.36655 7.81928 3.45364C7.82918 3.47641 7.84032 3.49769 7.8501 3.52057C7.8629 3.55114 7.87557 3.58215 7.88818 3.61294C6.96119 3.52832 5.99494 3.48192 4.99956 3.48192C4.00419 3.48192 3.03776 3.52832 2.11094 3.61294C2.12361 3.58215 2.13605 3.5512 2.1489 3.52057C2.15863 3.49769 2.16977 3.47641 2.17967 3.45364Z" fill="white"/>
<path d="M8.05371 9.73926C8.03791 9.7901 8.022 9.84024 8.00567 9.88985C7.038 9.97271 6.03343 10.0184 4.99969 10.0184C3.966 10.0184 2.96143 9.97271 1.9937 9.88985C1.97761 9.84019 1.96163 9.7901 1.94572 9.73926C2.92901 9.82303 3.94949 9.86959 4.99969 9.86959C6.04988 9.86959 7.07042 9.82303 8.05371 9.73926Z" fill="white"/>
<path d="M2.09061 3.66225C2.10983 3.61462 2.12905 3.56752 2.14885 3.52053C2.59637 2.46693 3.24255 1.63314 3.80602 1.0419C3.98015 0.859498 4.14638 0.699926 4.29693 0.564623C4.44724 0.428947 4.58117 0.317166 4.69122 0.230083C4.8008 0.142519 4.88604 0.0797593 4.93921 0.0421249C4.97806 0.0143802 4.99933 0.000427664 4.99951 0C4.99939 0.000427664 4.98094 0.0143802 4.94728 0.0421249C4.90113 0.0798128 4.82721 0.142519 4.73225 0.230083C4.63681 0.317166 4.52075 0.429 4.39042 0.564623C4.25991 0.699926 4.11572 0.859551 3.96476 1.0419C3.47609 1.63314 2.91593 2.46698 2.528 3.52053C2.51078 3.56747 2.4941 3.61462 2.47742 3.66225C2.21918 4.40788 1.98875 5.84617 1.98875 6.79547C1.98875 8.45246 2.24594 9.42331 2.51379 10.2959C2.5231 10.3259 2.53224 10.3563 2.54185 10.3861C2.59478 10.5575 2.64772 10.7255 2.6993 10.8951C2.99839 11.8861 3.28876 12.4123 3.28876 12.4123H3.02633C3.02633 12.4123 2.6914 11.8861 2.34644 10.8951C2.28702 10.7255 2.22601 10.5575 2.16477 10.3861C2.15374 10.3563 2.14337 10.3259 2.13252 10.2959C1.82364 9.42331 1.52702 8.45246 1.52702 6.79547C1.52708 5.84617 1.7927 4.40788 2.09061 3.66225Z" fill="#D2B39A"/>
<path d="M7.45783 10.3861C7.46697 10.3563 7.47622 10.3259 7.48548 10.2959C7.75333 9.42331 8.01075 8.45246 8.01075 6.79547C8.01075 5.84617 7.78045 4.40788 7.52185 3.66225C7.50534 3.61462 7.48831 3.56752 7.47115 3.52053C7.08352 2.46693 6.52341 1.63314 6.03456 1.0419C5.84641 0.814326 5.66886 0.622786 5.51548 0.468185C5.3229 0.274507 5.1687 0.139365 5.08098 0.0658068C5.0287 0.0220247 4.99976 0 4.99976 0C4.99976 0 5.03312 0.0220247 5.09342 0.0658068C5.19463 0.139365 5.37242 0.274507 5.59459 0.468185C5.77149 0.622786 5.97627 0.814326 6.19331 1.0419C6.75719 1.63314 7.40319 2.46698 7.8503 3.52053C7.87004 3.56747 7.88967 3.61462 7.90877 3.66225C8.20704 4.40788 8.47266 5.84617 8.47266 6.79547C8.47266 8.45246 8.17568 9.42331 7.8668 10.2959C7.85613 10.3259 7.84552 10.3563 7.83491 10.3861C7.77367 10.5575 7.71224 10.7255 7.65324 10.8951C7.30805 11.8861 6.97353 12.4123 6.97353 12.4123H6.71104C6.71104 12.4123 7.00111 11.8861 7.30038 10.8951C7.35143 10.7255 7.40472 10.5575 7.45783 10.3861Z" fill="#D2B39A"/>
<defs>
<linearGradient id="paint0_linear_14470_6903" x1="3.64361" y1="13.54" x2="3.64361" y2="17.3669" gradientUnits="userSpaceOnUse">
<stop stop-color="#FFFF59"/>
<stop offset="0.3562" stop-color="#FFED5B"/>
<stop offset="1" stop-color="#FFC25F"/>
</linearGradient>
<linearGradient id="paint1_linear_14470_6903" x1="6.35712" y1="13.5401" x2="6.35712" y2="17.3669" gradientUnits="userSpaceOnUse">
<stop stop-color="#FFFF59"/>
<stop offset="0.3562" stop-color="#FFED5B"/>
<stop offset="1" stop-color="#FFC25F"/>
</linearGradient>
<linearGradient id="paint2_linear_14470_6903" x1="5.00012" y1="13.54" x2="5.00012" y2="19.9987" gradientUnits="userSpaceOnUse">
<stop stop-color="#FEED04"/>
<stop offset="0.1882" stop-color="#FBDB05"/>
<stop offset="0.5678" stop-color="#F4AB07"/>
<stop offset="1" stop-color="#EA6D0A"/>
</linearGradient>
</defs>
</svg>
