<svg width="16" height="20" viewBox="0 0 16 20" fill="none" xmlns="http://www.w3.org/2000/svg">
<g clip-path="url(#clip0_14470_6841)">
<path d="M3.55811 0.600175C3.5596 0.587581 3.5638 0.575485 3.57038 0.564755C3.57696 0.554025 3.58577 0.544928 3.59617 0.538115C3.61515 0.523032 3.63545 0.509808 3.65682 0.49862C3.69943 0.476557 3.7434 0.457379 3.78844 0.441206C3.87813 0.408019 3.96942 0.38313 4.06136 0.359567C4.24524 0.312441 4.43138 0.277263 4.61753 0.244408C4.99077 0.182016 5.36628 0.136215 5.74243 0.101369C6.11858 0.0665219 6.4957 0.0426291 6.87153 0.024708C7.24736 0.00678683 7.62642 0.00180906 8.00418 0.000149695C8.38195 -0.00150967 8.75971 0.0107664 9.13715 0.030015C9.5146 0.0492637 9.89139 0.0781404 10.2663 0.120952C10.6411 0.163764 11.0166 0.214872 11.3886 0.286889C11.5741 0.323726 11.7592 0.363879 11.9422 0.415651C12.0331 0.441869 12.1241 0.470081 12.2128 0.504927C12.2571 0.522492 12.3002 0.543 12.3419 0.566323C12.3628 0.577987 12.3827 0.591653 12.4012 0.607143C12.4113 0.614077 12.4199 0.62319 12.4262 0.633848C12.4326 0.644507 12.4366 0.656455 12.438 0.668871H12.4357C12.4333 0.657361 12.4285 0.646521 12.4217 0.637077C12.4148 0.627633 12.4061 0.619806 12.3961 0.614115C12.3768 0.601069 12.3564 0.589955 12.3351 0.580928C12.2922 0.561886 12.2481 0.545807 12.2031 0.532804C12.1135 0.50559 12.0222 0.484018 11.9302 0.466429C11.746 0.429259 11.5605 0.400054 11.3744 0.374832C11.0024 0.323723 10.6282 0.28921 10.2537 0.260005C9.87913 0.2308 9.50427 0.210557 9.12876 0.198609C8.75326 0.186662 8.37808 0.177038 8.00257 0.178698C7.62706 0.180357 7.25123 0.183011 6.87573 0.193962C6.50022 0.204914 6.12504 0.221174 5.74985 0.242082C5.37467 0.26299 5.00013 0.292861 4.62688 0.335341C4.44009 0.355585 4.25395 0.380807 4.0691 0.41333C3.97684 0.429592 3.8849 0.448511 3.79457 0.473401C3.74927 0.485102 3.70476 0.499845 3.66134 0.517539C3.63983 0.526588 3.6192 0.5377 3.59972 0.550726C3.58969 0.555989 3.58092 0.563486 3.57406 0.572671C3.56719 0.581856 3.56241 0.592498 3.56004 0.603825L3.55811 0.600175Z" fill="url(#paint0_linear_14470_6841)"/>
<path style="mix-blend-mode:multiply" opacity="0.7" d="M8.00016 19.9996C12.4185 19.9996 16.0003 19.3946 16.0003 18.6483C16.0003 17.9019 12.4185 17.2969 8.00016 17.2969C3.58179 17.2969 0 17.9019 0 18.6483C0 19.3946 3.58179 19.9996 8.00016 19.9996Z" fill="url(#paint1_radial_14470_6841)"/>
<path d="M2.11621 17.6758V18.605C2.11621 18.9303 4.75056 19.1941 8.00012 19.1941C11.2497 19.1941 13.8837 18.9286 13.8837 18.605V17.6758H2.11621Z" fill="url(#paint2_linear_14470_6841)"/>
<path d="M8.00028 18.2641C11.2497 18.2641 13.8839 18.0003 13.8839 17.675C13.8839 17.3497 11.2497 17.0859 8.00028 17.0859C4.75087 17.0859 2.1167 17.3497 2.1167 17.675C2.1167 18.0003 4.75087 18.2641 8.00028 18.2641Z" fill="url(#paint3_linear_14470_6841)"/>
<path d="M2.88184 15.3066V17.5182C2.88184 17.8013 5.1723 18.0307 8.00021 18.0307C10.8281 18.0307 13.1183 17.8013 13.1183 17.5182V15.3066H2.88184Z" fill="url(#paint4_linear_14470_6841)"/>
<path d="M8.00021 15.8188C10.827 15.8188 13.1186 15.5894 13.1186 15.3064C13.1186 15.0234 10.827 14.7939 8.00021 14.7939C5.17341 14.7939 2.88184 15.0234 2.88184 15.3064C2.88184 15.5894 5.17341 15.8188 8.00021 15.8188Z" fill="url(#paint5_linear_14470_6841)"/>
<path d="M9.24766 9.31838C10.0793 8.31181 11.0039 7.12338 11.7423 5.6784C12.3724 4.44649 12.4385 0.657491 12.4382 0.657491C12.4275 0.421861 10.3787 0.208134 9.35961 0.179261C7.97889 0.136693 6.59697 0.165272 5.21904 0.264887C4.49609 0.314668 3.57119 0.433145 3.56055 0.599413C3.56055 0.599413 3.62797 4.44649 4.25769 5.67707C4.99612 7.12205 5.92101 8.31049 6.75268 9.31706C7.02979 9.65258 7.31981 10.0581 7.52692 10.3585C7.61971 10.4928 7.67453 10.6509 7.68529 10.8152C7.69605 10.9796 7.66234 11.1438 7.58789 11.2897C7.30335 11.8483 6.75397 12.7433 5.94553 13.2809C4.76514 14.0648 4.8303 15.0731 4.8503 15.239C4.84446 15.2456 4.84094 15.254 4.8403 15.2629C4.8403 15.4378 6.2549 15.5792 8.00178 15.5792C9.74866 15.5792 11.1633 15.4378 11.1633 15.2629C11.1625 15.254 11.159 15.2457 11.1533 15.239C11.1729 15.0731 11.2384 14.0652 10.0564 13.2809C9.24766 12.744 8.69828 11.8489 8.41374 11.2897C8.33937 11.1438 8.30569 10.9796 8.31646 10.8152C8.32722 10.6509 8.38199 10.4928 8.47472 10.3585C8.68021 10.0581 8.97023 9.6539 9.24766 9.31838Z" fill="#EA9314"/>
<g style="mix-blend-mode:screen" opacity="0.6">
<path d="M3.56055 0.614475C3.56243 0.602412 3.56695 0.590947 3.57376 0.580944C3.58058 0.57094 3.58952 0.562659 3.5999 0.55673C3.61938 0.543695 3.64001 0.532583 3.66152 0.523542C3.70487 0.504549 3.74938 0.488476 3.79475 0.475422C3.88508 0.448541 3.97702 0.427633 4.06929 0.409048C4.25382 0.37221 4.44028 0.344995 4.62674 0.320768C4.99999 0.274306 5.37485 0.242779 5.75003 0.217556C6.5004 0.168107 7.25206 0.149191 8.00404 0.147532C8.75602 0.145872 9.50768 0.173419 10.2577 0.231829C10.6326 0.261697 11.0068 0.298203 11.3794 0.352299C11.5655 0.379512 11.751 0.410708 11.9349 0.451861C12.0269 0.472105 12.1185 0.495002 12.2082 0.523875C12.2531 0.53804 12.2972 0.555111 12.3401 0.574984C12.3616 0.58513 12.3821 0.597353 12.4014 0.61149C12.4116 0.617603 12.4204 0.625989 12.4271 0.636036C12.4338 0.646082 12.4383 0.657536 12.4401 0.669567C12.438 0.657787 12.4335 0.646623 12.4267 0.63687C12.42 0.627118 12.4112 0.619019 12.4011 0.613151C12.3819 0.599316 12.3613 0.587527 12.3398 0.57797C12.2969 0.558603 12.2528 0.542195 12.2078 0.528854C12.1178 0.501308 12.0262 0.480068 11.9343 0.462479C11.7501 0.424977 11.5643 0.396105 11.3781 0.37221C11.0055 0.322429 10.6313 0.287916 10.2568 0.261366C9.50725 0.208487 8.75667 0.183042 8.00501 0.185033C7.25367 0.185033 6.50234 0.202954 5.75262 0.246761C5.37743 0.268997 5.00289 0.297536 4.62964 0.34068C4.44286 0.36192 4.25672 0.386479 4.07187 0.419998C3.9796 0.437256 3.88734 0.456504 3.79701 0.482058C3.75161 0.494233 3.7071 0.509648 3.66378 0.528189C3.64206 0.536998 3.6213 0.548121 3.60184 0.561376C3.59145 0.566921 3.58246 0.574876 3.57557 0.58461C3.56869 0.594344 3.5641 0.605592 3.56216 0.617465L3.56055 0.614475Z" fill="url(#paint6_linear_14470_6841)"/>
</g>
<path d="M8.44359 11.1252H7.55644C7.53394 11.1262 7.51148 11.1226 7.4904 11.1144C7.46932 11.1062 7.45007 11.0938 7.4338 11.0778C7.41753 11.0618 7.40458 11.0425 7.39573 11.0212C7.38688 10.9999 7.38232 10.977 7.38232 10.9538C7.38232 10.9306 7.38688 10.9077 7.39573 10.8864C7.40458 10.8651 7.41753 10.8459 7.4338 10.8298C7.45007 10.8138 7.46932 10.8014 7.4904 10.7932C7.51148 10.7851 7.53394 10.7814 7.55644 10.7824H8.44359C8.48652 10.7843 8.52705 10.8032 8.55676 10.8352C8.58646 10.8671 8.60304 10.9096 8.60304 10.9538C8.60304 10.998 8.58646 11.0405 8.55676 11.0724C8.52705 11.1044 8.48652 11.1233 8.44359 11.1252Z" fill="url(#paint7_linear_14470_6841)"/>
<path d="M8.44365 11.1432C8.20848 11.1432 7.9733 11.1452 7.73845 11.1432H7.56199C7.52979 11.1435 7.49805 11.1354 7.46972 11.1197C7.44171 11.1034 7.41834 11.0798 7.40198 11.0513C7.38591 11.023 7.37744 10.9907 7.37744 10.9579C7.37744 10.9251 7.38591 10.8928 7.40198 10.8645C7.4178 10.8365 7.44056 10.8133 7.46793 10.7973C7.49531 10.7814 7.52632 10.7731 7.55779 10.7735C7.79265 10.7735 8.02782 10.7762 8.263 10.7735H8.43914C8.47017 10.7725 8.50095 10.7797 8.5285 10.7944C8.55606 10.8096 8.57939 10.8318 8.59624 10.8588C8.61324 10.8865 8.6228 10.9183 8.62393 10.951C8.62507 10.9837 8.61774 11.0162 8.60269 11.045C8.58716 11.0745 8.56421 11.0992 8.53623 11.1165C8.50825 11.1338 8.47628 11.143 8.44365 11.1432ZM8.44365 11.1081C8.47064 11.1082 8.49717 11.1009 8.52056 11.0871C8.54395 11.0732 8.56337 11.0533 8.57686 11.0292C8.59035 11.0052 8.59743 10.9779 8.59737 10.9501C8.59732 10.9224 8.59014 10.8951 8.57656 10.8711C8.56243 10.8463 8.54213 10.8259 8.51774 10.8119C8.49335 10.7979 8.46577 10.7908 8.43785 10.7915H8.26171C8.02653 10.7915 7.79135 10.7915 7.5565 10.7915C7.52886 10.792 7.50184 10.8 7.47816 10.8146C7.45448 10.8293 7.43499 10.8502 7.42166 10.8751C7.40876 10.8997 7.40241 10.9273 7.40326 10.9552C7.40411 10.9832 7.41213 11.0104 7.42649 11.0341C7.44081 11.0574 7.46089 11.0765 7.48468 11.0893C7.50848 11.1022 7.53515 11.1083 7.56199 11.1071H7.73845C7.9733 11.1061 8.20848 11.1074 8.44365 11.1081Z" fill="url(#paint8_linear_14470_6841)"/>
<path d="M8.44359 10.7551H7.55644C7.53394 10.7561 7.51148 10.7524 7.4904 10.7443C7.46932 10.7361 7.45007 10.7237 7.4338 10.7076C7.41753 10.6916 7.40458 10.6724 7.39573 10.6511C7.38688 10.6298 7.38232 10.6069 7.38232 10.5837C7.38232 10.5605 7.38688 10.5376 7.39573 10.5163C7.40458 10.495 7.41753 10.4757 7.4338 10.4597C7.45007 10.4437 7.46932 10.4312 7.4904 10.4231C7.51148 10.4149 7.53394 10.4113 7.55644 10.4123H8.44359C8.48652 10.4142 8.52705 10.4331 8.55676 10.4651C8.58646 10.497 8.60304 10.5395 8.60304 10.5837C8.60304 10.6279 8.58646 10.6704 8.55676 10.7023C8.52705 10.7342 8.48652 10.7532 8.44359 10.7551Z" fill="url(#paint9_linear_14470_6841)"/>
<path d="M8.44351 10.7735C8.20834 10.7735 7.97316 10.7762 7.73831 10.7735H7.56185C7.5294 10.7738 7.49742 10.7656 7.46894 10.7496C7.44051 10.7335 7.41687 10.7098 7.40055 10.6809C7.38445 10.6524 7.37598 10.6201 7.37598 10.5872C7.37598 10.5542 7.38445 10.5219 7.40055 10.4934C7.41647 10.4654 7.4393 10.4423 7.46672 10.4263C7.49414 10.4103 7.52518 10.4021 7.55669 10.4025C7.79154 10.4025 8.02671 10.4051 8.26189 10.4025H8.43803C8.46918 10.4013 8.50009 10.4086 8.52766 10.4235C8.55523 10.4385 8.5785 10.4606 8.59513 10.4878C8.61214 10.5154 8.62169 10.5472 8.62283 10.58C8.62396 10.6127 8.61663 10.6451 8.60159 10.6739C8.5863 10.7036 8.56357 10.7284 8.53577 10.7459C8.50797 10.7634 8.47611 10.773 8.44351 10.7735ZM8.44351 10.7383C8.4705 10.7384 8.49703 10.7312 8.52042 10.7173C8.54381 10.7035 8.56323 10.6835 8.57672 10.6595C8.59021 10.6354 8.59729 10.6081 8.59723 10.5804C8.59718 10.5526 8.59 10.5254 8.57642 10.5014C8.56229 10.4766 8.54199 10.4561 8.5176 10.4421C8.49321 10.4281 8.46563 10.4211 8.43771 10.4217H8.26157C8.02639 10.4217 7.79122 10.4217 7.55636 10.4217C7.52874 10.4223 7.50176 10.4304 7.47815 10.4451C7.45453 10.4599 7.43511 10.4808 7.42184 10.5057C7.40885 10.5301 7.40238 10.5575 7.4031 10.5853C7.40383 10.6131 7.41171 10.6402 7.42595 10.6639C7.44019 10.6875 7.46028 10.7068 7.48416 10.7198C7.50803 10.7329 7.53484 10.7391 7.56185 10.738H7.73831C7.97316 10.7357 8.20834 10.7373 8.44351 10.7383Z" fill="url(#paint10_linear_14470_6841)"/>
<path style="mix-blend-mode:screen" d="M9.77658 0.216797C9.77658 0.216797 10.3044 0.226422 10.6911 0.267242C11.046 0.304412 11.4009 0.337599 11.4009 0.337599C11.4009 0.337599 11.3041 3.44194 11.1067 4.35326C10.526 7.03015 8.43359 9.97586 8.43359 9.97586C8.43359 9.97586 9.55431 6.80182 9.74174 3.68653C9.814 2.45827 9.77658 0.216797 9.77658 0.216797Z" fill="url(#paint11_linear_14470_6841)"/>
<path style="mix-blend-mode:screen" opacity="0.36" d="M10.6914 0.268555C10.6914 0.268555 11.0111 0.303733 11.3563 0.334929C11.5676 0.352779 11.7762 0.395086 11.9783 0.461043C11.9783 0.461043 11.8831 3.58928 11.6854 4.50193C11.1047 7.17849 8.61035 9.863 8.61035 9.863C8.61035 9.863 10.4401 6.4779 10.6276 3.36095C10.7014 2.13169 10.6914 0.268555 10.6914 0.268555Z" fill="url(#paint12_linear_14470_6841)"/>
<path style="mix-blend-mode:screen" opacity="0.25" d="M6.2587 0.21875C6.2587 0.21875 6.02191 0.232355 5.64285 0.258241C5.2967 0.282136 4.9541 0.308686 4.9541 0.308686C4.9541 0.308686 5.06733 3.40075 5.26509 4.3134C5.84577 6.98996 7.32973 9.23375 7.32973 9.23375C7.32973 9.23375 6.51032 6.28804 6.32289 3.17242C6.24999 1.94383 6.2587 0.21875 6.2587 0.21875Z" fill="url(#paint13_linear_14470_6841)"/>
<path d="M13.1517 2.55806C13.1172 2.63036 13.0681 2.69428 13.0078 2.74557C12.9405 2.80424 12.855 2.83636 12.7668 2.83617C12.7213 2.83528 12.6762 2.82642 12.6336 2.80995C12.6132 2.80185 12.5933 2.79266 12.5739 2.78241C12.5627 2.77683 12.552 2.7705 12.5416 2.76349C12.5304 2.75615 12.5197 2.74818 12.5094 2.73959C12.4713 2.7051 12.4407 2.66283 12.4194 2.61547C12.3999 2.57173 12.3867 2.52535 12.38 2.47774C12.3686 2.38988 12.3727 2.30063 12.3919 2.21424C12.4095 2.13164 12.4369 2.0516 12.4736 1.97595C12.5469 1.82341 12.6523 1.68963 12.7823 1.58434C12.9163 1.47584 13.0734 1.40146 13.2407 1.3673C13.4069 1.33556 13.5777 1.33884 13.7427 1.37692C13.9006 1.41413 14.0527 1.47413 14.1943 1.55514C14.3352 1.63633 14.4648 1.73681 14.5795 1.85382C14.8067 2.09028 14.971 2.38284 15.0566 2.70342C15.1403 3.0167 15.1594 3.34455 15.1124 3.66585C15.0672 3.97874 14.9735 4.28215 14.835 4.56456C14.6999 4.84046 14.5334 5.09891 14.3392 5.33451C14.2434 5.45089 14.1428 5.56151 14.0372 5.66638C13.9846 5.71948 13.9307 5.77092 13.8759 5.8217C13.8211 5.87247 13.7681 5.92126 13.7146 5.96806C13.4959 6.15988 13.271 6.33975 13.0442 6.51465C12.8174 6.68955 12.5861 6.85748 12.3552 7.02341C12.1242 7.18935 11.8913 7.35163 11.6583 7.51226C11.4254 7.67289 11.1944 7.8375 10.9644 8.00078C10.7344 8.16406 10.5047 8.32635 10.2821 8.49859C10.1712 8.58421 10.0618 8.67149 9.95598 8.76209C9.84959 8.85039 9.74814 8.94479 9.65209 9.04485C9.60521 9.09383 9.56125 9.1457 9.52047 9.20017C9.48074 9.25049 9.44816 9.30636 9.42369 9.3661C9.4123 9.39018 9.40616 9.41653 9.40572 9.4433C9.40527 9.47008 9.41053 9.49663 9.42111 9.52109C9.43448 9.54484 9.45303 9.56506 9.47531 9.58016C9.4994 9.59712 9.52598 9.61 9.55402 9.61833H9.55854C9.56943 9.62197 9.57861 9.62965 9.5843 9.63987C9.58999 9.65009 9.59178 9.66212 9.58933 9.67363C9.58687 9.68513 9.58035 9.69529 9.57102 9.70212C9.5617 9.70895 9.55023 9.71197 9.53886 9.71059C9.49814 9.70427 9.45869 9.69115 9.42208 9.67176C9.38291 9.65129 9.34906 9.62147 9.32336 9.58481C9.29688 9.54559 9.28127 9.4997 9.2782 9.45206C9.27533 9.40815 9.27969 9.36405 9.2911 9.32163C9.31271 9.24474 9.34533 9.17159 9.38788 9.10459C9.42722 9.04034 9.47031 8.97861 9.51693 8.91973C9.70115 8.69349 9.90396 8.48397 10.1231 8.29349C10.5502 7.90785 11.0015 7.56005 11.4474 7.2086L12.1168 6.68623C12.3394 6.51255 12.5592 6.33654 12.7762 6.15822C12.9933 5.98 13.2059 5.79813 13.4094 5.6093C13.4604 5.56239 13.5107 5.51505 13.5604 5.46726C13.6091 5.4198 13.6572 5.37201 13.7036 5.3229C13.7972 5.2251 13.8857 5.12344 13.9691 5.0179C14.1355 4.81025 14.2779 4.58338 14.3933 4.34188C14.5057 4.10682 14.5819 3.85526 14.6192 3.59616C14.6547 3.3445 14.6406 3.08805 14.5776 2.84214C14.516 2.6026 14.3989 2.382 14.2362 2.1993C14.1555 2.10897 14.0634 2.03017 13.9624 1.965C13.8621 1.89925 13.7536 1.848 13.6398 1.81267C13.4181 1.74265 13.1881 1.76057 12.9946 1.88502C12.8953 1.94843 12.8102 2.03255 12.7445 2.13193C12.678 2.22721 12.6377 2.33926 12.6281 2.45618C12.6248 2.50126 12.6361 2.5462 12.6603 2.58395C12.6636 2.5876 12.6661 2.59191 12.6694 2.59523C12.6731 2.59957 12.6774 2.60346 12.682 2.60684C12.6926 2.6158 12.7036 2.62344 12.7142 2.63107C12.7357 2.64465 12.7591 2.65473 12.7836 2.66094C12.8368 2.67181 12.892 2.66324 12.9397 2.63671C12.9958 2.60634 13.0459 2.56548 13.0875 2.51624L13.09 2.51326C13.0958 2.50445 13.1047 2.49836 13.1148 2.4963C13.1249 2.49425 13.1354 2.49641 13.1439 2.5023C13.1525 2.5082 13.1584 2.51735 13.1604 2.52775C13.1624 2.53814 13.1603 2.54892 13.1546 2.55773L13.1517 2.55806Z" fill="url(#paint14_linear_14470_6841)"/>
<g style="mix-blend-mode:multiply" opacity="0.7">
<path d="M13.1325 2.5445C13.0837 2.59533 13.0278 2.63839 12.9667 2.67227C12.9353 2.68932 12.9019 2.70204 12.8673 2.71011C12.8316 2.7187 12.7946 2.71939 12.7586 2.7121C12.7222 2.70434 12.6882 2.68785 12.6592 2.66397C12.6442 2.6523 12.6306 2.6387 12.6189 2.62349C12.6076 2.60791 12.5982 2.59097 12.5908 2.57304C12.5668 2.5025 12.5631 2.42632 12.5802 2.35367C12.5948 2.28324 12.619 2.21531 12.6521 2.1519C12.6847 2.08858 12.7241 2.02924 12.7696 1.97501C12.8609 1.86434 12.9766 1.77766 13.107 1.72212C13.2398 1.66686 13.3844 1.6481 13.5264 1.66769C13.6659 1.68811 13.8004 1.7354 13.9229 1.80708C14.1689 1.94265 14.3766 2.14149 14.5258 2.38421C14.6728 2.62849 14.7585 2.90652 14.7752 3.19331C14.7919 3.47716 14.7549 3.76165 14.6661 4.03096C14.5792 4.29775 14.4576 4.55126 14.3048 4.78464C14.1535 5.0167 13.9806 5.2331 13.7887 5.4308C13.6935 5.53036 13.5951 5.62428 13.4925 5.71455C13.3899 5.80482 13.2889 5.89476 13.1857 5.98271C12.9786 6.15827 12.7663 6.32719 12.5534 6.49313C12.1257 6.825 11.6885 7.14095 11.2556 7.46253C10.8227 7.78412 10.392 8.10869 9.99294 8.47209C9.89358 8.56335 9.79712 8.65794 9.70454 8.75584C9.61222 8.85426 9.52603 8.95857 9.44646 9.06813C9.42775 9.09634 9.40775 9.12389 9.38968 9.15243C9.37182 9.18087 9.35556 9.21035 9.34097 9.24071C9.31024 9.29997 9.29251 9.36545 9.28903 9.43253C9.28833 9.46557 9.29449 9.49838 9.30709 9.52877C9.32017 9.55898 9.3393 9.58601 9.36323 9.60809C9.4129 9.65167 9.47289 9.68098 9.53711 9.69305C9.53955 9.69353 9.5417 9.69499 9.54309 9.69711C9.54448 9.69922 9.545 9.70182 9.54453 9.70433C9.54406 9.70684 9.54264 9.70905 9.54058 9.71049C9.53852 9.71192 9.536 9.71245 9.53356 9.71196C9.4657 9.69918 9.40229 9.66828 9.34968 9.62236C9.32346 9.59864 9.30246 9.56946 9.28806 9.53674C9.27409 9.50377 9.26695 9.46816 9.26709 9.4322C9.26997 9.36161 9.2878 9.29251 9.31935 9.22976C9.35001 9.16793 9.38517 9.10857 9.42452 9.0522C9.50236 8.93961 9.58705 8.8322 9.67808 8.73062C9.7697 8.63105 9.86487 8.53149 9.96294 8.43857C10.3565 8.06421 10.7827 7.72969 11.2088 7.39781C11.635 7.06594 12.0656 6.74104 12.4863 6.40385C12.697 6.2356 12.9057 6.06468 13.1083 5.88812C13.2099 5.79951 13.3102 5.70991 13.409 5.61831C13.5077 5.52671 13.6048 5.43512 13.6967 5.33788C13.882 5.14578 14.0484 4.93535 14.1935 4.70964C14.3386 4.48583 14.4537 4.24292 14.5358 3.98748C14.6176 3.73431 14.6532 3.46777 14.641 3.20128C14.6281 2.93643 14.5511 2.67908 14.4171 2.45257C14.281 2.22706 14.0905 2.04161 13.8641 1.91427C13.8085 1.8821 13.7507 1.85393 13.6912 1.82998C13.6325 1.80721 13.5716 1.79053 13.5096 1.7802C13.3858 1.75973 13.259 1.77114 13.1406 1.81338C13.021 1.85842 12.9133 1.93148 12.826 2.02678C12.736 2.12114 12.671 2.23769 12.6373 2.36529C12.62 2.4263 12.62 2.49112 12.6373 2.55213C12.6469 2.58049 12.6643 2.60539 12.6873 2.62382C12.7103 2.64358 12.7375 2.65746 12.7667 2.66431C12.8281 2.6755 12.8913 2.66373 12.9451 2.63112C13.0018 2.59991 13.0532 2.55945 13.0973 2.51131C13.1017 2.50755 13.1073 2.50561 13.113 2.50587C13.1187 2.50614 13.1241 2.50859 13.1282 2.51275C13.1322 2.51691 13.1346 2.52247 13.1349 2.52835C13.1351 2.53422 13.1332 2.53998 13.1296 2.5445H13.1325Z" fill="url(#paint15_linear_14470_6841)"/>
</g>
<g style="mix-blend-mode:color-dodge" opacity="0.7">
<path d="M12.8511 1.61311C12.9397 1.53416 13.0436 1.47546 13.1559 1.44086C13.2691 1.40439 13.3874 1.38757 13.506 1.39108C13.7438 1.40248 13.9755 1.4726 14.1815 1.59552C14.2858 1.65344 14.3832 1.7236 14.4718 1.8046C14.5596 1.88587 14.639 1.97617 14.7089 2.07408C14.7433 2.12275 14.7756 2.17286 14.8057 2.22441C14.8354 2.27652 14.8631 2.32929 14.8886 2.38338C14.9399 2.49074 14.9798 2.60345 15.0077 2.71957H15.0025C14.9082 2.50672 14.7874 2.30736 14.6431 2.12651C14.5014 1.94771 14.3282 1.79806 14.1324 1.68545C13.9393 1.56894 13.7244 1.49577 13.5018 1.47073C13.3902 1.45994 13.2777 1.46598 13.1679 1.48865C13.0559 1.51051 12.9487 1.55264 12.8511 1.61311Z" fill="url(#paint16_linear_14470_6841)"/>
</g>
<path d="M2.92878 2.51681C2.97027 2.56613 3.02039 2.60699 3.07653 2.63728C3.12425 2.66381 3.17947 2.67238 3.23267 2.66151C3.25705 2.65529 3.28034 2.64521 3.30171 2.63164C3.31267 2.624 3.32364 2.61637 3.33397 2.60741C3.3387 2.60421 3.34294 2.6003 3.34655 2.5958C3.34982 2.59227 3.35284 2.5885 3.35558 2.58451C3.37991 2.54683 3.39127 2.50184 3.38784 2.45674C3.37847 2.33981 3.33833 2.22773 3.2717 2.1325C3.20595 2.03311 3.12067 1.94899 3.02137 1.88559C2.82781 1.76114 2.59715 1.74322 2.37617 1.81324C2.26239 1.84866 2.15385 1.89991 2.05357 1.96557C1.95255 2.03066 1.86053 2.10947 1.78 2.19987C1.61709 2.38245 1.49984 2.60308 1.43837 2.84271C1.37552 3.08864 1.36137 3.34506 1.39675 3.59673C1.43421 3.85579 1.51038 4.10733 1.62257 4.34245C1.73825 4.58381 1.88059 4.81065 2.04679 5.01847C2.13002 5.12401 2.21906 5.22556 2.31229 5.32346C2.35907 5.37258 2.40714 5.42037 2.45585 5.46783C2.50456 5.51529 2.55553 5.56307 2.60683 5.60987C2.81039 5.7987 3.02298 5.98057 3.23977 6.15879C3.45655 6.337 3.67657 6.51323 3.89916 6.6868L4.56888 7.20917C5.01439 7.56062 5.46603 7.90842 5.89154 8.29406C6.11057 8.48454 6.31327 8.69406 6.49738 8.9203C6.54409 8.9791 6.58719 9.04084 6.62642 9.10516C6.66898 9.17216 6.7016 9.24531 6.7232 9.3222C6.73462 9.36462 6.73898 9.40871 6.73611 9.45263C6.73293 9.50025 6.71732 9.54611 6.69094 9.58538C6.66521 9.62214 6.63124 9.65196 6.59191 9.67233C6.55541 9.69172 6.51607 9.70484 6.47545 9.71116C6.46408 9.71254 6.45261 9.70952 6.44328 9.70269C6.43396 9.69586 6.42743 9.6857 6.42498 9.6742C6.42252 9.66269 6.42432 9.65066 6.43001 9.64044C6.4357 9.63022 6.44488 9.62254 6.45577 9.61889H6.45996C6.48811 9.61057 6.51479 9.59769 6.539 9.58073C6.56128 9.56563 6.57983 9.5454 6.5932 9.52165C6.60378 9.49719 6.60904 9.47064 6.60859 9.44387C6.60815 9.41709 6.60201 9.39075 6.59061 9.36667C6.56601 9.307 6.53344 9.25115 6.49383 9.20074C6.45296 9.14635 6.40901 9.09449 6.36221 9.04542C6.26617 8.94536 6.16471 8.85095 6.05832 8.76266C5.95219 8.67206 5.84283 8.58478 5.73185 8.49916C5.50958 8.32824 5.28021 8.16728 5.04988 8.00135C4.81954 7.83541 4.58694 7.6781 4.35403 7.51714C4.12111 7.35619 3.88916 7.1929 3.65721 7.02829C3.42526 6.86368 3.19557 6.69377 2.96814 6.51953C2.7407 6.3453 2.5165 6.16476 2.29745 5.97294C2.24293 5.92515 2.18874 5.87603 2.13615 5.82658C2.08357 5.77713 2.02808 5.72437 1.97485 5.67127C1.86968 5.5654 1.76839 5.45422 1.67258 5.33939C1.47852 5.1037 1.3122 4.84526 1.17706 4.56945C1.0384 4.28709 0.944726 3.98366 0.899626 3.67073C0.852745 3.34945 0.871643 3.02163 0.955112 2.7083C1.04101 2.38783 1.20527 2.09534 1.43224 1.85871C1.54705 1.74184 1.6766 1.64138 1.81742 1.56002C1.95909 1.47909 2.11113 1.4191 2.26906 1.38181C2.43392 1.34372 2.60458 1.34044 2.77071 1.37218C2.93813 1.40627 3.09532 1.48065 3.22944 1.58923C3.3593 1.69452 3.46466 1.82831 3.53785 1.98084C3.57478 2.05641 3.60231 2.13647 3.61979 2.21912C3.6389 2.30554 3.64294 2.39476 3.63173 2.48263C3.62495 2.53025 3.61158 2.57663 3.59205 2.62036C3.57086 2.66778 3.54019 2.71007 3.50204 2.74448C3.49226 2.75302 3.48203 2.76099 3.47139 2.76837C3.46105 2.77538 3.45027 2.7817 3.43913 2.78729C3.41978 2.79766 3.39985 2.80686 3.37945 2.81483C3.33693 2.8313 3.29197 2.84017 3.24654 2.84105C3.15821 2.84123 3.07269 2.80912 3.00524 2.75045C2.94488 2.69917 2.89583 2.63524 2.86136 2.56294C2.85682 2.55416 2.85562 2.54396 2.85797 2.53432C2.86033 2.52468 2.86608 2.51628 2.8741 2.51074C2.88213 2.50521 2.89187 2.50294 2.90143 2.50437C2.911 2.50579 2.91971 2.51082 2.92588 2.51847L2.92878 2.51681Z" fill="url(#paint17_linear_14470_6841)"/>
<g style="mix-blend-mode:multiply" opacity="0.7">
<path d="M2.91553 2.51263C2.95959 2.56084 3.01103 2.60131 3.06779 2.63243C3.1214 2.66499 3.18456 2.67676 3.24587 2.66562C3.27508 2.65883 3.30229 2.64495 3.32523 2.62513C3.34826 2.60661 3.36571 2.58176 3.37555 2.55345C3.39282 2.49243 3.39282 2.42762 3.37555 2.3666C3.34159 2.23912 3.27664 2.12263 3.18683 2.02809C3.09952 1.93279 2.99183 1.85973 2.8723 1.8147C2.75383 1.77247 2.62704 1.76107 2.50324 1.78151C2.44113 1.7918 2.38018 1.80848 2.3213 1.83129C2.26194 1.85525 2.20427 1.88342 2.14871 1.91559C1.92224 2.04292 1.73164 2.22836 1.59545 2.45388C1.46167 2.68051 1.38473 2.93779 1.37156 3.20259C1.3594 3.46911 1.39516 3.73564 1.47705 3.9888C1.55899 4.24422 1.67401 4.48713 1.81901 4.71095C1.96433 4.93651 2.13072 5.14692 2.31581 5.33919C2.40808 5.43643 2.50486 5.52802 2.60389 5.61962C2.70293 5.71122 2.80294 5.80082 2.90423 5.88943C3.10747 6.06599 3.31555 6.23691 3.52621 6.40517C3.94559 6.74235 4.3769 7.06891 4.80403 7.39913C5.23115 7.72934 5.65602 8.06553 6.04991 8.43988C6.14669 8.53413 6.24347 8.63104 6.33444 8.73193C6.42557 8.8334 6.51037 8.94069 6.58833 9.05318C6.62791 9.1094 6.66308 9.16877 6.6935 9.23073C6.72519 9.29343 6.74304 9.36256 6.74576 9.43318C6.74601 9.46912 6.73898 9.50472 6.72511 9.53771C6.71049 9.5703 6.68952 9.59944 6.66349 9.62334C6.61089 9.66926 6.54748 9.70016 6.47961 9.71294C6.4784 9.71318 6.47716 9.71318 6.47596 9.71293C6.47475 9.71267 6.47361 9.71218 6.47259 9.71147C6.47157 9.71076 6.4707 9.70985 6.47002 9.70879C6.46934 9.70774 6.46888 9.70655 6.46864 9.70531C6.46836 9.70409 6.46832 9.70282 6.46853 9.70158C6.46874 9.70035 6.46918 9.69916 6.46985 9.69811C6.47051 9.69705 6.47137 9.69615 6.47239 9.69545C6.4734 9.69475 6.47454 9.69426 6.47574 9.69403C6.53994 9.68188 6.59991 9.65258 6.64962 9.60907C6.67346 9.58697 6.69248 9.55994 6.70543 9.52975C6.71801 9.49933 6.72427 9.46656 6.72382 9.43351C6.72019 9.36646 6.70247 9.30101 6.67188 9.24168C6.65718 9.21132 6.64081 9.18185 6.62285 9.15341C6.60478 9.12486 6.5851 9.09732 6.56607 9.06911C6.4866 8.95946 6.4004 8.85515 6.30799 8.75682C6.21508 8.65726 6.11862 8.56433 6.01959 8.47307C5.62053 8.10801 5.18889 7.78576 4.75661 7.46351C4.32432 7.14126 3.88558 6.82532 3.45911 6.49411C3.24555 6.32817 3.03392 6.15925 2.82681 5.98369C2.72358 5.89574 2.62067 5.8068 2.52002 5.71553C2.41937 5.62427 2.31904 5.53068 2.22387 5.43178C2.03172 5.23425 1.85884 5.01783 1.70771 4.78562C1.55478 4.55231 1.43324 4.29878 1.3464 4.03194C1.25754 3.76266 1.2205 3.47814 1.23736 3.19429C1.25376 2.9075 1.33935 2.62942 1.48641 2.38519C1.63565 2.14255 1.84336 1.94373 2.08935 1.80806C2.21193 1.73637 2.34654 1.68909 2.48615 1.66867C2.62816 1.64908 2.77269 1.66784 2.90553 1.7231C3.03588 1.77872 3.15153 1.8654 3.24296 1.97599C3.28834 2.03023 3.32763 2.08957 3.36007 2.15288C3.39334 2.21627 3.41767 2.28421 3.43233 2.35465C3.44929 2.42734 3.44548 2.50351 3.42136 2.57402C3.41416 2.59201 3.40473 2.60897 3.3933 2.62447C3.38168 2.63976 3.36811 2.65337 3.35297 2.66495C3.324 2.68883 3.28996 2.70532 3.25361 2.71308C3.21765 2.72036 3.18059 2.71968 3.1449 2.71109C3.1104 2.70303 3.0771 2.6903 3.04586 2.67325C2.98467 2.63945 2.92877 2.59638 2.88004 2.54548C2.8776 2.54338 2.8756 2.54079 2.87419 2.53785C2.87278 2.53492 2.87197 2.53172 2.87183 2.52845C2.87168 2.52518 2.87221 2.52191 2.87336 2.51886C2.87451 2.51581 2.87626 2.51304 2.87851 2.51072C2.88076 2.50841 2.88346 2.5066 2.88642 2.50542C2.88939 2.50423 2.89256 2.5037 2.89574 2.50385C2.89892 2.50399 2.90204 2.50482 2.90489 2.50627C2.90774 2.50773 2.91026 2.50978 2.9123 2.51229L2.91553 2.51263Z" fill="url(#paint18_linear_14470_6841)"/>
</g>
<g style="mix-blend-mode:color-dodge" opacity="0.7">
<path d="M3.16308 1.61339C3.06541 1.55269 2.95804 1.51033 2.84596 1.48828C2.73622 1.4656 2.62384 1.45956 2.51239 1.47035C2.2897 1.49539 2.07467 1.56856 1.88139 1.68507C1.68566 1.7978 1.51248 1.94769 1.37103 2.1268C1.22619 2.30777 1.10484 2.50735 1.01004 2.72052H1.00488C1.03272 2.60434 1.07275 2.49162 1.12425 2.38433C1.14973 2.33024 1.17747 2.27747 1.20715 2.22536C1.23683 2.17326 1.27006 2.12381 1.30393 2.07502C1.33844 2.02592 1.37571 1.97893 1.41555 1.93431C1.53427 1.79737 1.67532 1.68282 1.83235 1.5958C2.03847 1.47347 2.27016 1.40392 2.50788 1.39303C2.62653 1.38954 2.74493 1.40636 2.85822 1.44281C2.97037 1.47698 3.07425 1.53511 3.16308 1.61339Z" fill="url(#paint19_linear_14470_6841)"/>
</g>
<path style="mix-blend-mode:screen" opacity="0.3" d="M3.56055 0.599846C3.56055 0.599846 3.6541 0.11332 8.23825 0.168411C12.3998 0.218856 12.4388 0.666221 12.4388 0.666221C12.4388 0.666221 12.333 3.12441 11.9607 3.94944C11.4059 5.17737 9.91512 6.41559 7.99952 6.41559C6.37878 6.41559 4.6932 5.26598 4.12832 4.2478C3.56345 3.22961 3.56119 0.791337 3.56055 0.599846Z" fill="url(#paint20_linear_14470_6841)"/>
</g>
<defs>
<linearGradient id="paint0_linear_14470_6841" x1="3.90458" y1="-0.780744" x2="12.1588" y2="1.82634" gradientUnits="userSpaceOnUse">
<stop stop-color="#FFB13B"/>
<stop offset="0.02" stop-color="#F5A232"/>
<stop offset="0.07" stop-color="#DC7E1D"/>
<stop offset="0.11" stop-color="#CB640D"/>
<stop offset="0.15" stop-color="#C05403"/>
<stop offset="0.19" stop-color="#BC4E00"/>
<stop offset="0.27" stop-color="#C75C00"/>
<stop offset="0.42" stop-color="#E48100"/>
<stop offset="0.44" stop-color="#E88700"/>
<stop offset="0.63" stop-color="#FFFA81"/>
<stop offset="0.68" stop-color="#FFFA85"/>
<stop offset="0.72" stop-color="#FFFA93"/>
<stop offset="0.78" stop-color="#FFFAA8"/>
<stop offset="0.83" stop-color="#FFFAC7"/>
<stop offset="0.84" stop-color="#FFFACF"/>
<stop offset="1" stop-color="#E88700"/>
</linearGradient>
<radialGradient id="paint1_radial_14470_6841" cx="0" cy="0" r="1" gradientUnits="userSpaceOnUse" gradientTransform="translate(8.03894 19.0122) scale(8.01511 1.38872)">
<stop offset="0.5" stop-color="#261400"/>
<stop offset="0.54" stop-color="#514333"/>
<stop offset="0.59" stop-color="#7A6E62"/>
<stop offset="0.63" stop-color="#9D958C"/>
<stop offset="0.68" stop-color="#BCB6B0"/>
<stop offset="0.73" stop-color="#D4D1CD"/>
<stop offset="0.78" stop-color="#E7E5E3"/>
<stop offset="0.84" stop-color="#F5F4F3"/>
<stop offset="0.91" stop-color="#FDFCFC"/>
<stop offset="1" stop-color="white"/>
</radialGradient>
<linearGradient id="paint2_linear_14470_6841" x1="2.11621" y1="18.4344" x2="13.8837" y2="18.4344" gradientUnits="userSpaceOnUse">
<stop offset="0.06" stop-color="#FFF465"/>
<stop offset="0.07" stop-color="#FEF263"/>
<stop offset="0.09" stop-color="#F1C745"/>
<stop offset="0.11" stop-color="#E6A42C"/>
<stop offset="0.14" stop-color="#DE8919"/>
<stop offset="0.16" stop-color="#D8750B"/>
<stop offset="0.18" stop-color="#D46A03"/>
<stop offset="0.21" stop-color="#D36600"/>
<stop offset="0.28" stop-color="#B84900"/>
<stop offset="0.32" stop-color="#BE5100"/>
<stop offset="0.37" stop-color="#D06700"/>
<stop offset="0.42" stop-color="#E88700"/>
<stop offset="0.47" stop-color="#EDA22F"/>
<stop offset="0.64" stop-color="#FFFAC4"/>
<stop offset="0.69" stop-color="#FFFAC0"/>
<stop offset="0.74" stop-color="#FFF9B2"/>
<stop offset="0.8" stop-color="#FFF89D"/>
<stop offset="0.86" stop-color="#FFF67E"/>
<stop offset="0.87" stop-color="#FFF575"/>
<stop offset="0.93" stop-color="#F4C23F"/>
<stop offset="1" stop-color="#E88700"/>
</linearGradient>
<linearGradient id="paint3_linear_14470_6841" x1="6.14114" y1="20.5105" x2="10.0058" y2="14.941" gradientUnits="userSpaceOnUse">
<stop stop-color="#B84900"/>
<stop offset="0.06" stop-color="#BF5100"/>
<stop offset="0.15" stop-color="#D16700"/>
<stop offset="0.21" stop-color="#E27D00"/>
<stop offset="1" stop-color="#FFF575"/>
</linearGradient>
<linearGradient id="paint4_linear_14470_6841" x1="2.88184" y1="16.6686" x2="13.1183" y2="16.6686" gradientUnits="userSpaceOnUse">
<stop offset="0.06" stop-color="#FFF465"/>
<stop offset="0.07" stop-color="#FEF263"/>
<stop offset="0.09" stop-color="#F1C745"/>
<stop offset="0.11" stop-color="#E6A42C"/>
<stop offset="0.14" stop-color="#DE8919"/>
<stop offset="0.16" stop-color="#D8750B"/>
<stop offset="0.18" stop-color="#D46A03"/>
<stop offset="0.21" stop-color="#D36600"/>
<stop offset="0.28" stop-color="#B84900"/>
<stop offset="0.32" stop-color="#BE5100"/>
<stop offset="0.37" stop-color="#D06700"/>
<stop offset="0.42" stop-color="#E88700"/>
<stop offset="0.47" stop-color="#EDA22F"/>
<stop offset="0.64" stop-color="#FFFAC4"/>
<stop offset="0.69" stop-color="#FFFAC0"/>
<stop offset="0.74" stop-color="#FFF9B2"/>
<stop offset="0.8" stop-color="#FFF89D"/>
<stop offset="0.86" stop-color="#FFF67E"/>
<stop offset="0.87" stop-color="#FFF575"/>
<stop offset="0.93" stop-color="#F4C23F"/>
<stop offset="1" stop-color="#E88700"/>
</linearGradient>
<linearGradient id="paint5_linear_14470_6841" x1="6.38269" y1="17.7732" x2="9.74473" y2="12.9282" gradientUnits="userSpaceOnUse">
<stop stop-color="#B84900"/>
<stop offset="0.06" stop-color="#BF5100"/>
<stop offset="0.15" stop-color="#D16700"/>
<stop offset="0.21" stop-color="#E27D00"/>
<stop offset="1" stop-color="#FFF575"/>
</linearGradient>
<linearGradient id="paint6_linear_14470_6841" x1="3.637" y1="-0.0715042" x2="12.3943" y2="1.12485" gradientUnits="userSpaceOnUse">
<stop stop-color="#231F20"/>
<stop offset="0.73" stop-color="white"/>
</linearGradient>
<linearGradient id="paint7_linear_14470_6841" x1="7.38966" y1="10.954" x2="8.61005" y2="10.954" gradientUnits="userSpaceOnUse">
<stop stop-color="#E88700"/>
<stop offset="0.19" stop-color="#B84900"/>
<stop offset="0.24" stop-color="#BE5100"/>
<stop offset="0.33" stop-color="#D06700"/>
<stop offset="0.42" stop-color="#E88700"/>
<stop offset="0.47" stop-color="#EDA22F"/>
<stop offset="0.64" stop-color="#FFFAC4"/>
<stop offset="0.68" stop-color="#FFFAC0"/>
<stop offset="0.72" stop-color="#FFF9B2"/>
<stop offset="0.76" stop-color="#FFF89D"/>
<stop offset="0.8" stop-color="#FFF67E"/>
<stop offset="0.81" stop-color="#FFF575"/>
<stop offset="0.9" stop-color="#F4C23F"/>
<stop offset="1" stop-color="#E88700"/>
</linearGradient>
<linearGradient id="paint8_linear_14470_6841" x1="8.00298" y1="11.1512" x2="7.99581" y2="10.7573" gradientUnits="userSpaceOnUse">
<stop stop-color="#BC4E00"/>
<stop offset="0.1" stop-color="#C75C00"/>
<stop offset="0.29" stop-color="#E48100"/>
<stop offset="0.32" stop-color="#E88700"/>
<stop offset="1" stop-color="#FFFA81"/>
</linearGradient>
<linearGradient id="paint9_linear_14470_6841" x1="7.38966" y1="10.5842" x2="8.61005" y2="10.5842" gradientUnits="userSpaceOnUse">
<stop stop-color="#E88700"/>
<stop offset="0.19" stop-color="#B84900"/>
<stop offset="0.24" stop-color="#BE5100"/>
<stop offset="0.33" stop-color="#D06700"/>
<stop offset="0.42" stop-color="#E88700"/>
<stop offset="0.47" stop-color="#EDA22F"/>
<stop offset="0.64" stop-color="#FFFAC4"/>
<stop offset="0.68" stop-color="#FFFAC0"/>
<stop offset="0.72" stop-color="#FFF9B2"/>
<stop offset="0.76" stop-color="#FFF89D"/>
<stop offset="0.8" stop-color="#FFF67E"/>
<stop offset="0.81" stop-color="#FFF575"/>
<stop offset="0.9" stop-color="#F4C23F"/>
<stop offset="1" stop-color="#E88700"/>
</linearGradient>
<linearGradient id="paint10_linear_14470_6841" x1="8.00252" y1="10.7825" x2="7.99535" y2="10.3869" gradientUnits="userSpaceOnUse">
<stop stop-color="#BC4E00"/>
<stop offset="0.1" stop-color="#C75C00"/>
<stop offset="0.29" stop-color="#E48100"/>
<stop offset="0.32" stop-color="#E88700"/>
<stop offset="1" stop-color="#FFFA81"/>
</linearGradient>
<linearGradient id="paint11_linear_14470_6841" x1="8.0697" y1="9.85539" x2="11.266" y2="0.292944" gradientUnits="userSpaceOnUse">
<stop/>
<stop offset="0.12" stop-color="#040404"/>
<stop offset="0.22" stop-color="#0F0F0F"/>
<stop offset="0.33" stop-color="#222222"/>
<stop offset="0.43" stop-color="#3C3C3C"/>
<stop offset="0.53" stop-color="#5E5E5E"/>
<stop offset="0.63" stop-color="#888888"/>
<stop offset="0.73" stop-color="#B9B9B9"/>
<stop offset="0.82" stop-color="#EBEBEB"/>
<stop offset="0.99" stop-color="#3E3E3E"/>
<stop offset="1" stop-color="#2E2E2E"/>
</linearGradient>
<linearGradient id="paint12_linear_14470_6841" x1="8.81907" y1="9.93237" x2="11.9844" y2="0.462333" gradientUnits="userSpaceOnUse">
<stop/>
<stop offset="0.09" stop-color="#040404"/>
<stop offset="0.18" stop-color="#0F0F0F"/>
<stop offset="0.26" stop-color="#222222"/>
<stop offset="0.35" stop-color="#3C3C3C"/>
<stop offset="0.43" stop-color="#5E5E5E"/>
<stop offset="0.51" stop-color="#888888"/>
<stop offset="0.59" stop-color="#BABABA"/>
<stop offset="0.67" stop-color="#F2F2F2"/>
<stop offset="0.68" stop-color="white"/>
<stop offset="1" stop-color="#3D3E3D"/>
</linearGradient>
<linearGradient id="paint13_linear_14470_6841" x1="7.87783" y1="9.05056" x2="4.9559" y2="0.308578" gradientUnits="userSpaceOnUse">
<stop/>
<stop offset="0.07" stop-color="#040404"/>
<stop offset="0.15" stop-color="#101010"/>
<stop offset="0.23" stop-color="#252525"/>
<stop offset="0.3" stop-color="#424242"/>
<stop offset="0.38" stop-color="#676767"/>
<stop offset="0.46" stop-color="#959595"/>
<stop offset="0.54" stop-color="#CACACA"/>
<stop offset="0.6" stop-color="white"/>
<stop offset="0.75" stop-color="#FDFDFD"/>
<stop offset="0.8" stop-color="#F6F6F6"/>
<stop offset="0.84" stop-color="#EAEAEA"/>
<stop offset="0.88" stop-color="#D9D9D9"/>
<stop offset="0.9" stop-color="#C2C2C2"/>
<stop offset="0.93" stop-color="#A6A6A6"/>
<stop offset="0.95" stop-color="#858585"/>
<stop offset="0.97" stop-color="#5F5F5F"/>
<stop offset="0.99" stop-color="#353535"/>
<stop offset="1" stop-color="#242424"/>
</linearGradient>
<linearGradient id="paint14_linear_14470_6841" x1="13.1591" y1="7.73229" x2="10.266" y2="3.0516" gradientUnits="userSpaceOnUse">
<stop offset="0.15" stop-color="#E88700"/>
<stop offset="0.2" stop-color="#ED9E1A"/>
<stop offset="0.28" stop-color="#F3BF3F"/>
<stop offset="0.37" stop-color="#F8D95C"/>
<stop offset="0.45" stop-color="#FCEB70"/>
<stop offset="0.53" stop-color="#FEF67D"/>
<stop offset="0.61" stop-color="#FFFA81"/>
<stop offset="0.67" stop-color="#FEF67D"/>
<stop offset="0.74" stop-color="#FCEA6F"/>
<stop offset="0.82" stop-color="#F8D75A"/>
<stop offset="0.89" stop-color="#F3BC3B"/>
<stop offset="0.97" stop-color="#EC9914"/>
<stop offset="1" stop-color="#E88700"/>
</linearGradient>
<linearGradient id="paint15_linear_14470_6841" x1="12.6696" y1="6.66836" x2="10.3715" y2="4.58512" gradientUnits="userSpaceOnUse">
<stop stop-color="#BC4E00"/>
<stop offset="0.04" stop-color="#C75C00"/>
<stop offset="0.13" stop-color="#E48100"/>
<stop offset="0.14" stop-color="#E88700"/>
<stop offset="0.2" stop-color="#ED9E1A"/>
<stop offset="0.3" stop-color="#F3BF3F"/>
<stop offset="0.4" stop-color="#F8D95C"/>
<stop offset="0.5" stop-color="#FCEB70"/>
<stop offset="0.6" stop-color="#FEF67D"/>
<stop offset="0.69" stop-color="#FFFA81"/>
<stop offset="0.74" stop-color="#FEF67D"/>
<stop offset="0.8" stop-color="#FCEA6F"/>
<stop offset="0.85" stop-color="#F8D75A"/>
<stop offset="0.91" stop-color="#F3BC3B"/>
<stop offset="0.97" stop-color="#EC9914"/>
<stop offset="1" stop-color="#E88700"/>
</linearGradient>
<linearGradient id="paint16_linear_14470_6841" x1="14.8899" y1="2.88584" x2="13.0991" y2="1.2625" gradientUnits="userSpaceOnUse">
<stop stop-color="#231F20"/>
<stop offset="0.73" stop-color="white"/>
</linearGradient>
<linearGradient id="paint17_linear_14470_6841" x1="2.89652" y1="7.40663" x2="5.81424" y2="3.3565" gradientUnits="userSpaceOnUse">
<stop offset="0.15" stop-color="#E88700"/>
<stop offset="0.2" stop-color="#ED9E1A"/>
<stop offset="0.28" stop-color="#F3BF3F"/>
<stop offset="0.37" stop-color="#F8D95C"/>
<stop offset="0.45" stop-color="#FCEB70"/>
<stop offset="0.53" stop-color="#FEF67D"/>
<stop offset="0.61" stop-color="#FFFA81"/>
<stop offset="0.67" stop-color="#FEF67D"/>
<stop offset="0.74" stop-color="#FCEA6F"/>
<stop offset="0.82" stop-color="#F8D75A"/>
<stop offset="0.89" stop-color="#F3BC3B"/>
<stop offset="0.97" stop-color="#EC9914"/>
<stop offset="1" stop-color="#E88700"/>
</linearGradient>
<linearGradient id="paint18_linear_14470_6841" x1="3.34458" y1="6.66834" x2="5.64298" y2="4.58511" gradientUnits="userSpaceOnUse">
<stop stop-color="#BC4E00"/>
<stop offset="0.04" stop-color="#C75C00"/>
<stop offset="0.13" stop-color="#E48100"/>
<stop offset="0.14" stop-color="#E88700"/>
<stop offset="0.2" stop-color="#ED9E1A"/>
<stop offset="0.3" stop-color="#F3BF3F"/>
<stop offset="0.4" stop-color="#F8D95C"/>
<stop offset="0.5" stop-color="#FCEB70"/>
<stop offset="0.6" stop-color="#FEF67D"/>
<stop offset="0.69" stop-color="#FFFA81"/>
<stop offset="0.74" stop-color="#FEF67D"/>
<stop offset="0.8" stop-color="#FCEA6F"/>
<stop offset="0.85" stop-color="#F8D75A"/>
<stop offset="0.91" stop-color="#F3BC3B"/>
<stop offset="0.97" stop-color="#EC9914"/>
<stop offset="1" stop-color="#E88700"/>
</linearGradient>
<linearGradient id="paint19_linear_14470_6841" x1="1.12424" y1="2.88612" x2="2.91477" y2="1.26278" gradientUnits="userSpaceOnUse">
<stop stop-color="#231F20"/>
<stop offset="0.73" stop-color="white"/>
</linearGradient>
<linearGradient id="paint20_linear_14470_6841" x1="8.00017" y1="6.41692" x2="8.00017" y2="0.164097" gradientUnits="userSpaceOnUse">
<stop/>
<stop offset="0.05" stop-color="#1A1A1A"/>
<stop offset="0.23" stop-color="#6A6A6A"/>
<stop offset="0.39" stop-color="#AAAAAA"/>
<stop offset="0.52" stop-color="#D8D8D8"/>
<stop offset="0.63" stop-color="#F4F4F4"/>
<stop offset="0.68" stop-color="white"/>
<stop offset="0.74" stop-color="#FCFCFC"/>
<stop offset="0.78" stop-color="#F1F1F1"/>
<stop offset="0.83" stop-color="#DFDFDF"/>
<stop offset="0.87" stop-color="#C6C7C6"/>
<stop offset="0.91" stop-color="#A6A7A6"/>
<stop offset="0.95" stop-color="#7F7F7F"/>
<stop offset="0.99" stop-color="#515251"/>
<stop offset="1" stop-color="#3D3E3D"/>
</linearGradient>
<clipPath id="clip0_14470_6841">
<rect width="16" height="20" fill="white"/>
</clipPath>
</defs>
</svg>
