<svg width="16" height="18" viewBox="0 0 16 18" fill="none" xmlns="http://www.w3.org/2000/svg">
<g clip-path="url(#clip0_14470_6873)">
<path d="M13.0102 5.11696L11.5386 4.78794L13.147 4.66602L14.7042 4.97262L13.0102 5.11696Z" fill="#D4AF37"/>
<path d="M12.4804 14.7079L11.1997 13.6913L11.5383 4.78809L13.0099 5.1171L12.4804 14.7079Z" fill="#705707"/>
<path d="M14.704 4.97266L14.0115 14.2533L12.4805 14.7078L13.01 5.11699L14.704 4.97266Z" fill="#E88700"/>
<path d="M12.2033 6.91113L11.8296 14.9008L10.1392 15.4028L10.3454 7.14064L12.2033 6.91113Z" fill="#E88700"/>
<path d="M10.1391 15.4027L8.98096 14.2829L9.05571 6.625L10.3454 7.14049L10.1391 15.4027Z" fill="#705707"/>
<path d="M10.3453 7.14102L9.05566 6.62553L10.8046 6.43457L12.2032 6.91151L10.3453 7.14102Z" fill="#D4AF37"/>
<path d="M7.53969 16.1736L6.53913 14.9338L6.40674 8.91016L7.48025 9.66681L7.53969 16.1736Z" fill="#705707"/>
<path d="M9.51582 9.32715L9.41765 15.617L7.53991 16.1737L7.48047 9.66692L9.51582 9.32715Z" fill="#E88700"/>
<path d="M7.48025 9.66698L6.40674 8.91033L8.3061 8.62793L9.5156 9.3272L7.48025 9.66698Z" fill="#D4AF37"/>
<path d="M4.64187 17.0348L3.84034 15.6542L3.56836 10.9287L4.39601 11.9211L4.64187 17.0348Z" fill="#705707"/>
<path d="M6.64028 11.4736L6.73755 16.4125L4.64186 17.0346L4.396 11.921L6.64028 11.4736Z" fill="#E88700"/>
<path d="M4.39601 11.9213L3.56836 10.9289L5.64423 10.5586L6.6403 11.4739L4.39601 11.9213Z" fill="#D4AF37"/>
<path d="M1.00941 13.9373L0.472656 12.7064L2.75927 12.251L3.50677 13.3806L1.00941 13.9373Z" fill="#D4AF37"/>
<path d="M1.38676 17.9999L0.8401 16.4534L0.472656 12.7061L1.00941 13.937L1.38676 17.9999Z" fill="#705707"/>
<path d="M3.50712 13.3799L3.74308 17.3003L1.38712 17.9996L1.00977 13.9366L3.50712 13.3799Z" fill="#E88700"/>
<path d="M15.1344 3.94701L13.5385 3.72288L12.9126 2.90527L14.4967 3.06037L15.1344 3.94701Z" fill="#D4AF37"/>
<path d="M11.8904 3.80882L10.4585 3.58111L12.0517 1.77734L13.6124 1.83293L11.8904 3.80882Z" fill="#9A5A00"/>
<path d="M12.8085 0.716306L11.2729 0.757546L14.2854 0.0986154L16.0002 0L12.8085 0.716306Z" fill="#E88700"/>
<path d="M13.6127 1.83286L12.052 1.77728L11.2729 0.757059L12.8085 0.71582L13.6127 1.83286Z" fill="#D4AF37"/>
<path d="M7.47763 4.05082L6.33838 3.78008L10.4586 3.58105L11.8906 3.80877L7.47763 4.05082Z" fill="#9A5A00"/>
<path d="M2.52448 10.4781L1.83643 9.57527L6.33851 3.78027L7.47776 4.05102L2.52448 10.4781Z" fill="#9A5A00"/>
<path d="M16 0L15.1345 3.94731L14.4969 3.06066L12.294 5.78335L8.15756 6.19215L3.41772 12.4291L0.715026 12.9832L0.508789 10.8136L2.52432 10.4783L7.47761 4.0513L11.8905 3.80924L13.6125 1.83335L12.8082 0.716306L16 0Z" fill="#E88700"/>
<path d="M0.715074 12.9836L0.199032 11.828L0 9.84766L0.508837 10.8141L0.715074 12.9836Z" fill="#E88700"/>
<path d="M0.508837 10.8133L0 9.84684L1.83632 9.5752L2.52437 10.478L0.508837 10.8133Z" fill="#9A5A00"/>
<path style="mix-blend-mode:color-dodge" opacity="0.1" d="M7.88197 5.13428L12.0941 4.82946L16 0L12.8082 0.716306L13.6125 1.83335L11.8905 3.80924L7.47761 4.0513L2.52432 10.4783L0.508789 10.8136L0.546614 11.2162L0.625867 12.0257L3.01515 11.4197L7.88197 5.13428Z" fill="url(#paint0_radial_14470_6873)"/>
</g>
<defs>
<radialGradient id="paint0_radial_14470_6873" cx="0" cy="0" r="1" gradientUnits="userSpaceOnUse" gradientTransform="translate(9.54177 0.966431) scale(15.0904 15.0218)">
<stop stop-color="white"/>
<stop offset="0.11" stop-color="#D6D6D6"/>
<stop offset="0.29" stop-color="#969696"/>
<stop offset="0.47" stop-color="#606060"/>
<stop offset="0.64" stop-color="#373737"/>
<stop offset="0.78" stop-color="#191919"/>
<stop offset="0.91" stop-color="#060606"/>
<stop offset="1"/>
</radialGradient>
<clipPath id="clip0_14470_6873">
<rect width="16" height="18" fill="white"/>
</clipPath>
</defs>
</svg>
