<svg width="17" height="15" viewBox="0 0 17 15" fill="none" xmlns="http://www.w3.org/2000/svg">
<path d="M0.00141144 12.3471L0.00305796 12.621L7.87598 10.4522L7.87424 10.1934L0.00141144 12.3471Z" fill="#CFCFCF"/>
<path d="M16.4761 12.8313L16.4744 12.5575L7.87424 10.1934L7.87597 10.4522L16.4761 12.8313Z" fill="#CFCFCF"/>
<path d="M8.60307 15.0001L16.4761 12.8313L7.87597 10.4521L0.00305367 12.6209L8.60307 15.0001Z" fill="#CFCFCF"/>
<path d="M8.60138 14.7258L0.00136566 12.3467L0.00301266 12.6206L8.60303 14.9997L8.60138 14.7258Z" fill="#E6E6E6"/>
<path d="M16.4741 12.5575L7.87393 10.1934L0.00110054 12.3471L8.60112 14.7262L16.4741 12.5575Z" fill="#B3B3B3"/>
<path d="M8.60142 14.7264L8.60307 15.0003L16.4761 12.8315L16.4744 12.5576L8.60142 14.7264Z" fill="#CFCFCF"/>
<path d="M0.000380993 12.0782L0.00202751 12.3463L7.87451 10.1929L7.87287 9.9248L0.000380993 12.0782Z" fill="#CFCFCF"/>
<path d="M16.0703 12.4462L16.0686 12.1781L7.87272 9.9248L7.87437 10.1929L16.0703 12.4462Z" fill="#CFCFCF"/>
<path d="M8.19774 14.6153L16.0703 12.4456L7.87437 10.1924L0.00188255 12.3457L8.19774 14.6153Z" fill="#CFCFCF"/>
<path d="M8.19611 14.3477L0.000247002 12.0781L0.00189304 12.3463L8.19775 14.6158L8.19611 14.3477Z" fill="#E6E6E6"/>
<path d="M16.0684 12.1781L7.8725 9.9248L1.33514e-05 12.0782L8.19587 14.3477L16.0684 12.1781Z" fill="#B3B3B3"/>
<path d="M8.19609 14.3474L8.19774 14.6155L16.0703 12.4459L16.0686 12.1777L8.19609 14.3474Z" fill="#CFCFCF"/>
<path d="M15.4175 11.9998L15.4158 11.7259L7.87669 9.63574L7.87245 9.92489L15.4175 11.9998Z" fill="#CFCFCF"/>
<path d="M0.00345993 11.8046L0.00510645 12.0784L7.87222 9.92489L7.87646 9.63574L0.00345993 11.8046Z" fill="#CFCFCF"/>
<path d="M7.54448 14.1685L15.4175 11.9997L7.87245 9.9248L0.00533485 12.0783L7.54448 14.1685Z" fill="#CFCFCF"/>
<path d="M7.54279 13.8948L0.00364494 11.8047L-8.2016e-05 12.0784L7.54443 14.1687L7.54279 13.8948Z" fill="#E6E6E6"/>
<path d="M15.4155 11.7259L7.87639 9.63574L0.00338173 11.8046L7.54252 13.8947L15.4155 11.7259Z" fill="#B3B3B3"/>
<path d="M7.54283 13.8944L7.54448 14.1683L15.4175 11.9995L15.4158 11.7256L7.54283 13.8944Z" fill="#CFCFCF"/>
<path d="M13.0391 4.02441L13.0406 4.27001L7.36549 5.8059L7.40891 12.9827L13.084 11.4469L13.0391 4.02441Z" fill="#5F6263"/>
<path d="M13.039 4.0243L7.89139 2.62207L7.89286 2.86767L13.0405 4.26989L13.039 4.0243Z" fill="#85878A"/>
<path d="M13.0405 4.26942L7.89286 2.86719L2.21779 4.40304L7.36537 5.80531L13.0405 4.26942Z" fill="#656869"/>
<path d="M7.36576 5.80559L2.21818 4.40332L2.2616 11.5801L7.40918 12.9824L7.36576 5.80559Z" fill="#85878A"/>
<path d="M7.3613 5.12085L7.36537 5.80572L13.0405 4.26982L13.039 4.02423L13.0364 3.58496L7.3613 5.12085Z" fill="#4A4849"/>
<path d="M7.36116 5.12102L2.21349 3.71875L2.21765 4.40361L7.36523 5.80588L7.36116 5.12102Z" fill="#605C5E"/>
<path d="M7.36174 4.94481L12.3887 3.58438L7.8881 2.3584L2.86117 3.71886L7.36174 4.94481Z" fill="#898B8E"/>
<path d="M7.88895 2.18262L13.0366 3.58485L7.36155 5.1207L2.21388 3.71843L7.88895 2.18262ZM7.36207 4.94486L12.389 3.58444L7.88852 2.35845L2.86159 3.71892L7.36207 4.94486Z" fill="#898B8E"/>
<path d="M3.67226 3.93978L7.8881 2.79883L11.5776 3.80388L12.3887 3.58441L7.36174 4.94483L2.86117 3.71889L3.67226 3.93978Z" fill="#2D2628"/>
<path d="M7.8881 2.7988V2.3584L12.3887 3.58438L11.5776 3.80385L7.8881 2.7988Z" fill="#363538"/>
<path d="M3.67282 3.93975L2.86174 3.71886L7.88867 2.3584V2.7988L3.67282 3.93975Z" fill="#504B4D"/>
<path d="M12.3354 11.5403L11.9078 11.4238L11.5725 11.5146L12.0001 11.6311L12.3354 11.5403Z" fill="#BBBCBF"/>
<path d="M12.3118 7.63894L11.8842 7.52246L11.9078 11.4235L12.3354 11.54L12.3118 7.63894Z" fill="#A7A8AB"/>
<path d="M11.9763 7.72976L11.5488 7.61328L11.5724 11.5143L12 11.6308L11.9763 7.72976Z" fill="#38274F"/>
<path d="M11.5679 10.5921L11.1403 10.4756L10.8044 10.5665L11.232 10.683L11.5679 10.5921Z" fill="#BBBCBF"/>
<path d="M9.2915 12.3636L8.86386 12.2471L8.528 12.338L8.95556 12.4545L9.2915 12.3636Z" fill="#BBBCBF"/>
<path d="M10.8066 10.7981L10.3791 10.6816L10.0431 10.7725L10.4708 10.889L10.8066 10.7981Z" fill="#BBBCBF"/>
<path d="M10.0454 11.0042L9.61777 10.8877L9.28243 10.9785L9.71007 11.0949L10.0454 11.0042Z" fill="#BBBCBF"/>
<path d="M12.8486 7.21707L12.4211 7.10059L12.1588 7.17156L12.5864 7.28808L12.8486 7.21707Z" fill="#BBBCBF"/>
<path d="M11.9765 7.72943L12.0001 11.6305L12.3354 11.5398L12.3118 7.63867L11.9765 7.72943Z" fill="#271B37"/>
<path d="M12.312 7.63894L11.8845 7.52246L11.5491 7.61322L11.9767 7.7297L12.312 7.63894Z" fill="#3E2C58"/>
<path d="M11.5513 7.845L11.1237 7.72852L11.1403 10.4755L11.5679 10.592L11.5513 7.845Z" fill="#A7A8AB"/>
<path d="M12.3095 7.18191L11.8819 7.06543L11.883 7.24635L12.3105 7.36282L12.3095 7.18191Z" fill="#A7A8AB"/>
<path d="M12.5845 6.98562L12.1568 6.86914L11.8807 6.9439L12.3083 7.06038L12.5845 6.98562Z" fill="#BBBCBF"/>
<path d="M11.2154 7.93565L11.232 10.6826L11.5679 10.5917L11.5512 7.84473L11.2154 7.93565Z" fill="#271B37"/>
<path d="M11.2153 7.93582L10.7876 7.81934L10.8043 10.5663L11.2319 10.6828L11.2153 7.93582Z" fill="#38274F"/>
<path d="M11.5508 7.845L11.1232 7.72852L10.7873 7.81944L11.2149 7.93592L11.5508 7.845Z" fill="#3E2C58"/>
<path d="M10.7901 8.05105L10.3624 7.93457L10.3791 10.6815L10.8066 10.798L10.7901 8.05105Z" fill="#A7A8AB"/>
<path d="M10.4541 8.14167L10.4708 10.8886L10.8066 10.7977L10.7901 8.05078L10.4541 8.14167Z" fill="#271B37"/>
<path d="M10.79 8.05105L10.3624 7.93457L10.0265 8.02545L10.4541 8.14193L10.79 8.05105Z" fill="#3E2C58"/>
<path d="M10.4541 8.14187L10.0265 8.02539L10.0431 10.7724L10.4707 10.8888L10.4541 8.14187Z" fill="#38274F"/>
<path d="M12.3066 6.803L11.879 6.68652L11.5509 6.77534L11.9785 6.89182L12.3066 6.803Z" fill="#BBBCBF"/>
<path d="M10.0288 8.25711L9.60121 8.14062L9.61777 10.8876L10.0454 11.0041L10.0288 8.25711Z" fill="#A7A8AB"/>
<path d="M10.0288 8.25711L9.60125 8.14062L9.26591 8.23139L9.69347 8.34787L10.0288 8.25711Z" fill="#3E2C58"/>
<path d="M9.69332 8.34793L9.26576 8.23145L9.28232 10.9784L9.70996 11.0949L9.69332 8.34793Z" fill="#38274F"/>
<path d="M9.26784 8.4632L8.84029 8.34668L8.86386 12.2478L9.2915 12.3642L9.26784 8.4632Z" fill="#A7A8AB"/>
<path d="M9.26758 8.46316L8.84002 8.34668L8.50408 8.43756L8.93172 8.55404L9.26758 8.46316Z" fill="#3E2C58"/>
<path d="M8.93199 8.55378L8.95556 12.4549L9.2915 12.3639L9.26784 8.46289L8.93199 8.55378Z" fill="#271B37"/>
<path d="M8.93199 8.55398L8.50435 8.4375L8.52801 12.3386L8.95557 12.4551L8.93199 8.55398Z" fill="#38274F"/>
<path d="M12.3105 7.36257L11.883 7.24609L8.48464 8.16579L8.91228 8.28227L12.3105 7.36257Z" fill="#BBBCBF"/>
<path d="M8.91116 8.10133L8.91228 8.28225L12.3105 7.36256L12.3094 7.18164L8.91116 8.10133Z" fill="#271B37"/>
<path d="M8.91098 8.10187L8.48343 7.98535L8.48447 8.16631L8.91211 8.28279L8.91098 8.10187Z" fill="#38274F"/>
<path d="M12.3091 7.18191L11.8815 7.06543L8.48326 7.98508L8.91082 8.1016L12.3091 7.18191Z" fill="#3E2C58"/>
<path d="M8.65467 8.35164L8.39231 8.42261L8.41961 12.9338L12.876 11.7278L12.8487 7.21658L12.5864 7.28755L12.5846 6.98532L12.3084 7.06004L12.3069 6.8025L11.9787 6.89131C11.9696 6.491 11.3607 6.3304 10.6125 6.53289C9.86488 6.73522 9.25982 7.22438 9.25557 7.6283L8.92743 7.71711L8.92899 7.97465L8.65285 8.04937L8.65467 8.35164ZM8.95551 12.4544L8.93193 8.55335L9.26779 8.46247L9.29137 12.3636L8.95551 12.4544ZM12.0002 11.6304L11.9767 7.72934L12.312 7.63858L12.3356 11.5397L12.0002 11.6304ZM10.4709 10.8883L10.4543 8.14135L10.7902 8.05042L10.8068 10.7974L10.4709 10.8883ZM11.2318 10.6824L11.2152 7.93545L11.5511 7.84456L11.5677 10.5915L11.2318 10.6824ZM9.71 11.0943L9.69335 8.34729L10.0287 8.25653L10.0453 11.0035L9.71 11.0943ZM8.912 8.282L8.91087 8.10108L12.3091 7.18139L12.3103 7.36231L8.912 8.282ZM10.624 6.97257C10.8227 6.91882 10.9837 6.96212 10.9843 7.06881C10.985 7.17583 10.825 7.30567 10.6264 7.35946L10.5932 7.36844C10.3951 7.42207 10.2335 7.37921 10.2329 7.2722C10.2323 7.16551 10.3927 7.03517 10.5909 6.98154L10.624 6.97257Z" fill="#747577"/>
<path d="M9.69343 8.3476L9.71007 11.0946L10.0454 11.0038L10.0288 8.25684L9.69343 8.3476Z" fill="#271B37"/>
<path d="M10.5909 6.98228C10.3927 7.03591 10.2322 7.1662 10.2329 7.27293C10.2335 7.37994 10.3951 7.42281 10.5932 7.36918L10.6264 7.3602C10.8251 7.30645 10.9851 7.17656 10.9844 7.06955C10.9838 6.96282 10.8227 6.91955 10.6241 6.9733L10.5909 6.98228Z" fill="#271B37"/>
<path d="M8.65479 8.35183L8.22714 8.23535L7.96487 8.30633L8.39251 8.42281L8.65479 8.35183Z" fill="#BBBCBF"/>
<path d="M8.39271 8.42312L7.96506 8.30664L7.99237 12.8178L8.41992 12.9343L8.39271 8.42312Z" fill="#A7A8AB"/>
<path d="M8.9292 7.97488L8.50156 7.8584L8.22542 7.93315L8.65306 8.04963L8.9292 7.97488Z" fill="#BBBCBF"/>
<path d="M8.65297 8.05007L8.22532 7.93359L8.22714 8.23582L8.65479 8.3523L8.65297 8.05007Z" fill="#A7A8AB"/>
<path d="M8.92764 7.71707L8.5 7.60059L8.50156 7.85809L8.9292 7.97457L8.92764 7.71707Z" fill="#A7A8AB"/>
<path d="M9.25586 7.6282L8.8283 7.51172L8.50007 7.60053L8.92772 7.71701L9.25586 7.6282Z" fill="#BBBCBF"/>
<mask id="mask0_14470_6998" style="mask-type:luminance" maskUnits="userSpaceOnUse" x="8" y="6" width="4" height="2">
<path d="M11.5815 6.48865L11.1539 6.37217C10.9063 6.30473 10.5634 6.31424 10.1849 6.41666C9.43726 6.61899 8.8322 7.10815 8.82804 7.51207L9.25559 7.62855C9.25984 7.22467 9.8649 6.73547 10.6125 6.53314C10.991 6.43072 11.3339 6.42121 11.5815 6.48865Z" fill="white"/>
</mask>
<g mask="url(#mask0_14470_6998)">
<path d="M8.87527 7.31076C8.91523 7.22057 8.97919 7.12928 9.06283 7.04043C9.1957 6.89929 9.37798 6.76444 9.59188 6.65048C9.74035 6.57134 9.90408 6.50227 10.0769 6.44819C10.1125 6.43702 10.1486 6.42654 10.1849 6.41671C10.3081 6.38335 10.4275 6.35987 10.5411 6.34565C10.7765 6.31619 10.9869 6.32668 11.1539 6.37218L11.5815 6.48866C11.4145 6.44316 11.2042 6.43268 10.9687 6.46213C10.8551 6.47635 10.7357 6.49983 10.6125 6.53319C10.5761 6.54302 10.5401 6.55354 10.5045 6.56467C10.3316 6.61879 10.168 6.68786 10.0194 6.76696C9.80562 6.88092 9.62326 7.01577 9.49039 7.15691C9.40675 7.24572 9.34279 7.33705 9.30283 7.42724C9.27258 7.49554 9.2562 7.56314 9.25551 7.62855L8.82786 7.51207C8.82856 7.44666 8.84502 7.37902 8.87527 7.31076Z" fill="#D9DADE"/>
</g>
<path d="M11.7686 4.95795L11.7731 5.69059L12.1084 5.59983L12.104 4.86719L11.7686 4.95795Z" fill="#271B37"/>
<path d="M11.0074 5.16417L11.0118 5.89681L11.3477 5.80592L11.3432 5.07324L11.0074 5.16417Z" fill="#271B37"/>
<path d="M10.2461 5.37018L10.2506 6.10286L10.5864 6.01194L10.582 5.2793L10.2461 5.37018Z" fill="#271B37"/>
<path d="M9.48544 5.57611L9.48986 6.30876L9.8252 6.21799L9.82077 5.48535L9.48544 5.57611Z" fill="#271B37"/>
<path d="M8.72409 5.78229L8.7286 6.51493L9.06445 6.42405L9.06003 5.69141L8.72409 5.78229Z" fill="#271B37"/>
<path d="M6.03426 5.82031L6.00028 11.4308L6.33623 11.5217L6.37012 5.9112L6.03426 5.82031Z" fill="#38274F"/>
<path d="M5.27352 5.61426L5.23954 11.2247L5.57549 11.3156L5.60938 5.70518L5.27352 5.61426Z" fill="#38274F"/>
<path d="M4.51232 5.4082L4.47834 11.0187L4.81377 11.1094L4.84766 5.49893L4.51232 5.4082Z" fill="#38274F"/>
<path d="M3.75106 5.20215L3.71708 10.8126L4.05303 10.9035L4.08691 5.29307L3.75106 5.20215Z" fill="#38274F"/>
<path d="M2.99032 4.99609L2.95634 10.6066L3.29228 10.6975L3.32617 5.08698L2.99032 4.99609Z" fill="#38274F"/>
<path d="M10.2793 3.9462V3.59375L7.4041 4.37185V4.72426L10.2793 3.9462Z" fill="#4A4849"/>
<path d="M10.2793 3.59444L7.84613 2.93164L4.97103 3.70979L7.4041 4.37255L10.2793 3.59444Z" fill="#898B8E"/>
<path d="M4.97122 3.70996V4.04916L7.4043 4.72513V4.37272L4.97122 3.70996Z" fill="#605C5E"/>
<path d="M9.2373 3.62764V3.41406L7.49501 3.88555V4.09913L9.2373 3.62764Z" fill="#4A4849"/>
<path d="M9.2373 3.41434L7.76283 3.0127L6.02053 3.48422L7.49501 3.88583L9.2373 3.41434Z" fill="#9C9EA0"/>
<path d="M6.02064 3.48438V3.68991L7.49512 4.09956V3.88598L6.02064 3.48438Z" fill="#605C5E"/>
<path d="M7.70663 0.03125C7.70178 0.198352 7.86438 3.44342 7.66772 3.6522L8.29688 3.48193C8.09831 3.38012 7.71348 0.195224 7.70663 0.03125Z" fill="#575756"/>
<mask id="mask1_14470_6998" style="mask-type:luminance" maskUnits="userSpaceOnUse" x="7" y="0" width="1" height="4">
<path d="M7.70659 0.0308366L7.55526 0C7.5504 0.167102 7.19652 3.26107 6.99986 3.4699L7.66767 3.65183C7.86433 3.443 7.70174 0.197979 7.70659 0.0308366Z" fill="white"/>
</mask>
<g mask="url(#mask1_14470_6998)">
<path d="M7.70657 0.0308366L7.55524 0C7.55064 0.159667 7.20456 2.98415 7.02549 3.42484L7.69331 3.60677C7.87237 3.16609 7.70197 0.190504 7.70657 0.0308366Z" fill="#706F6F"/>
<path d="M7.69336 3.60674L7.02555 3.4248C7.01723 3.44536 7.00864 3.46056 6.99989 3.46986L7.6677 3.65179C7.67646 3.64249 7.68504 3.62729 7.69336 3.60674Z" fill="#706F6F"/>
</g>
<path d="M11.5686 11.4533L11.3241 11.3867L11.3288 12.1617L11.5732 12.2282L11.5686 11.4533Z" fill="#88898C"/>
<path d="M11.458 12.0919L11.2136 12.0254L11.1375 12.0872L11.3818 12.1537L11.458 12.0919Z" fill="#191317"/>
<mask id="mask2_14470_6998" style="mask-type:luminance" maskUnits="userSpaceOnUse" x="11" y="12" width="1" height="1">
<path d="M11.1265 12.0924C11.208 12.1145 11.2894 12.1367 11.3708 12.1589C11.3748 12.1579 11.3788 12.1559 11.3818 12.1535L11.1375 12.0869C11.1344 12.0894 11.1304 12.0913 11.1265 12.0924Z" fill="white"/>
</mask>
<g mask="url(#mask2_14470_6998)">
<path d="M11.3818 12.1535L11.1375 12.0869C11.1345 12.0894 11.1305 12.0913 11.1265 12.0924C11.1228 12.0934 11.119 12.0936 11.1163 12.0929L11.3606 12.1594C11.3634 12.1602 11.367 12.1599 11.3708 12.1589C11.3748 12.1579 11.3788 12.1559 11.3818 12.1535Z" fill="#181316"/>
</g>
<mask id="mask3_14470_6998" style="mask-type:luminance" maskUnits="userSpaceOnUse" x="11" y="12" width="1" height="1">
<path d="M11.1268 12.0918C11.123 12.0928 11.1193 12.0931 11.1165 12.0923L11.3609 12.1589C11.3636 12.1596 11.3673 12.1594 11.3711 12.1583C11.2896 12.1362 11.2081 12.114 11.1268 12.0918Z" fill="white"/>
</mask>
<g mask="url(#mask3_14470_6998)">
<path d="M11.3818 12.1525L11.1375 12.0859C11.1345 12.0884 11.1305 12.0903 11.1265 12.0914C11.1228 12.0924 11.119 12.0926 11.1163 12.0919L11.3606 12.1585C11.3634 12.1592 11.367 12.1589 11.3708 12.1579C11.3748 12.1569 11.3788 12.155 11.3818 12.1525Z" fill="#181316"/>
</g>
<mask id="mask4_14470_6998" style="mask-type:luminance" maskUnits="userSpaceOnUse" x="11" y="12" width="1" height="1">
<path d="M11.3603 12.1476L11.1159 12.0811C11.1099 12.086 11.1099 12.091 11.116 12.0927L11.3604 12.1592C11.3542 12.1576 11.3542 12.1525 11.3603 12.1476Z" fill="white"/>
</mask>
<g mask="url(#mask4_14470_6998)">
<path d="M11.3603 12.1476L11.1159 12.0811C11.1099 12.086 11.1099 12.091 11.116 12.0927L11.3604 12.1592C11.3542 12.1576 11.3542 12.1525 11.3603 12.1476Z" fill="#38323B"/>
</g>
<mask id="mask5_14470_6998" style="mask-type:luminance" maskUnits="userSpaceOnUse" x="11" y="12" width="1" height="1">
<path d="M11.1165 12.0929L11.3608 12.1594L11.3604 12.1593L11.1161 12.0928L11.1165 12.0929Z" fill="white"/>
</mask>
<g mask="url(#mask5_14470_6998)">
<path d="M11.3604 12.1593L11.1161 12.0928L11.1165 12.0929L11.3608 12.1594L11.3604 12.1593Z" fill="#38323B"/>
</g>
<mask id="mask6_14470_6998" style="mask-type:luminance" maskUnits="userSpaceOnUse" x="11" y="12" width="1" height="1">
<path d="M11.2139 12.0127C11.2201 12.0143 11.2201 12.0197 11.214 12.0246L11.4584 12.0912C11.4644 12.0863 11.4644 12.0809 11.4583 12.0793C11.3768 12.0571 11.2953 12.0349 11.2139 12.0127Z" fill="white"/>
</mask>
<g mask="url(#mask6_14470_6998)">
<path d="M11.4583 12.0792L11.214 12.0127C11.2201 12.0143 11.2201 12.0197 11.2141 12.0246L11.4584 12.0912C11.4645 12.0862 11.4644 12.0809 11.4583 12.0792Z" fill="#181316"/>
</g>
<mask id="mask7_14470_6998" style="mask-type:luminance" maskUnits="userSpaceOnUse" x="11" y="12" width="1" height="1">
<path d="M11.2137 12.0127L11.458 12.0792C11.3765 12.0571 11.2951 12.0349 11.2137 12.0127Z" fill="white"/>
</mask>
<g mask="url(#mask7_14470_6998)">
<path d="M11.4583 12.0792L11.214 12.0127C11.2201 12.0143 11.2201 12.0197 11.2141 12.0246L11.4584 12.0912C11.4645 12.0862 11.4644 12.0809 11.4583 12.0792Z" fill="#181316"/>
</g>
<mask id="mask8_14470_6998" style="mask-type:luminance" maskUnits="userSpaceOnUse" x="11" y="12" width="1" height="1">
<path d="M11.458 12.0797L11.2137 12.0132C11.2106 12.0124 11.2067 12.0126 11.2028 12.0136L11.4472 12.0802C11.4511 12.0791 11.455 12.0789 11.458 12.0797Z" fill="white"/>
</mask>
<g mask="url(#mask8_14470_6998)">
<path d="M11.458 12.0797L11.2137 12.0132C11.2106 12.0124 11.2067 12.0126 11.2028 12.0136L11.4472 12.0802C11.4511 12.0791 11.455 12.0789 11.458 12.0797Z" fill="#38323B"/>
</g>
<path d="M11.4365 12.0851L11.1922 12.0186L11.116 12.0807L11.3604 12.1472L11.4365 12.0851Z" fill="#3A343D"/>
<path d="M11.4475 12.08C11.4436 12.0811 11.4397 12.083 11.4367 12.0854L11.3606 12.1475C11.3545 12.1524 11.3545 12.1575 11.3607 12.1591C11.3634 12.16 11.3673 12.1598 11.3712 12.1587C11.3752 12.1577 11.3792 12.1558 11.3823 12.1533L11.4584 12.0915C11.4644 12.0866 11.4644 12.0812 11.4583 12.0796C11.4553 12.0788 11.4514 12.079 11.4475 12.08Z" fill="#584E5D"/>
<mask id="mask9_14470_6998" style="mask-type:luminance" maskUnits="userSpaceOnUse" x="11" y="12" width="1" height="1">
<path d="M11.4473 12.0802L11.2029 12.0137C11.199 12.0147 11.1952 12.0166 11.1922 12.019L11.4365 12.0856C11.4396 12.0831 11.4434 12.0813 11.4473 12.0802Z" fill="white"/>
</mask>
<g mask="url(#mask9_14470_6998)">
<path d="M11.4473 12.0802L11.2029 12.0137C11.199 12.0147 11.1952 12.0166 11.1922 12.019L11.4365 12.0856C11.4396 12.0831 11.4434 12.0813 11.4473 12.0802Z" fill="#38323B"/>
</g>
<path d="M11.5732 12.2287L11.3288 12.1621L10.6809 12.3375L10.9252 12.404L11.5732 12.2287Z" fill="#8D8D90"/>
<path d="M11.4575 11.9718L11.2132 11.9053L10.8161 12.2277L11.0604 12.2943L11.4575 11.9718Z" fill="#191317"/>
<mask id="mask10_14470_6998" style="mask-type:luminance" maskUnits="userSpaceOnUse" x="10" y="12" width="2" height="1">
<path d="M11.0601 12.2941L10.8157 12.2275C10.813 12.2299 10.8091 12.2318 10.8052 12.2329C10.8012 12.2339 10.7972 12.2342 10.7941 12.2334L11.0385 12.2999C11.0415 12.3008 11.0455 12.3005 11.0495 12.2994C11.0535 12.2983 11.0574 12.2964 11.0601 12.2941Z" fill="white"/>
</mask>
<g mask="url(#mask10_14470_6998)">
<path d="M11.0601 12.2941L10.8157 12.2275C10.813 12.2299 10.8091 12.2318 10.8052 12.2329C10.8012 12.2339 10.7972 12.2342 10.7941 12.2334L11.0385 12.2999C11.0415 12.3008 11.0455 12.3005 11.0495 12.2994C11.0535 12.2983 11.0574 12.2964 11.0601 12.2941Z" fill="#181316"/>
</g>
<mask id="mask11_14470_6998" style="mask-type:luminance" maskUnits="userSpaceOnUse" x="11" y="11" width="1" height="1">
<path d="M11.4573 11.9601L11.213 11.8936C11.219 11.8952 11.2191 11.9003 11.213 11.9052L11.4574 11.9717C11.4634 11.9668 11.4634 11.9617 11.4573 11.9601Z" fill="white"/>
</mask>
<g mask="url(#mask11_14470_6998)">
<path d="M11.4573 11.9601L11.213 11.8936C11.219 11.8952 11.2191 11.9003 11.213 11.9052L11.4574 11.9717C11.4634 11.9668 11.4634 11.9617 11.4573 11.9601Z" fill="#181316"/>
</g>
<mask id="mask12_14470_6998" style="mask-type:luminance" maskUnits="userSpaceOnUse" x="11" y="11" width="1" height="1">
<path d="M11.4575 11.9606L11.2132 11.894C11.2102 11.8932 11.2061 11.8935 11.2022 11.8946L11.4465 11.9611C11.4505 11.9601 11.4545 11.9598 11.4575 11.9606Z" fill="white"/>
</mask>
<g mask="url(#mask12_14470_6998)">
<path d="M11.4575 11.9606L11.2132 11.894C11.2102 11.8932 11.2061 11.8935 11.2022 11.8946L11.4465 11.9611C11.4505 11.9601 11.4545 11.9598 11.4575 11.9606Z" fill="#38323B"/>
</g>
<mask id="mask13_14470_6998" style="mask-type:luminance" maskUnits="userSpaceOnUse" x="10" y="12" width="2" height="1">
<path d="M11.0385 12.2882L10.7942 12.2217C10.7881 12.2266 10.7881 12.232 10.7942 12.2336L11.0386 12.3001C11.0325 12.2985 11.0324 12.2931 11.0385 12.2882Z" fill="white"/>
</mask>
<g mask="url(#mask13_14470_6998)">
<path d="M11.0385 12.2882L10.7942 12.2217C10.7881 12.2266 10.7881 12.232 10.7942 12.2336L11.0386 12.3001C11.0325 12.2985 11.0324 12.2931 11.0385 12.2882Z" fill="#38323B"/>
</g>
<path d="M11.4355 11.9669L11.1912 11.9004L10.7941 12.2225L11.0384 12.2891L11.4355 11.9669Z" fill="#3A343D"/>
<mask id="mask14_14470_6998" style="mask-type:luminance" maskUnits="userSpaceOnUse" x="11" y="11" width="1" height="1">
<path d="M11.4463 11.9611L11.202 11.8945C11.198 11.8956 11.1942 11.8975 11.1914 11.8999L11.4357 11.9664C11.4385 11.964 11.4424 11.9621 11.4463 11.9611Z" fill="white"/>
</mask>
<g mask="url(#mask14_14470_6998)">
<path d="M11.4463 11.9611L11.202 11.8945C11.198 11.8956 11.1942 11.8975 11.1914 11.8999L11.4357 11.9664C11.4385 11.964 11.4424 11.9621 11.4463 11.9611Z" fill="#38323B"/>
</g>
<path d="M11.4463 11.961C11.4424 11.962 11.4385 11.9639 11.4357 11.9663L11.0386 12.2884C11.0325 12.2933 11.0325 12.2987 11.0387 12.3003C11.0417 12.3011 11.0458 12.3009 11.0497 12.2998C11.0537 12.2987 11.0575 12.2969 11.0602 12.2945L11.4574 11.972C11.4634 11.9671 11.4634 11.9621 11.4573 11.9604C11.4543 11.9596 11.4503 11.9599 11.4463 11.961Z" fill="#584E5D"/>
<path d="M10.8174 12.4328L10.5731 12.3662L10.1464 12.4817L10.3908 12.5482L10.8174 12.4328Z" fill="#8D8D90"/>
<path d="M11.2856 11.8185L11.0413 11.752L10.777 11.9668L11.0215 12.0333L11.2856 11.8185Z" fill="#191317"/>
<mask id="mask15_14470_6998" style="mask-type:luminance" maskUnits="userSpaceOnUse" x="10" y="11" width="2" height="2">
<path d="M11.0215 12.0333L10.7772 11.9668C10.7741 11.9691 10.7701 11.9709 10.7661 11.972C10.7622 11.9731 10.7581 11.9735 10.7551 11.9728L10.9994 12.0394C11.0024 12.04 11.0065 12.0397 11.0105 12.0386C11.0144 12.0375 11.0185 12.0357 11.0215 12.0333Z" fill="white"/>
</mask>
<g mask="url(#mask15_14470_6998)">
<path d="M11.0215 12.0333L10.7772 11.9668C10.7741 11.9691 10.7701 11.9709 10.7661 11.972C10.7622 11.9731 10.7581 11.9735 10.7551 11.9728L10.9994 12.0394C11.0024 12.04 11.0065 12.0397 11.0105 12.0386C11.0144 12.0375 11.0185 12.0357 11.0215 12.0333Z" fill="#181316"/>
</g>
<mask id="mask16_14470_6998" style="mask-type:luminance" maskUnits="userSpaceOnUse" x="10" y="11" width="1" height="2">
<path d="M10.9994 12.0275L10.7551 11.9609C10.749 11.9659 10.749 11.9712 10.7552 11.9728L10.9995 12.0394C10.9934 12.0378 10.9934 12.0324 10.9994 12.0275Z" fill="white"/>
</mask>
<g mask="url(#mask16_14470_6998)">
<path d="M10.9994 12.0275L10.7551 11.9609C10.749 11.9659 10.749 11.9712 10.7552 11.9728L10.9995 12.0394C10.9934 12.0378 10.9934 12.0324 10.9994 12.0275Z" fill="#38323B"/>
</g>
<path d="M11.2642 11.8136L11.0198 11.7471L10.755 11.9617L10.9994 12.0283L11.2642 11.8136Z" fill="#3A343D"/>
<mask id="mask17_14470_6998" style="mask-type:luminance" maskUnits="userSpaceOnUse" x="11" y="11" width="1" height="1">
<path d="M11.286 11.8078L11.0416 11.7412C11.0472 11.7427 11.0471 11.7479 11.0412 11.7527L11.2855 11.8193C11.2914 11.8145 11.2915 11.8093 11.286 11.8078Z" fill="white"/>
</mask>
<g mask="url(#mask17_14470_6998)">
<path d="M11.286 11.8078L11.0416 11.7412C11.0472 11.7427 11.0471 11.7479 11.0412 11.7527L11.2855 11.8193C11.2914 11.8145 11.2915 11.8093 11.286 11.8078Z" fill="#181316"/>
</g>
<mask id="mask18_14470_6998" style="mask-type:luminance" maskUnits="userSpaceOnUse" x="11" y="11" width="1" height="1">
<path d="M11.2861 11.8069L11.0418 11.7404L11.0413 11.7402L11.2856 11.8068L11.2861 11.8069Z" fill="white"/>
</mask>
<g mask="url(#mask18_14470_6998)">
<path d="M11.2861 11.8069L11.0418 11.7404L11.0413 11.7402L11.2856 11.8068L11.2861 11.8069Z" fill="#38323B"/>
</g>
<mask id="mask19_14470_6998" style="mask-type:luminance" maskUnits="userSpaceOnUse" x="11" y="11" width="1" height="1">
<path d="M11.0409 11.7402C11.0411 11.7403 11.0411 11.7403 11.0413 11.7404L11.2856 11.8069C11.2855 11.8069 11.2854 11.8068 11.2852 11.8068C11.212 11.7868 11.1142 11.7602 11.0409 11.7402Z" fill="white"/>
</mask>
<g mask="url(#mask19_14470_6998)">
<path d="M11.2852 11.8068L11.0409 11.7402L11.0413 11.7404L11.2856 11.8069L11.2852 11.8068Z" fill="#181316"/>
</g>
<mask id="mask20_14470_6998" style="mask-type:luminance" maskUnits="userSpaceOnUse" x="11" y="11" width="1" height="1">
<path d="M11.2852 11.8072L11.0408 11.7407C11.0381 11.7399 11.0344 11.7402 11.0306 11.7412L11.2749 11.8077C11.2787 11.8067 11.2825 11.8065 11.2852 11.8072Z" fill="white"/>
</mask>
<g mask="url(#mask20_14470_6998)">
<path d="M11.2852 11.8072L11.0408 11.7407C11.0381 11.7399 11.0344 11.7402 11.0306 11.7412L11.2749 11.8077C11.2787 11.8067 11.2825 11.8065 11.2852 11.8072Z" fill="#38323B"/>
</g>
<mask id="mask21_14470_6998" style="mask-type:luminance" maskUnits="userSpaceOnUse" x="11" y="11" width="1" height="1">
<path d="M11.2754 11.8078L11.0311 11.7412C11.0272 11.7423 11.0231 11.7442 11.0201 11.7467L11.2644 11.8132C11.2674 11.8108 11.2714 11.8089 11.2754 11.8078Z" fill="white"/>
</mask>
<g mask="url(#mask21_14470_6998)">
<path d="M11.2754 11.8078L11.0311 11.7412C11.0272 11.7423 11.0231 11.7442 11.0201 11.7467L11.2644 11.8132C11.2674 11.8108 11.2714 11.8089 11.2754 11.8078Z" fill="#38323B"/>
</g>
<path d="M11.4736 11.5636L11.2293 11.4971L10.8526 11.8026L11.097 11.8692L11.4736 11.5636Z" fill="#191317"/>
<mask id="mask22_14470_6998" style="mask-type:luminance" maskUnits="userSpaceOnUse" x="10" y="11" width="2" height="1">
<path d="M10.8421 11.8081C10.9236 11.8303 11.005 11.8525 11.0864 11.8746C11.0903 11.8736 11.0941 11.8717 11.0972 11.8693L10.8528 11.8027C10.8499 11.8052 10.846 11.807 10.8421 11.8081Z" fill="white"/>
</mask>
<g mask="url(#mask22_14470_6998)">
<path d="M11.0972 11.8693L10.8528 11.8027C10.8498 11.8052 10.8459 11.8071 10.8421 11.8081C10.8382 11.8092 10.8343 11.8094 10.8313 11.8085L11.0756 11.8751C11.0786 11.8759 11.0825 11.8757 11.0864 11.8746C11.0902 11.8736 11.0941 11.8717 11.0972 11.8693Z" fill="#181316"/>
</g>
<mask id="mask23_14470_6998" style="mask-type:luminance" maskUnits="userSpaceOnUse" x="10" y="11" width="2" height="1">
<path d="M10.8421 11.8076C10.8382 11.8087 10.8343 11.8089 10.8313 11.8081L11.0756 11.8746C11.0786 11.8754 11.0825 11.8752 11.0864 11.8742C11.005 11.852 10.9236 11.8298 10.8421 11.8076Z" fill="white"/>
</mask>
<g mask="url(#mask23_14470_6998)">
<path d="M11.0972 11.8693L10.8528 11.8027C10.8498 11.8052 10.8459 11.8071 10.8421 11.8081C10.8382 11.8092 10.8343 11.8094 10.8313 11.8085L11.0756 11.8751C11.0786 11.8759 11.0825 11.8757 11.0864 11.8746C11.0902 11.8736 11.0941 11.8717 11.0972 11.8693Z" fill="#181316"/>
</g>
<mask id="mask24_14470_6998" style="mask-type:luminance" maskUnits="userSpaceOnUse" x="10" y="11" width="2" height="1">
<path d="M10.8307 11.8086L11.0752 11.8751L11.0757 11.8753L10.8314 11.8087L10.8307 11.8086Z" fill="white"/>
</mask>
<g mask="url(#mask24_14470_6998)">
<path d="M11.0757 11.8753L10.8314 11.8087L10.8307 11.8086L11.0752 11.8751L11.0757 11.8753Z" fill="#181316"/>
</g>
<mask id="mask25_14470_6998" style="mask-type:luminance" maskUnits="userSpaceOnUse" x="10" y="11" width="2" height="1">
<path d="M10.8304 11.8084L11.0748 11.8749C11.0692 11.8734 11.0693 11.8682 11.0752 11.8634L10.8309 11.7969C10.8251 11.8016 10.8249 11.8068 10.8304 11.8084Z" fill="white"/>
</mask>
<g mask="url(#mask25_14470_6998)">
<path d="M11.0752 11.8634L10.8309 11.7969C10.825 11.8017 10.8248 11.8068 10.8304 11.8084L11.0748 11.8749C11.0691 11.8734 11.0693 11.8682 11.0752 11.8634Z" fill="#38323B"/>
</g>
<path d="M11.4517 11.5578L11.2073 11.4912L10.8312 11.7969L11.0755 11.8635L11.4517 11.5578Z" fill="#3A343D"/>
<path d="M10.9206 11.6291L10.6763 11.5625L10.681 12.3375L10.9253 12.404L10.9206 11.6291Z" fill="#161214"/>
<path d="M10.8143 11.9328L10.57 11.8662L10.5731 12.3664L10.8174 12.4329L10.8143 11.9328Z" fill="#88898C"/>
<path d="M10.7021 12.2912L10.4578 12.2246L10.3519 12.3106L10.5962 12.3772L10.7021 12.2912Z" fill="#191317"/>
<mask id="mask26_14470_6998" style="mask-type:luminance" maskUnits="userSpaceOnUse" x="10" y="12" width="1" height="1">
<path d="M10.5962 12.3771L10.3519 12.3105C10.3491 12.3128 10.3453 12.3146 10.3413 12.3156C10.3373 12.3167 10.3333 12.317 10.3303 12.3164L10.5746 12.3829C10.5776 12.3836 10.5817 12.3832 10.5856 12.3822C10.5896 12.3811 10.5934 12.3793 10.5962 12.3771Z" fill="white"/>
</mask>
<g mask="url(#mask26_14470_6998)">
<path d="M10.5962 12.3771L10.3519 12.3105C10.3491 12.3128 10.3453 12.3146 10.3413 12.3156C10.3373 12.3167 10.3333 12.317 10.3303 12.3164L10.5746 12.3829C10.5776 12.3836 10.5817 12.3832 10.5856 12.3822C10.5896 12.3811 10.5934 12.3793 10.5962 12.3771Z" fill="#181316"/>
</g>
<mask id="mask27_14470_6998" style="mask-type:luminance" maskUnits="userSpaceOnUse" x="10" y="12" width="1" height="1">
<path d="M10.7019 12.2794L10.4576 12.2129C10.4637 12.2145 10.4638 12.2199 10.4577 12.2248L10.702 12.2914C10.7081 12.2864 10.708 12.2811 10.7019 12.2794Z" fill="white"/>
</mask>
<g mask="url(#mask27_14470_6998)">
<path d="M10.7019 12.2794L10.4576 12.2129C10.4637 12.2145 10.4638 12.2199 10.4577 12.2248L10.702 12.2914C10.7081 12.2864 10.708 12.2811 10.7019 12.2794Z" fill="#181316"/>
</g>
<mask id="mask28_14470_6998" style="mask-type:luminance" maskUnits="userSpaceOnUse" x="10" y="12" width="1" height="1">
<path d="M10.7017 12.2794L10.4574 12.2129L10.4578 12.213L10.7021 12.2796L10.7017 12.2794Z" fill="white"/>
</mask>
<g mask="url(#mask28_14470_6998)">
<path d="M10.7017 12.2794L10.4574 12.2129L10.4578 12.213L10.7021 12.2796L10.7017 12.2794Z" fill="#181316"/>
</g>
<mask id="mask29_14470_6998" style="mask-type:luminance" maskUnits="userSpaceOnUse" x="10" y="12" width="1" height="1">
<path d="M10.7017 12.2789L10.4573 12.2123C10.4546 12.2116 10.4509 12.2118 10.4471 12.2129L10.6914 12.2794C10.6952 12.2784 10.699 12.2782 10.7017 12.2789Z" fill="white"/>
</mask>
<g mask="url(#mask29_14470_6998)">
<path d="M10.7017 12.2789L10.4573 12.2123C10.4546 12.2116 10.4509 12.2118 10.4471 12.2129L10.6914 12.2794C10.6952 12.2784 10.699 12.2782 10.7017 12.2789Z" fill="#38323B"/>
</g>
<mask id="mask30_14470_6998" style="mask-type:luminance" maskUnits="userSpaceOnUse" x="10" y="12" width="1" height="1">
<path d="M10.5746 12.3712L10.3303 12.3047C10.3242 12.3096 10.3242 12.315 10.3304 12.3166L10.5747 12.3831C10.5686 12.3816 10.5686 12.3762 10.5746 12.3712Z" fill="white"/>
</mask>
<g mask="url(#mask30_14470_6998)">
<path d="M10.5746 12.3712L10.3303 12.3047C10.3242 12.3096 10.3242 12.315 10.3304 12.3166L10.5747 12.3831C10.5686 12.3816 10.5686 12.3762 10.5746 12.3712Z" fill="#38323B"/>
</g>
<path d="M10.6807 12.2844L10.4363 12.2178L10.3304 12.3038L10.5747 12.3703L10.6807 12.2844Z" fill="#3A343D"/>
<path d="M10.6918 12.2793C10.6879 12.2803 10.6839 12.2822 10.6808 12.2847L10.5749 12.3707C10.5688 12.3756 10.5688 12.381 10.575 12.3826C10.578 12.3833 10.5821 12.3829 10.586 12.3819C10.59 12.3808 10.5938 12.379 10.5966 12.3768L10.7025 12.2908C10.7086 12.2859 10.7086 12.2806 10.7024 12.2789C10.6996 12.278 10.6957 12.2782 10.6918 12.2793Z" fill="#584E5D"/>
<mask id="mask31_14470_6998" style="mask-type:luminance" maskUnits="userSpaceOnUse" x="10" y="12" width="1" height="1">
<path d="M10.6914 12.2794L10.4471 12.2129C10.4431 12.2139 10.4391 12.2159 10.4361 12.2183L10.6804 12.2849C10.6834 12.2824 10.6874 12.2805 10.6914 12.2794Z" fill="white"/>
</mask>
<g mask="url(#mask31_14470_6998)">
<path d="M10.6914 12.2794L10.4471 12.2129C10.4431 12.2139 10.4391 12.2159 10.4361 12.2183L10.6804 12.2849C10.6834 12.2824 10.6874 12.2805 10.6914 12.2794Z" fill="#38323B"/>
</g>
<path d="M11.2753 11.8076C11.2714 11.8086 11.2674 11.8105 11.2643 11.813L10.9995 12.0277C10.9935 12.0326 10.9935 12.038 10.9996 12.0396C11.0027 12.0403 11.0067 12.0399 11.0107 12.0388C11.0147 12.0377 11.0188 12.0359 11.0218 12.0336L11.286 11.8188C11.2921 11.8139 11.2921 11.8085 11.2859 11.8072C11.2831 11.8063 11.2792 11.8065 11.2753 11.8076Z" fill="#584E5D"/>
<mask id="mask32_14470_6998" style="mask-type:luminance" maskUnits="userSpaceOnUse" x="11" y="11" width="1" height="1">
<path d="M11.4739 11.5519L11.2296 11.4854C11.2356 11.487 11.2357 11.4923 11.2296 11.4973L11.474 11.5638C11.48 11.5589 11.48 11.5535 11.4739 11.5519Z" fill="white"/>
</mask>
<g mask="url(#mask32_14470_6998)">
<path d="M11.4739 11.5519L11.2296 11.4854C11.2356 11.487 11.2357 11.4923 11.2296 11.4973L11.474 11.5638C11.48 11.5589 11.48 11.5535 11.4739 11.5519Z" fill="#181316"/>
</g>
<mask id="mask33_14470_6998" style="mask-type:luminance" maskUnits="userSpaceOnUse" x="11" y="11" width="1" height="1">
<path d="M11.4736 11.5513L11.2293 11.4847C11.2263 11.4841 11.2222 11.4844 11.2182 11.4855L11.4625 11.552C11.4666 11.5509 11.4706 11.5506 11.4736 11.5513Z" fill="white"/>
</mask>
<g mask="url(#mask33_14470_6998)">
<path d="M11.4736 11.5513L11.2293 11.4847C11.2263 11.4841 11.2222 11.4844 11.2182 11.4855L11.4625 11.552C11.4666 11.5509 11.4706 11.5506 11.4736 11.5513Z" fill="#38323B"/>
</g>
<mask id="mask34_14470_6998" style="mask-type:luminance" maskUnits="userSpaceOnUse" x="11" y="11" width="1" height="1">
<path d="M11.4629 11.5519L11.2186 11.4854C11.2146 11.4864 11.2106 11.4883 11.2075 11.4906L11.4518 11.5571C11.4548 11.5548 11.4588 11.553 11.4629 11.5519Z" fill="white"/>
</mask>
<g mask="url(#mask34_14470_6998)">
<path d="M11.4629 11.5519L11.2186 11.4854C11.2146 11.4864 11.2106 11.4883 11.2075 11.4906L11.4518 11.5571C11.4548 11.5548 11.4588 11.553 11.4629 11.5519Z" fill="#38323B"/>
</g>
<path d="M11.5686 11.4531L10.9206 11.6285L10.9253 12.4034L11.5732 12.2281L11.5686 11.4531ZM11.0388 12.3002C11.0327 12.2985 11.0327 12.2932 11.0387 12.2883L11.4359 11.9661C11.4386 11.9637 11.4425 11.9619 11.4464 11.9608C11.4504 11.9598 11.4544 11.9595 11.4574 11.9603C11.4636 11.9619 11.4636 11.967 11.4575 11.9719L11.0604 12.2943C11.0576 12.2967 11.0538 12.2986 11.0498 12.2996C11.0459 12.3007 11.0419 12.301 11.0388 12.3002ZM11.4738 11.5513C11.4799 11.5529 11.48 11.5583 11.4739 11.5632L11.0971 11.8688C11.0941 11.8713 11.0902 11.8731 11.0864 11.8742C11.0825 11.8752 11.0786 11.8754 11.0756 11.8746C11.0695 11.8733 11.0694 11.8679 11.0755 11.863L11.4516 11.5573C11.4547 11.5549 11.4587 11.5531 11.4627 11.552C11.4668 11.551 11.4708 11.5507 11.4738 11.5513ZM10.9996 12.0394C10.9934 12.0378 10.9934 12.0324 10.9995 12.0275L11.2643 11.8128C11.2673 11.8104 11.2713 11.8085 11.2753 11.8074C11.2792 11.8063 11.2831 11.8061 11.2858 11.807C11.2919 11.8083 11.292 11.8137 11.2859 11.8186L11.0217 12.0334C11.0187 12.0357 11.0147 12.0376 11.0106 12.0387C11.0067 12.0397 11.0027 12.0401 10.9996 12.0394ZM11.3605 12.1591C11.3544 12.1574 11.3544 12.1524 11.3605 12.1475L11.4366 12.0853C11.4396 12.0829 11.4435 12.081 11.4473 12.08C11.4512 12.0789 11.4551 12.0787 11.4581 12.0795C11.4642 12.0811 11.4643 12.0865 11.4582 12.0914L11.3821 12.1532C11.3791 12.1557 11.3751 12.1576 11.3711 12.1587C11.3672 12.1597 11.3633 12.16 11.3605 12.1591Z" fill="#251D22"/>
<path d="M10.7441 12.0939L10.4998 12.0273L10.235 12.2423L10.4794 12.3089L10.7441 12.0939Z" fill="#191317"/>
<mask id="mask35_14470_6998" style="mask-type:luminance" maskUnits="userSpaceOnUse" x="10" y="12" width="1" height="1">
<path d="M10.4795 12.3087L10.2352 12.2422C10.2324 12.2446 10.2286 12.2465 10.2246 12.2475C10.2207 12.2486 10.2166 12.2488 10.2136 12.248L10.4579 12.3146C10.4609 12.3154 10.4649 12.3152 10.4689 12.3141C10.4729 12.313 10.4767 12.3111 10.4795 12.3087Z" fill="white"/>
</mask>
<g mask="url(#mask35_14470_6998)">
<path d="M10.4795 12.3087L10.2352 12.2422C10.2324 12.2446 10.2286 12.2465 10.2246 12.2475C10.2207 12.2486 10.2166 12.2488 10.2136 12.248L10.4579 12.3146C10.4609 12.3154 10.4649 12.3152 10.4689 12.3141C10.4729 12.313 10.4767 12.3111 10.4795 12.3087Z" fill="#181316"/>
</g>
<mask id="mask36_14470_6998" style="mask-type:luminance" maskUnits="userSpaceOnUse" x="10" y="12" width="1" height="1">
<path d="M10.5001 12.0156C10.5062 12.0173 10.5062 12.0223 10.5002 12.0272L10.7445 12.0938C10.7506 12.0889 10.7506 12.0838 10.7444 12.0822C10.6629 12.06 10.5815 12.0378 10.5001 12.0156Z" fill="white"/>
</mask>
<g mask="url(#mask36_14470_6998)">
<path d="M10.7444 12.0822L10.5001 12.0156C10.5062 12.0173 10.5062 12.0223 10.5002 12.0272L10.7445 12.0938C10.7506 12.0889 10.7506 12.0838 10.7444 12.0822Z" fill="#181316"/>
</g>
<mask id="mask37_14470_6998" style="mask-type:luminance" maskUnits="userSpaceOnUse" x="10" y="12" width="1" height="1">
<path d="M10.4998 12.0156L10.7441 12.0822C10.6627 12.06 10.5813 12.0378 10.4998 12.0156Z" fill="white"/>
</mask>
<g mask="url(#mask37_14470_6998)">
<path d="M10.7444 12.0822L10.5001 12.0156C10.5062 12.0173 10.5062 12.0223 10.5002 12.0272L10.7445 12.0938C10.7506 12.0889 10.7506 12.0838 10.7444 12.0822Z" fill="#181316"/>
</g>
<mask id="mask38_14470_6998" style="mask-type:luminance" maskUnits="userSpaceOnUse" x="10" y="12" width="1" height="1">
<path d="M10.7441 12.0817L10.4998 12.0151C10.4968 12.0143 10.4929 12.0146 10.489 12.0156L10.7333 12.0821C10.7372 12.0811 10.7411 12.0809 10.7441 12.0817Z" fill="white"/>
</mask>
<g mask="url(#mask38_14470_6998)">
<path d="M10.7441 12.0817L10.4998 12.0151C10.4968 12.0143 10.4929 12.0146 10.489 12.0156L10.7333 12.0821C10.7372 12.0811 10.7411 12.0809 10.7441 12.0817Z" fill="#38323B"/>
</g>
<mask id="mask39_14470_6998" style="mask-type:luminance" maskUnits="userSpaceOnUse" x="10" y="12" width="1" height="1">
<path d="M10.4579 12.3029L10.2136 12.2363C10.2075 12.2412 10.2075 12.2463 10.2137 12.2479L10.458 12.3145C10.4519 12.3129 10.4519 12.3078 10.4579 12.3029Z" fill="white"/>
</mask>
<g mask="url(#mask39_14470_6998)">
<path d="M10.4579 12.3029L10.2136 12.2363C10.2075 12.2412 10.2075 12.2463 10.2137 12.2479L10.458 12.3145C10.4519 12.3129 10.4519 12.3078 10.4579 12.3029Z" fill="#38323B"/>
</g>
<path d="M10.7227 12.088L10.4783 12.0215L10.2135 12.2364L10.4579 12.303L10.7227 12.088Z" fill="#3A343D"/>
<mask id="mask40_14470_6998" style="mask-type:luminance" maskUnits="userSpaceOnUse" x="10" y="12" width="1" height="1">
<path d="M10.7334 12.0822L10.4891 12.0156C10.4852 12.0167 10.4814 12.0185 10.4783 12.021L10.7227 12.0875C10.7257 12.0851 10.7296 12.0832 10.7334 12.0822Z" fill="white"/>
</mask>
<g mask="url(#mask40_14470_6998)">
<path d="M10.7334 12.0822L10.4891 12.0156C10.4852 12.0167 10.4814 12.0185 10.4783 12.021L10.7227 12.0875C10.7257 12.0851 10.7296 12.0832 10.7334 12.0822Z" fill="#38323B"/>
</g>
<path d="M10.7336 12.082C10.7297 12.0831 10.7258 12.085 10.7228 12.0874L10.458 12.3024C10.452 12.3073 10.452 12.3123 10.4581 12.314C10.4612 12.3148 10.4651 12.3145 10.4691 12.3134C10.473 12.3124 10.4769 12.3105 10.4797 12.3081L10.7445 12.0932C10.7506 12.0882 10.7506 12.0832 10.7444 12.0815C10.7414 12.0807 10.7375 12.081 10.7336 12.082Z" fill="#584E5D"/>
<path d="M11.5684 11.4533L11.3239 11.3867L10.676 11.5621L10.9203 11.6287L11.5684 11.4533Z" fill="#171215"/>
<path d="M10.3876 12.048L10.1432 11.9814L10.1462 12.4816L10.3906 12.5482L10.3876 12.048Z" fill="#161214"/>
<path d="M10.8143 11.9326L10.3877 12.0481L10.3907 12.5483L10.8174 12.4328L10.8143 11.9326ZM10.458 12.3142C10.4519 12.3125 10.4519 12.3074 10.458 12.3025L10.7227 12.0876C10.7258 12.0851 10.7297 12.0832 10.7335 12.0822C10.7374 12.0812 10.7413 12.0809 10.7443 12.0818C10.7505 12.0834 10.7505 12.0885 10.7444 12.0934L10.4796 12.3083C10.4768 12.3107 10.4729 12.3126 10.469 12.3137C10.4651 12.3147 10.4611 12.315 10.458 12.3142ZM10.5749 12.3826C10.5687 12.3809 10.5687 12.3756 10.5748 12.3707L10.6807 12.2847C10.6837 12.2822 10.6877 12.2804 10.6917 12.2793C10.6956 12.2782 10.6995 12.278 10.7023 12.2788C10.7083 12.2805 10.7084 12.2858 10.7024 12.2908L10.5965 12.3768C10.5937 12.379 10.5899 12.3808 10.5859 12.3818C10.582 12.3829 10.5779 12.3832 10.5749 12.3826Z" fill="#251D22"/>
<path d="M10.814 11.9328L10.5696 11.8662L10.1429 11.9817L10.3874 12.0483L10.814 11.9328Z" fill="#171215"/>
<path d="M10.8127 11.6584L10.5683 11.5918L10.5696 11.807L10.814 11.8736L10.8127 11.6584Z" fill="#88898C"/>
<path d="M10.814 11.8732L10.5696 11.8066L10.1429 11.9221L10.3874 11.9887L10.814 11.8732Z" fill="#8D8D90"/>
<path d="M10.6201 11.7951L10.3758 11.7285L10.2996 11.7903L10.5439 11.8569L10.6201 11.7951Z" fill="#191317"/>
<mask id="mask41_14470_6998" style="mask-type:luminance" maskUnits="userSpaceOnUse" x="10" y="11" width="1" height="1">
<path d="M10.2784 11.796L10.5227 11.8626C10.5254 11.8633 10.5291 11.863 10.5329 11.862C10.5369 11.861 10.5409 11.8591 10.5439 11.8566L10.2996 11.79C10.2966 11.7925 10.2926 11.7944 10.2886 11.7955C10.2848 11.7965 10.2812 11.7967 10.2784 11.796Z" fill="white"/>
</mask>
<g mask="url(#mask41_14470_6998)">
<path d="M10.5439 11.8566L10.2996 11.79C10.2966 11.7925 10.2926 11.7944 10.2886 11.7955C10.2849 11.7965 10.2812 11.7967 10.2784 11.796L10.5227 11.8626C10.5254 11.8633 10.5291 11.863 10.5329 11.862C10.5369 11.861 10.5409 11.8591 10.5439 11.8566Z" fill="#181316"/>
</g>
<mask id="mask42_14470_6998" style="mask-type:luminance" maskUnits="userSpaceOnUse" x="10" y="11" width="1" height="1">
<path d="M10.5224 11.8507L10.278 11.7842C10.272 11.7891 10.272 11.7942 10.2781 11.7958L10.5225 11.8623C10.5163 11.8607 10.5163 11.8556 10.5224 11.8507Z" fill="white"/>
</mask>
<g mask="url(#mask42_14470_6998)">
<path d="M10.5224 11.8507L10.278 11.7842C10.272 11.7891 10.272 11.7942 10.2781 11.7958L10.5225 11.8623C10.5163 11.8607 10.5163 11.8556 10.5224 11.8507Z" fill="#38323B"/>
</g>
<mask id="mask43_14470_6998" style="mask-type:luminance" maskUnits="userSpaceOnUse" x="10" y="11" width="1" height="1">
<path d="M10.2781 11.796L10.5225 11.8626L10.522 11.8624L10.2777 11.7959L10.2781 11.796Z" fill="white"/>
</mask>
<g mask="url(#mask43_14470_6998)">
<path d="M10.522 11.8624L10.2777 11.7959L10.2781 11.796L10.5225 11.8626L10.522 11.8624Z" fill="#38323B"/>
</g>
<mask id="mask44_14470_6998" style="mask-type:luminance" maskUnits="userSpaceOnUse" x="10" y="11" width="1" height="1">
<path d="M10.6199 11.7824L10.3756 11.7158C10.3817 11.7174 10.3817 11.7228 10.3757 11.7277L10.62 11.7943C10.6261 11.7894 10.626 11.784 10.6199 11.7824Z" fill="white"/>
</mask>
<g mask="url(#mask44_14470_6998)">
<path d="M10.6199 11.7824L10.3756 11.7158C10.3817 11.7174 10.3817 11.7228 10.3757 11.7277L10.62 11.7943C10.6261 11.7894 10.626 11.784 10.6199 11.7824Z" fill="#181316"/>
</g>
<mask id="mask45_14470_6998" style="mask-type:luminance" maskUnits="userSpaceOnUse" x="10" y="11" width="1" height="1">
<path d="M10.6201 11.7827L10.3758 11.7162C10.3728 11.7155 10.3689 11.7158 10.365 11.7169L10.6093 11.7834C10.6132 11.7823 10.6171 11.782 10.6201 11.7827Z" fill="white"/>
</mask>
<g mask="url(#mask45_14470_6998)">
<path d="M10.6201 11.7827L10.3758 11.7162C10.3728 11.7155 10.3689 11.7158 10.365 11.7169L10.6093 11.7834C10.6132 11.7823 10.6171 11.782 10.6201 11.7827Z" fill="#38323B"/>
</g>
<path d="M10.6091 11.7833C10.6052 11.7843 10.6013 11.7861 10.5983 11.7884L10.5222 11.8505C10.5161 11.8554 10.5161 11.8605 10.5223 11.8621C10.5251 11.863 10.529 11.8628 10.5329 11.8617C10.5369 11.8607 10.5408 11.8588 10.5439 11.8563L10.62 11.7945C10.626 11.7896 10.626 11.7842 10.6199 11.7826C10.6169 11.7819 10.613 11.7822 10.6091 11.7833Z" fill="#584E5D"/>
<mask id="mask46_14470_6998" style="mask-type:luminance" maskUnits="userSpaceOnUse" x="10" y="11" width="1" height="1">
<path d="M10.6089 11.7833L10.3646 11.7168C10.3607 11.7179 10.3568 11.7196 10.3538 11.722L10.5981 11.7885C10.6012 11.7862 10.6051 11.7844 10.6089 11.7833Z" fill="white"/>
</mask>
<g mask="url(#mask46_14470_6998)">
<path d="M10.6089 11.7833L10.3646 11.7168C10.3607 11.7179 10.3568 11.7196 10.3538 11.722L10.5981 11.7885C10.6012 11.7862 10.6051 11.7844 10.6089 11.7833Z" fill="#38323B"/>
</g>
<path d="M10.5981 11.7883L10.3538 11.7217L10.2776 11.7838L10.522 11.8503L10.5981 11.7883Z" fill="#3A343D"/>
<path d="M10.8125 11.6584L10.5682 11.5918L10.1415 11.7073L10.3859 11.7738L10.8125 11.6584Z" fill="#171215"/>
<path d="M10.3859 11.7736L10.1415 11.707L10.1428 11.9222L10.3872 11.9888L10.3859 11.7736Z" fill="#161214"/>
<path d="M10.8127 11.6582L10.3861 11.7737L10.3874 11.9889L10.814 11.8734L10.8127 11.6582ZM10.5223 11.8624C10.5162 11.8608 10.5162 11.8557 10.5222 11.8508L10.5983 11.7887C10.6014 11.7864 10.6053 11.7846 10.6091 11.7836C10.613 11.7825 10.6168 11.7822 10.6199 11.7829C10.6261 11.7845 10.6261 11.7899 10.62 11.7948L10.5439 11.8566C10.5409 11.8591 10.5369 11.861 10.5329 11.862C10.529 11.8631 10.5252 11.8633 10.5223 11.8624Z" fill="#251D22"/>
<path d="M11.6783 11.3662L10.2755 11.7458L10.2808 12.6257L11.6836 12.2461L11.6783 11.3662ZM10.9252 12.4036L10.9205 11.6286L11.5686 11.4532L11.5733 12.2282L10.9252 12.4036ZM10.3907 12.5482L10.3877 12.0481L10.8144 11.9326L10.8174 12.4328L10.3907 12.5482ZM10.3873 11.9885L10.386 11.7733L10.8126 11.6578L10.8139 11.873L10.3873 11.9885Z" fill="#E4E5E9"/>
<path d="M11.4628 11.5519C11.4588 11.553 11.4547 11.5548 11.4517 11.5571L11.0755 11.8628C11.0695 11.8677 11.0695 11.8731 11.0756 11.8744C11.0787 11.8753 11.0826 11.875 11.0865 11.874C11.0904 11.8729 11.0942 11.8711 11.0972 11.8686L11.474 11.5631C11.48 11.5582 11.48 11.5528 11.4739 11.5512C11.4708 11.5504 11.4668 11.5508 11.4628 11.5519Z" fill="#584E5D"/>
<path d="M10.2755 11.7462L10.0311 11.6797L10.0364 12.5596L10.2808 12.6262L10.2755 11.7462Z" fill="#A7A8AB"/>
<path d="M11.6782 11.3664L11.4339 11.2998L10.0311 11.6794L10.2754 11.746L11.6782 11.3664Z" fill="#8D8D90"/>
<path d="M11.5686 11.1691L11.3242 11.1025L11.3249 11.222L11.5693 11.2886L11.5686 11.1691Z" fill="#88898C"/>
<path d="M11.5677 11.1613L11.3234 11.0947L11.3245 11.1019L11.5688 11.1685L11.5677 11.1613Z" fill="#868689"/>
<mask id="mask47_14470_6998" style="mask-type:luminance" maskUnits="userSpaceOnUse" x="11" y="11" width="1" height="1">
<path d="M11.4972 11.1007L11.2528 11.0342C11.2906 11.0445 11.3162 11.0651 11.3231 11.095L11.5674 11.1615C11.5605 11.1316 11.535 11.111 11.4972 11.1007Z" fill="white"/>
</mask>
<g mask="url(#mask47_14470_6998)">
<path d="M11.4972 11.1007L11.2528 11.0342C11.2906 11.0445 11.3162 11.0651 11.3231 11.095L11.5674 11.1615C11.5605 11.1316 11.535 11.111 11.4972 11.1007Z" fill="#929295"/>
</g>
<path d="M11.5693 11.2883L11.3249 11.2217L10.6747 11.3977L10.9191 11.4642L11.5693 11.2883Z" fill="#8D8D90"/>
<path d="M11.3125 11.1691L11.0682 11.1025L10.8034 11.3175L11.0477 11.384L11.3125 11.1691Z" fill="#191317"/>
<mask id="mask48_14470_6998" style="mask-type:luminance" maskUnits="userSpaceOnUse" x="10" y="11" width="2" height="1">
<path d="M10.8036 11.3174C10.8006 11.3199 10.7966 11.3218 10.7925 11.3228C10.874 11.345 10.9555 11.3672 11.0368 11.3894C11.0408 11.3883 11.0448 11.3864 11.0479 11.3839C10.9746 11.364 10.8769 11.3374 10.8036 11.3174Z" fill="white"/>
</mask>
<g mask="url(#mask48_14470_6998)">
<path d="M11.0479 11.3839L10.8035 11.3174C10.8005 11.3199 10.7965 11.3218 10.7924 11.3228C10.7884 11.3239 10.7844 11.3242 10.7813 11.3234L11.0257 11.3899C11.0287 11.3907 11.0328 11.3905 11.0368 11.3894C11.0408 11.3883 11.0448 11.3864 11.0479 11.3839Z" fill="#181316"/>
</g>
<mask id="mask49_14470_6998" style="mask-type:luminance" maskUnits="userSpaceOnUse" x="10" y="11" width="2" height="1">
<path d="M10.7923 11.3232C10.7883 11.3243 10.7842 11.3246 10.7812 11.3238L11.0255 11.3903C11.0286 11.3911 11.0326 11.3909 11.0366 11.3898C10.9552 11.3676 10.8738 11.3454 10.7923 11.3232Z" fill="white"/>
</mask>
<g mask="url(#mask49_14470_6998)">
<path d="M11.0479 11.3839L10.8035 11.3174C10.8005 11.3199 10.7965 11.3218 10.7924 11.3228C10.7884 11.3239 10.7844 11.3242 10.7813 11.3234L11.0257 11.3899C11.0287 11.3907 11.0328 11.3905 11.0368 11.3894C11.0408 11.3883 11.0448 11.3864 11.0479 11.3839Z" fill="#181316"/>
</g>
<mask id="mask50_14470_6998" style="mask-type:luminance" maskUnits="userSpaceOnUse" x="11" y="11" width="1" height="1">
<path d="M11.3127 11.1574L11.0684 11.0908C11.0739 11.0926 11.0739 11.0977 11.0685 11.1024L11.3128 11.169C11.3183 11.1642 11.3183 11.1592 11.3127 11.1574Z" fill="white"/>
</mask>
<g mask="url(#mask50_14470_6998)">
<path d="M11.3127 11.1574L11.0684 11.0908C11.0739 11.0926 11.0739 11.0977 11.0685 11.1024L11.3128 11.169C11.3183 11.1642 11.3183 11.1592 11.3127 11.1574Z" fill="#181316"/>
</g>
<mask id="mask51_14470_6998" style="mask-type:luminance" maskUnits="userSpaceOnUse" x="11" y="11" width="1" height="1">
<path d="M11.3125 11.1578L11.0682 11.0913C11.0651 11.0905 11.0611 11.0907 11.0571 11.0918L11.3014 11.1584C11.3054 11.1573 11.3095 11.157 11.3125 11.1578Z" fill="white"/>
</mask>
<g mask="url(#mask51_14470_6998)">
<path d="M11.3125 11.1578L11.0682 11.0913C11.0651 11.0905 11.0611 11.0907 11.0571 11.0918L11.3014 11.1584C11.3054 11.1573 11.3095 11.157 11.3125 11.1578Z" fill="#38323B"/>
</g>
<mask id="mask52_14470_6998" style="mask-type:luminance" maskUnits="userSpaceOnUse" x="10" y="11" width="2" height="1">
<path d="M11.0258 11.379L10.7815 11.3125C10.7759 11.317 10.776 11.3223 10.7815 11.3241L11.0259 11.3907C11.0203 11.3889 11.0202 11.3835 11.0258 11.379Z" fill="white"/>
</mask>
<g mask="url(#mask52_14470_6998)">
<path d="M11.0258 11.379L10.7815 11.3125C10.7759 11.317 10.776 11.3223 10.7815 11.3241L11.0259 11.3907C11.0203 11.3889 11.0202 11.3835 11.0258 11.379Z" fill="#38323B"/>
</g>
<path d="M11.2905 11.1633L11.0462 11.0967L10.7815 11.3116L11.0258 11.3782L11.2905 11.1633Z" fill="#3A343D"/>
<mask id="mask53_14470_6998" style="mask-type:luminance" maskUnits="userSpaceOnUse" x="11" y="11" width="1" height="1">
<path d="M11.3018 11.1583L11.0574 11.0918C11.0534 11.0929 11.0494 11.0948 11.0463 11.0972L11.2907 11.1638C11.2937 11.1614 11.2978 11.1594 11.3018 11.1583Z" fill="white"/>
</mask>
<g mask="url(#mask53_14470_6998)">
<path d="M11.3018 11.1583L11.0574 11.0918C11.0534 11.0929 11.0494 11.0948 11.0463 11.0972L11.2907 11.1638C11.2937 11.1614 11.2978 11.1594 11.3018 11.1583Z" fill="#38323B"/>
</g>
<path d="M11.3012 11.1582C11.2972 11.1593 11.2931 11.1612 11.2901 11.1637L11.0253 11.3786C11.0198 11.3831 11.0199 11.3885 11.0254 11.3902C11.0284 11.3911 11.0325 11.3908 11.0365 11.3897C11.0405 11.3886 11.0445 11.3867 11.0475 11.3843L11.3123 11.1693C11.3178 11.1645 11.3177 11.1595 11.3122 11.1577C11.3093 11.1569 11.3052 11.1572 11.3012 11.1582Z" fill="#584E5D"/>
<mask id="mask54_14470_6998" style="mask-type:luminance" maskUnits="userSpaceOnUse" x="11" y="11" width="1" height="1">
<path d="M11.4976 11.1004L11.2532 11.0339C11.2093 11.0219 11.149 11.024 11.0826 11.0419L11.3269 11.1085C11.3933 11.0905 11.4536 11.0884 11.4976 11.1004Z" fill="white"/>
</mask>
<g mask="url(#mask54_14470_6998)">
<path d="M11.4976 11.1004L11.2532 11.0339C11.2093 11.0219 11.149 11.024 11.0826 11.0419L11.3269 11.1085C11.3933 11.0905 11.4536 11.0884 11.4976 11.1004Z" fill="#181316"/>
</g>
<mask id="mask55_14470_6998" style="mask-type:luminance" maskUnits="userSpaceOnUse" x="11" y="10" width="1" height="2">
<path d="M11.5752 11.0384L11.3309 10.9719C11.2672 10.9546 11.179 10.9573 11.0819 10.9836L11.3263 11.0502C11.4233 11.0239 11.5116 11.0211 11.5752 11.0384Z" fill="white"/>
</mask>
<g mask="url(#mask55_14470_6998)">
<path d="M11.5752 11.0384L11.3309 10.9719C11.2672 10.9546 11.179 10.9573 11.0819 10.9836L11.3263 11.0502C11.4233 11.0239 11.5116 11.0211 11.5752 11.0384Z" fill="#8D8D90"/>
</g>
<path d="M10.918 11.2199L10.6735 11.1533L10.675 11.3981L10.9194 11.4646L10.918 11.2199Z" fill="#161214"/>
<path d="M10.8101 11.2492L10.5656 11.1826L10.5671 11.4273L10.8115 11.4939L10.8101 11.2492Z" fill="#88898C"/>
<path d="M10.7236 11.3801L10.4792 11.3135L10.4031 11.3753L10.6474 11.4419L10.7236 11.3801Z" fill="#191317"/>
<path d="M11.3267 11.1086L11.0823 11.042L10.6733 11.1527L10.9177 11.2193L11.3267 11.1086Z" fill="#171215"/>
<path d="M10.8115 11.4933L10.5671 11.4268L10.1382 11.5428L10.3826 11.6094L10.8115 11.4933Z" fill="#8D8D90"/>
<mask id="mask56_14470_6998" style="mask-type:luminance" maskUnits="userSpaceOnUse" x="10" y="11" width="1" height="1">
<path d="M10.3819 11.381L10.6262 11.4475C10.629 11.4483 10.6326 11.448 10.6365 11.447C10.6404 11.4459 10.6444 11.444 10.6475 11.4415L10.4031 11.375C10.4001 11.3775 10.3961 11.3794 10.3921 11.3804C10.3883 11.3815 10.3847 11.3817 10.3819 11.381Z" fill="white"/>
</mask>
<g mask="url(#mask56_14470_6998)">
<path d="M10.6475 11.4415L10.4031 11.375C10.4001 11.3775 10.3961 11.3794 10.3921 11.3804C10.3884 11.3815 10.3847 11.3817 10.3819 11.381L10.6262 11.4475C10.629 11.4483 10.6326 11.448 10.6365 11.447C10.6404 11.4459 10.6444 11.444 10.6475 11.4415Z" fill="#181316"/>
</g>
<mask id="mask57_14470_6998" style="mask-type:luminance" maskUnits="userSpaceOnUse" x="10" y="11" width="1" height="1">
<path d="M10.724 11.3683L10.4796 11.3018C10.4852 11.3033 10.4851 11.3085 10.4792 11.3133L10.7235 11.3798C10.7294 11.375 10.7295 11.3698 10.724 11.3683Z" fill="white"/>
</mask>
<g mask="url(#mask57_14470_6998)">
<path d="M10.724 11.3683L10.4796 11.3018C10.4852 11.3033 10.4851 11.3085 10.4792 11.3133L10.7235 11.3798C10.7294 11.375 10.7295 11.3698 10.724 11.3683Z" fill="#181316"/>
</g>
<mask id="mask58_14470_6998" style="mask-type:luminance" maskUnits="userSpaceOnUse" x="10" y="11" width="1" height="1">
<path d="M10.6259 11.4357L10.3816 11.3691C10.3755 11.3741 10.3755 11.3791 10.3816 11.3808L10.626 11.4473C10.6198 11.4457 10.6198 11.4406 10.6259 11.4357Z" fill="white"/>
</mask>
<g mask="url(#mask58_14470_6998)">
<path d="M10.6259 11.4357L10.3816 11.3691C10.3755 11.3741 10.3755 11.3791 10.3816 11.3808L10.626 11.4473C10.6198 11.4457 10.6198 11.4406 10.6259 11.4357Z" fill="#38323B"/>
</g>
<mask id="mask59_14470_6998" style="mask-type:luminance" maskUnits="userSpaceOnUse" x="10" y="11" width="1" height="1">
<path d="M10.3821 11.381L10.6265 11.4476L10.626 11.4474L10.3817 11.3809L10.3821 11.381Z" fill="white"/>
</mask>
<g mask="url(#mask59_14470_6998)">
<path d="M10.626 11.4474L10.3817 11.3809L10.3821 11.381L10.6265 11.4476L10.626 11.4474Z" fill="#38323B"/>
</g>
<mask id="mask60_14470_6998" style="mask-type:luminance" maskUnits="userSpaceOnUse" x="10" y="11" width="1" height="1">
<path d="M10.7241 11.3685L10.4798 11.3019L10.4793 11.3018L10.7236 11.3683L10.7241 11.3685Z" fill="white"/>
</mask>
<g mask="url(#mask60_14470_6998)">
<path d="M10.7241 11.3685L10.4798 11.3019L10.4793 11.3018L10.7236 11.3683L10.7241 11.3685Z" fill="#38323B"/>
</g>
<mask id="mask61_14470_6998" style="mask-type:luminance" maskUnits="userSpaceOnUse" x="10" y="11" width="1" height="1">
<path d="M10.7236 11.3678L10.4793 11.3013C10.4763 11.3005 10.4724 11.3007 10.4685 11.3017L10.7128 11.3683C10.7167 11.3672 10.7206 11.367 10.7236 11.3678Z" fill="white"/>
</mask>
<g mask="url(#mask61_14470_6998)">
<path d="M10.7236 11.3678L10.4793 11.3013C10.4763 11.3005 10.4724 11.3007 10.4685 11.3017L10.7128 11.3683C10.7167 11.3672 10.7206 11.367 10.7236 11.3678Z" fill="#38323B"/>
</g>
<path d="M10.7021 11.3742L10.4578 11.3076L10.3816 11.3694L10.626 11.436L10.7021 11.3742Z" fill="#3A343D"/>
<mask id="mask62_14470_6998" style="mask-type:luminance" maskUnits="userSpaceOnUse" x="10" y="11" width="1" height="1">
<path d="M10.7129 11.3683L10.4686 11.3018C10.4647 11.3028 10.4608 11.3047 10.4578 11.3072L10.7021 11.3737C10.7052 11.3712 10.709 11.3694 10.7129 11.3683Z" fill="white"/>
</mask>
<g mask="url(#mask62_14470_6998)">
<path d="M10.7129 11.3683L10.4686 11.3018C10.4647 11.3028 10.4608 11.3047 10.4578 11.3072L10.7021 11.3737C10.7052 11.3712 10.709 11.3694 10.7129 11.3683Z" fill="#38323B"/>
</g>
<path d="M10.3819 11.5275L10.1376 11.4609L10.138 11.5429L10.3823 11.6095L10.3819 11.5275Z" fill="#161214"/>
<path d="M10.8101 11.2492L10.5656 11.1826L10.3781 11.2334L10.6224 11.3L10.8101 11.2492Z" fill="#171215"/>
<path d="M10.383 11.4825L10.3821 11.5278L10.3827 11.6098L10.8115 11.4937L10.8101 11.249L10.6224 11.2998C10.4974 11.3336 10.3943 11.4123 10.383 11.4825ZM10.6261 11.4478C10.6201 11.4461 10.62 11.4411 10.626 11.4362L10.7021 11.3744C10.7052 11.3719 10.7091 11.37 10.713 11.369C10.7169 11.3679 10.7207 11.3677 10.7237 11.3686C10.7299 11.3699 10.7299 11.3753 10.7238 11.3802L10.6477 11.442C10.6447 11.4444 10.6407 11.4464 10.6367 11.4474C10.6328 11.4484 10.6289 11.4487 10.6261 11.4478Z" fill="#251D22"/>
<path d="M10.7127 11.3691C10.7088 11.3702 10.7049 11.372 10.7018 11.3745L10.6257 11.4363C10.6197 11.4412 10.6197 11.4463 10.6258 11.4479C10.6286 11.4488 10.6325 11.4485 10.6364 11.4475C10.6404 11.4464 10.6444 11.4445 10.6474 11.442L10.7235 11.3803C10.7296 11.3753 10.7296 11.37 10.7234 11.3686C10.7205 11.3679 10.7166 11.3681 10.7127 11.3691Z" fill="#584E5D"/>
<mask id="mask63_14470_6998" style="mask-type:luminance" maskUnits="userSpaceOnUse" x="10" y="11" width="1" height="1">
<path d="M10.6221 11.299L10.3777 11.2324C10.2527 11.2663 10.1495 11.345 10.1383 11.4152L10.3826 11.4817C10.3939 11.4115 10.497 11.3328 10.6221 11.299Z" fill="white"/>
</mask>
<g mask="url(#mask63_14470_6998)">
<path d="M10.6221 11.299L10.3777 11.2324C10.2527 11.2663 10.1495 11.345 10.1383 11.4152L10.3826 11.4817C10.3939 11.4115 10.497 11.3328 10.6221 11.299Z" fill="#181316"/>
</g>
<path d="M10.2748 11.508V11.506C10.2909 11.404 10.4404 11.2898 10.6219 11.2407L11.3264 11.05C11.5079 11.0009 11.6583 11.0339 11.6755 11.1269L11.6766 11.1304L11.6777 11.3171L10.2749 11.6967L10.2741 11.5554L10.2748 11.508ZM10.9193 11.4638L11.5695 11.2879L11.5688 11.1684L11.5677 11.1612C11.5528 11.0965 11.4502 11.0751 11.3268 11.1085L10.9179 11.2191L10.9193 11.4638ZM10.3824 11.6091L10.8113 11.4931L10.8098 11.2483L10.6222 11.2991C10.4972 11.333 10.394 11.4117 10.3828 11.4819L10.3819 11.5272L10.3824 11.6091Z" fill="#E4E5E9"/>
<path d="M11.3266 11.1084L10.9176 11.219L10.9191 11.4637L11.5693 11.2878L11.5686 11.1683L11.5675 11.1611C11.5526 11.0964 11.45 11.075 11.3266 11.1084ZM11.0256 11.3898C11.0201 11.3881 11.0201 11.3827 11.0256 11.3782L11.2903 11.1633C11.2934 11.1608 11.2974 11.1589 11.3013 11.1578C11.3053 11.1567 11.3094 11.1565 11.3124 11.1573C11.318 11.1591 11.318 11.1641 11.3125 11.1689L11.0477 11.3839C11.0447 11.3863 11.0407 11.3883 11.0367 11.3893C11.0327 11.3904 11.0287 11.3907 11.0256 11.3898Z" fill="#251D22"/>
<path d="M10.274 11.5558L10.0296 11.4893L10.0305 11.6306L10.2749 11.6971L10.274 11.5558Z" fill="#A7A8AB"/>
<path d="M11.3262 11.05L11.0818 10.9834L10.3774 11.1741L10.6217 11.2406L11.3262 11.05Z" fill="#8D8D90"/>
<path d="M10.2749 11.508L10.0306 11.4414L10.0297 11.4888L10.2741 11.5554L10.2749 11.508Z" fill="#A7A8AB"/>
<path d="M10.2749 11.506L10.0306 11.4395V11.4415L10.2749 11.5081V11.506Z" fill="#88898C"/>
<mask id="mask64_14470_6998" style="mask-type:luminance" maskUnits="userSpaceOnUse" x="10" y="11" width="1" height="1">
<path d="M10.6221 11.2414L10.3777 11.1748C10.1962 11.2239 10.0467 11.3381 10.0307 11.4401L10.275 11.5067C10.2911 11.4047 10.4406 11.2905 10.6221 11.2414Z" fill="white"/>
</mask>
<g mask="url(#mask64_14470_6998)">
<path d="M10.6221 11.2414L10.3777 11.1748C10.1962 11.2239 10.0467 11.3381 10.0307 11.4401L10.275 11.5067C10.2911 11.4047 10.4406 11.2905 10.6221 11.2414Z" fill="#8D8D90"/>
</g>
</svg>
