<svg width="16" height="16" viewBox="0 0 16 16" fill="none" xmlns="http://www.w3.org/2000/svg">
<g clip-path="url(#clip0_15096_51241)">
<path d="M3.82812 5.52246V6.47926L4.07773 6.78753H5.06866L5.31932 6.47926V5.52246H3.82812Z" fill="#CECECE"/>
<path d="M4.27257 5.85352C4.18297 5.85352 4.10938 5.92605 4.10938 6.01672V6.78792H4.43471V6.01672C4.43577 5.92605 4.36217 5.85352 4.27257 5.85352ZM4.87311 5.85352C4.78351 5.85352 4.70991 5.92605 4.70991 6.01672V6.78792H5.03524V6.01672C5.03631 5.92605 4.96377 5.85352 4.87311 5.85352Z" fill="#6AD5D8"/>
<path d="M4.43442 6.84087H4.10802C4.07815 6.84087 4.05469 6.8174 4.05469 6.78754V6.01634C4.05469 5.89687 4.15175 5.7998 4.27122 5.7998C4.39069 5.7998 4.48775 5.89687 4.48775 6.01634V6.78754C4.48775 6.8174 4.46322 6.84087 4.43442 6.84087ZM4.16135 6.7342H4.38002V6.01634C4.38002 5.95554 4.33095 5.90647 4.27015 5.90647C4.20935 5.90647 4.16135 5.9566 4.16135 6.0174V6.7342ZM5.03495 6.84087H4.70962C4.67975 6.84087 4.65629 6.8174 4.65629 6.78754V6.01634C4.65629 5.89687 4.75335 5.7998 4.87282 5.7998C4.99229 5.7998 5.08935 5.89687 5.08935 6.01634V6.78754C5.08907 6.80178 5.08322 6.81534 5.07305 6.82532C5.06288 6.83529 5.0492 6.84087 5.03495 6.84087ZM4.76295 6.7342H4.98162V6.01634C4.98162 5.95554 4.93255 5.90647 4.87175 5.90647C4.81095 5.90647 4.76189 5.95554 4.76189 6.01634V6.7342H4.76295Z" fill="black"/>
<path d="M3.9668 1.96582H5.17533V2.95995H3.9668V1.96582Z" fill="#CECECE"/>
<path d="M4.07617 6.78716H5.06711V8.15889H4.07617V6.78716ZM4.10711 2.95996H5.03617V5.11676H4.10711V2.95996Z" fill="#BABABA"/>
<path d="M5.16803 5.11627H3.97337L3.6875 5.30401V5.52267H5.4539V5.30401L5.16803 5.11627ZM5.05497 1.56641H4.08643L3.85497 1.72427V1.96641H5.28643V1.72427L5.05497 1.56641Z" fill="#385E52"/>
<path d="M4.83677 1.21464C4.88904 1.1165 4.9221 1.10584 4.9221 0.967171C4.9221 0.658904 4.5733 0.523438 4.5733 0.523438C4.5733 0.523438 4.2245 0.658904 4.2245 0.967171C4.2245 1.10584 4.25757 1.11757 4.30984 1.21464C4.2277 1.2413 4.16797 1.31704 4.16797 1.4077V1.5645H4.9797V1.4077C4.97864 1.31704 4.9189 1.2413 4.83677 1.21464Z" fill="#CECECE"/>
<path d="M5.0677 8.21283H4.07677C4.0469 8.21283 4.02344 8.18936 4.02344 8.15949V6.78776C4.02344 6.75789 4.0469 6.73443 4.07677 6.73443H5.0677C5.09757 6.73443 5.12104 6.75789 5.12104 6.78776V8.15949C5.12104 8.18936 5.09757 8.21283 5.0677 8.21283ZM4.1301 8.10616H5.01437V6.84109H4.1301V8.10616ZM5.03677 5.16963H4.1077C4.07784 5.16963 4.05437 5.14616 4.05437 5.11629V2.96056C4.05437 2.93069 4.07784 2.90723 4.1077 2.90723H5.03677C5.06664 2.90723 5.0901 2.93069 5.0901 2.96056V5.11736C5.0901 5.14616 5.06664 5.16963 5.03677 5.16963ZM4.16104 5.06296H4.98344V3.01389H4.16104V5.06296Z" fill="black"/>
<path d="M5.06837 6.84048H4.07744C4.06144 6.84048 4.0465 6.83302 4.03584 6.82128L3.78517 6.51302C3.77754 6.50328 3.77341 6.49126 3.77344 6.47888V5.52208C3.77344 5.49222 3.7969 5.46875 3.82677 5.46875H5.31797C5.34784 5.46875 5.3713 5.49222 5.3713 5.52208V6.47888C5.3713 6.49062 5.36704 6.50342 5.35957 6.51302L5.1089 6.82128C5.0993 6.83302 5.08437 6.84048 5.06837 6.84048ZM4.10304 6.73382H5.04277L5.2657 6.45968V5.57542H3.88117V6.45968L4.10304 6.73382Z" fill="black"/>
<path d="M5.45645 5.57557H3.69005C3.66019 5.57557 3.63672 5.5521 3.63672 5.52223V5.30357C3.63672 5.28543 3.64525 5.26837 3.66125 5.25877L3.94712 5.07103C3.95577 5.06564 3.96572 5.0627 3.97592 5.0625H5.17059C5.18125 5.0625 5.19085 5.0657 5.19939 5.07103L5.48525 5.25877C5.50019 5.26837 5.50979 5.28543 5.50979 5.30357V5.52223C5.50979 5.5521 5.48525 5.57557 5.45645 5.57557ZM3.74339 5.4689H5.40312V5.33237L5.15459 5.16917H3.99192L3.74339 5.33237V5.4689Z" fill="black"/>
<path d="M3.53516 5.46935H5.60876V5.57602H3.53516V5.46935ZM5.17569 3.01389H3.96716C3.93729 3.01389 3.91382 2.99042 3.91382 2.96055V1.96642C3.91382 1.93655 3.93729 1.91309 3.96716 1.91309H5.17569C5.20556 1.91309 5.22902 1.93655 5.22902 1.96642V2.96055C5.22902 2.98935 5.20556 3.01389 5.17569 3.01389ZM4.02049 2.90722H5.12236V2.01975H4.02049V2.90722Z" fill="black"/>
<path d="M5.28753 2.01936H3.85607C3.8262 2.01936 3.80273 1.9959 3.80273 1.96603V1.7239C3.80273 1.70576 3.81127 1.68976 3.8262 1.68016L4.05767 1.5223C4.0662 1.5159 4.07687 1.5127 4.08753 1.5127H5.05607C5.06673 1.5127 5.0774 1.5159 5.08593 1.5223L5.3174 1.68016C5.33233 1.68976 5.34087 1.70683 5.34087 1.7239V1.96603C5.34087 1.99483 5.31633 2.01936 5.28753 2.01936ZM3.9094 1.9127H5.2342V1.75163L5.039 1.61936H4.10353L3.90833 1.75163V1.9127H3.9094Z" fill="black"/>
<path d="M3.66211 1.91258H5.48078V2.01924H3.66211V1.91258ZM3.82638 2.90671H5.31758V3.01338H3.82638V2.90671ZM4.97731 1.61924H4.16558C4.13571 1.61924 4.11224 1.59578 4.11224 1.56591V1.40911C4.11224 1.31951 4.15918 1.23844 4.23278 1.19258C4.23171 1.19044 4.23064 1.18938 4.22958 1.18724C4.19118 1.12538 4.16984 1.08378 4.16984 0.968577C4.16984 0.627244 4.53678 0.48111 4.55278 0.47471C4.55883 0.472067 4.56537 0.470703 4.57198 0.470703C4.57858 0.470703 4.58512 0.472067 4.59118 0.47471C4.60718 0.48111 4.97411 0.627244 4.97411 0.968577C4.97411 1.08484 4.95278 1.12538 4.91438 1.18724C4.91331 1.18938 4.91224 1.19044 4.91118 1.19258C4.98478 1.23844 5.03171 1.31951 5.03171 1.40911V1.56591C5.03064 1.59471 5.00718 1.61924 4.97731 1.61924ZM4.21891 1.51258H4.92398V1.40911C4.92398 1.34404 4.88131 1.28644 4.81838 1.26618C4.81083 1.26396 4.80391 1.26001 4.79817 1.25464C4.79243 1.24927 4.78802 1.24262 4.78531 1.23524C4.78222 1.22811 4.7808 1.22036 4.78117 1.2126C4.78154 1.20483 4.78369 1.19725 4.78744 1.19044C4.80024 1.16698 4.81198 1.14778 4.82264 1.13071C4.85251 1.08164 4.86638 1.05924 4.86638 0.96751C4.86638 0.739244 4.63918 0.614444 4.57091 0.581377C4.50264 0.614444 4.27544 0.739244 4.27544 0.96751C4.27544 1.05924 4.28931 1.08164 4.31918 1.13071C4.32984 1.14778 4.34158 1.16698 4.35438 1.19044C4.36184 1.20431 4.36291 1.22138 4.35651 1.23524C4.35011 1.25018 4.33838 1.26084 4.32344 1.26618C4.26051 1.28644 4.21784 1.34298 4.21784 1.40911V1.51258H4.21891Z" fill="black"/>
<path d="M4.51953 0.0800781H4.6262V0.523811H4.51953V0.0800781Z" fill="black"/>
<path d="M4.32758 2.20215C4.25505 2.20215 4.19531 2.26082 4.19531 2.33442V2.95948H4.45985V2.33442C4.45985 2.26188 4.40011 2.20215 4.32758 2.20215ZM4.81505 2.20215C4.74251 2.20215 4.68278 2.26082 4.68278 2.33442V2.95948H4.94731V2.33442C4.94731 2.26188 4.88865 2.20215 4.81505 2.20215Z" fill="#6AD5D8"/>
<path d="M4.45849 3.01309H4.19396C4.16409 3.01309 4.14062 2.98962 4.14062 2.95975V2.33469C4.14226 2.28655 4.16253 2.24093 4.19715 2.20746C4.23178 2.17398 4.27806 2.15527 4.32623 2.15527C4.37439 2.15527 4.42067 2.17398 4.4553 2.20746C4.48992 2.24093 4.51019 2.28655 4.51182 2.33469V2.95975C4.51182 2.98855 4.48836 3.01309 4.45849 3.01309ZM4.24729 2.90642H4.40516V2.33469C4.40516 2.29095 4.36996 2.25575 4.32623 2.25575C4.28249 2.25575 4.24729 2.29095 4.24729 2.33469V2.90642ZM4.94596 3.01309H4.68142C4.65156 3.01309 4.62809 2.98962 4.62809 2.95975V2.33469C4.62972 2.28655 4.64999 2.24093 4.68462 2.20746C4.71925 2.17398 4.76553 2.15527 4.81369 2.15527C4.86185 2.15527 4.90813 2.17398 4.94276 2.20746C4.97739 2.24093 4.99766 2.28655 4.99929 2.33469V2.95975C4.99929 2.98855 4.97582 3.01309 4.94596 3.01309ZM4.73476 2.90642H4.89262V2.33469C4.89262 2.29095 4.85743 2.25575 4.81369 2.25575C4.76996 2.25575 4.73476 2.29095 4.73476 2.33469V2.90642Z" fill="black"/>
<path d="M0.109375 8.88574H3.78831V11.1993H0.109375V8.88574Z" fill="#CECECE"/>
<path d="M0.109375 11.1992H3.78831V13.5128H0.109375V11.1992Z" fill="#FCBA63"/>
<path d="M0.109375 8.88574H3.78831V9.23134H0.109375V8.88574Z" fill="#BABABA"/>
<path d="M0.109375 11.1992H3.78831V11.5843H0.109375V11.1992Z" fill="#FAA82C"/>
<path d="M3.78695 11.2523H0.108021C0.0781542 11.2523 0.0546875 11.2288 0.0546875 11.199V8.88536C0.0546875 8.8555 0.0781542 8.83203 0.108021 8.83203H3.78695C3.81682 8.83203 3.84029 8.8555 3.84029 8.88536V11.199C3.84029 11.2278 3.81682 11.2523 3.78695 11.2523ZM0.161354 11.1456H3.73362V8.9387H0.161354V11.1456Z" fill="black"/>
<path d="M3.78695 13.5648H0.108021C0.0781542 13.5648 0.0546875 13.5413 0.0546875 13.5115V11.1979C0.0546875 11.168 0.0781542 11.1445 0.108021 11.1445H3.78695C3.81682 11.1445 3.84029 11.168 3.84029 11.1979V13.5115C3.84029 13.5413 3.81682 13.5648 3.78695 13.5648ZM0.161354 13.4581H3.73362V11.2512H0.161354V13.4581Z" fill="black"/>
<path d="M3.07693 11.7314C3.27106 11.7314 3.42893 11.8893 3.42893 12.0834V13.5128H2.726V12.0834C2.726 11.8893 2.8828 11.7314 3.07693 11.7314ZM1.94733 11.7314C2.14146 11.7314 2.29933 11.8893 2.29933 12.0834V13.5128H1.5964V12.0834C1.5964 11.8893 1.7532 11.7314 1.94733 11.7314ZM0.818797 11.7314C1.01293 11.7314 1.1708 11.8893 1.1708 12.0834V13.5128H0.466797V12.0834C0.466797 11.8893 0.624664 11.7314 0.818797 11.7314Z" fill="#333333"/>
<path d="M3.42953 13.5648H2.7266C2.69673 13.5648 2.67326 13.5413 2.67326 13.5114V12.0821C2.67326 11.8592 2.8546 11.6768 3.0786 11.6768C3.3026 11.6768 3.48286 11.8581 3.48286 12.0821V13.5114C3.48286 13.5413 3.45833 13.5648 3.42953 13.5648ZM2.77993 13.4581H3.3762V12.0821C3.3762 11.9178 3.24286 11.7834 3.0786 11.7834C2.91433 11.7834 2.77993 11.9168 2.77993 12.0821V13.4581ZM2.29993 13.5648H1.597C1.56713 13.5648 1.54366 13.5413 1.54366 13.5114V12.0821C1.54366 11.8592 1.725 11.6768 1.94793 11.6768C2.17086 11.6768 2.35326 11.8581 2.35326 12.0821V13.5114C2.35326 13.5413 2.3298 13.5648 2.29993 13.5648ZM1.65033 13.4581H2.2466V12.0821C2.2466 11.9178 2.11326 11.7834 1.94793 11.7834C1.78366 11.7834 1.65033 11.9168 1.65033 12.0821V13.4581ZM1.17033 13.5648H0.467396C0.437529 13.5648 0.414062 13.5413 0.414062 13.5114V12.0821C0.414062 11.8592 0.595396 11.6768 0.819396 11.6768C1.0434 11.6768 1.22366 11.8581 1.22366 12.0821V13.5114C1.22366 13.5413 1.2002 13.5648 1.17033 13.5648ZM0.520729 13.4581H1.117V12.0821C1.117 11.9178 0.983662 11.7834 0.819396 11.7834C0.655129 11.7834 0.520729 11.9168 0.520729 12.0821V13.4581Z" fill="black"/>
<path d="M1.94791 9.42285C2.70631 9.42285 3.32071 10.0373 3.32071 10.7957V11.1989H0.576172V10.7957C0.576172 10.0373 1.19057 9.42285 1.94791 9.42285Z" fill="#333333"/>
<path d="M3.3213 11.2528H0.576771C0.546904 11.2528 0.523438 11.2293 0.523438 11.1995V10.7963C0.523438 10.0101 1.16344 9.37012 1.94957 9.37012C2.7357 9.37012 3.3757 10.0101 3.3757 10.7963V11.1995C3.37464 11.2283 3.35117 11.2528 3.3213 11.2528ZM0.630104 11.1461H3.26797V10.7963C3.26797 10.0688 2.67597 9.47678 1.9485 9.47678C1.22104 9.47678 0.629037 10.0688 0.629037 10.7963V11.1461H0.630104Z" fill="black"/>
<path d="M1.94785 11.2523C1.94086 11.2523 1.93392 11.251 1.92749 11.2482C1.92106 11.2454 1.91528 11.2414 1.91052 11.2363L0.761719 10.0875L0.837452 10.0117L1.94892 11.1232L3.05399 10.0181L3.12972 10.0939L1.98625 11.2363C1.97559 11.2469 1.96172 11.2523 1.94785 11.2523Z" fill="black"/>
<path d="M1.89453 9.42285H2.0012V11.1989H1.89453V9.42285Z" fill="black"/>
<path d="M15.8957 11.1984H12.2168V8.88477H15.8957V11.1984Z" fill="#CECECE"/>
<path d="M15.8938 13.5118H12.2148V11.1982H15.8938V13.5118Z" fill="#FCBA63"/>
<path d="M12.2148 8.88574H15.8938V9.23134H12.2148V8.88574Z" fill="#BABABA"/>
<path d="M12.2148 11.1992H15.8938V11.5843H12.2148V11.1992Z" fill="#FAA82C"/>
<path d="M15.8944 11.2523H12.2154C12.1856 11.2523 12.1621 11.2288 12.1621 11.199V8.88536C12.1621 8.8555 12.1856 8.83203 12.2154 8.83203H15.8944C15.9242 8.83203 15.9477 8.8555 15.9477 8.88536V11.199C15.9477 11.2278 15.9242 11.2523 15.8944 11.2523ZM12.2688 11.1456H15.841V8.9387H12.2688V11.1456Z" fill="black"/>
<path d="M15.8944 13.5648H12.2154C12.1856 13.5648 12.1621 13.5413 12.1621 13.5115V11.1979C12.1621 11.168 12.1856 11.1445 12.2154 11.1445H15.8944C15.9242 11.1445 15.9477 11.168 15.9477 11.1979V13.5115C15.9477 13.5413 15.9242 13.5648 15.8944 13.5648ZM12.2688 13.4581H15.841V11.2512H12.2688V13.4581Z" fill="black"/>
<path d="M12.9262 11.7314C12.7321 11.7314 12.5742 11.8893 12.5742 12.0834V13.5128H13.2772V12.0834C13.2772 11.8893 13.1204 11.7314 12.9262 11.7314ZM14.0558 11.7314C13.8617 11.7314 13.7038 11.8893 13.7038 12.0834V13.5128H14.4068V12.0834C14.4068 11.8893 14.25 11.7314 14.0558 11.7314ZM15.1844 11.7314C14.9902 11.7314 14.8324 11.8893 14.8324 12.0834V13.5128H15.5353V12.0834C15.5364 11.8893 15.3785 11.7314 15.1844 11.7314Z" fill="#333333"/>
<path d="M13.2758 13.5648H12.5729C12.543 13.5648 12.5195 13.5413 12.5195 13.5114V12.0821C12.5195 11.8592 12.7009 11.6768 12.9238 11.6768C13.1467 11.6768 13.3291 11.8581 13.3291 12.0821V13.5114C13.3291 13.5413 13.3057 13.5648 13.2758 13.5648ZM12.6262 13.4581H13.2225V12.0821C13.2225 11.9178 13.0891 11.7834 12.9238 11.7834C12.7595 11.7834 12.6262 11.9168 12.6262 12.0821V13.4581ZM14.4054 13.5648H13.7025C13.6726 13.5648 13.6491 13.5413 13.6491 13.5114V12.0821C13.6491 11.8592 13.8305 11.6768 14.0534 11.6768C14.2763 11.6768 14.4587 11.8581 14.4587 12.0821V13.5114C14.4587 13.5413 14.4353 13.5648 14.4054 13.5648ZM13.7558 13.4581H14.3521V12.0821C14.3521 11.9178 14.2187 11.7834 14.0534 11.7834C13.8891 11.7834 13.7558 11.9168 13.7558 12.0821V13.4581ZM15.535 13.5648H14.8321C14.8022 13.5648 14.7787 13.5413 14.7787 13.5114V12.0821C14.7787 11.8592 14.9601 11.6768 15.1841 11.6768C15.4081 11.6768 15.5883 11.8581 15.5883 12.0821V13.5114C15.5883 13.5413 15.5638 13.5648 15.535 13.5648ZM14.8854 13.4581H15.4817V12.0821C15.4817 11.9178 15.3483 11.7834 15.1841 11.7834C15.0198 11.7834 14.8854 11.9168 14.8854 12.0821V13.4581Z" fill="black"/>
<path d="M14.0564 9.42285C13.298 9.42285 12.6836 10.0373 12.6836 10.7957V11.1989H15.4281V10.7957C15.4281 10.0373 14.8137 9.42285 14.0564 9.42285Z" fill="#333333"/>
<path d="M15.4268 11.2528H12.6822C12.6524 11.2528 12.6289 11.2293 12.6289 11.1995V10.7963C12.6289 10.0101 13.2689 9.37012 14.055 9.37012C14.8412 9.37012 15.4812 10.0101 15.4812 10.7963V11.1995C15.4801 11.2283 15.4566 11.2528 15.4268 11.2528ZM12.7356 11.1461H15.3734V10.7963C15.3734 10.0688 14.7814 9.47678 14.054 9.47678C13.3265 9.47678 12.7345 10.0688 12.7345 10.7963V11.1461H12.7356Z" fill="black"/>
<path d="M14.0558 11.2523C14.0488 11.2523 14.0419 11.251 14.0354 11.2482C14.029 11.2454 14.0232 11.2414 14.0185 11.2363L12.875 10.0939L12.9507 10.0181L14.0558 11.1232L15.1673 10.0117L15.243 10.0875L14.0942 11.2363C14.0825 11.2469 14.0686 11.2523 14.0558 11.2523Z" fill="black"/>
<path d="M14.002 9.42285H14.1086V11.1989H14.002V9.42285Z" fill="black"/>
<path d="M3.78711 15.0101L8.00151 15.8666V7.09863L3.78711 7.9605V15.0101Z" fill="#1E1E1E"/>
<path d="M12.2144 15.0101L8 15.8666V7.09863L12.2144 7.9605V15.0101Z" fill="#333333"/>
<path d="M3.78711 10.1892L8.00151 9.87028V8.88574L3.78711 9.39774V10.1892ZM6.44844 11.3679L8.00151 11.3583V10.3737L6.44844 10.4548V11.3679ZM3.78711 11.3849L4.90924 11.3785V10.5348L3.78711 10.5935V11.3849ZM6.04631 10.9231C6.04631 11.1705 5.87351 11.3711 5.66551 11.3732C5.46178 11.3743 5.29964 11.1833 5.29964 10.9455C5.29964 10.7076 5.46178 10.5071 5.66551 10.4964C5.87351 10.4847 6.04631 10.6767 6.04631 10.9231Z" fill="#FAA82C"/>
<path d="M12.2144 10.1892L8 9.87028V8.88574L12.2144 9.39774V10.1892ZM9.55307 11.3679L8 11.3583V10.3737L9.55307 10.4548V11.3679ZM12.2144 11.3849L11.0923 11.3785V10.5348L12.2144 10.5935V11.3849ZM9.9552 10.9231C9.9552 11.1705 10.128 11.3711 10.336 11.3732C10.5397 11.3743 10.7019 11.1833 10.7019 10.9455C10.7019 10.7076 10.5397 10.5071 10.336 10.4964C10.128 10.4847 9.9552 10.6767 9.9552 10.9231Z" fill="#FCBA63"/>
<path d="M8.00211 15.9205C7.99891 15.9205 7.99464 15.9206 7.99144 15.9195L3.77704 15.064C3.76502 15.0615 3.75423 15.0549 3.74646 15.0454C3.7387 15.0359 3.73443 15.024 3.73438 15.0117V7.96108C3.73438 7.93548 3.75251 7.91415 3.77704 7.90882L7.99144 7.04695C8.00744 7.04375 8.02344 7.04802 8.03624 7.05762C8.04904 7.06722 8.05544 7.08322 8.05544 7.09922V15.8672C8.05544 15.8832 8.04797 15.8981 8.03624 15.9088C8.02664 15.9163 8.01384 15.9205 8.00211 15.9205ZM3.84104 14.968L7.94877 15.8021V7.16428L3.84104 8.00482V14.968Z" fill="black"/>
<path d="M3.78771 10.2426C3.77384 10.2426 3.76104 10.2373 3.75144 10.2288C3.74604 10.2237 3.74174 10.2176 3.73881 10.2108C3.73587 10.204 3.73436 10.1967 3.73438 10.1893V9.39783C3.73438 9.37116 3.75464 9.3477 3.78131 9.3445L7.99571 8.8325C8.01064 8.83036 8.02557 8.8357 8.03731 8.8453C8.04904 8.8549 8.05544 8.86983 8.05544 8.88476V9.8693C8.05544 9.89703 8.03411 9.9205 8.00637 9.92263L3.79197 10.2416C3.78984 10.2426 3.78878 10.2426 3.78771 10.2426ZM3.84104 9.44476V10.1317L7.94877 9.82023V8.94556L3.84104 9.44476ZM6.44904 11.4213C6.44205 11.4214 6.43511 11.42 6.42868 11.4172C6.42225 11.4145 6.41647 11.4104 6.41171 11.4053C6.40175 11.3954 6.39602 11.382 6.39571 11.368V10.4549C6.39571 10.4261 6.41811 10.4026 6.44584 10.4016L7.99891 10.3205C8.01277 10.3184 8.02771 10.3248 8.03837 10.3354C8.04904 10.345 8.05544 10.36 8.05544 10.3738V11.3584C8.05544 11.3872 8.03197 11.4117 8.00211 11.4117L6.44904 11.4213ZM6.50237 10.5061V11.3146L7.94877 11.305V10.4304L6.50237 10.5061ZM3.78771 11.4384C3.78071 11.4385 3.77378 11.4371 3.76735 11.4343C3.76092 11.4316 3.75514 11.4275 3.75037 11.4224C3.74042 11.4125 3.73469 11.3991 3.73438 11.385V10.5936C3.73438 10.5648 3.75677 10.5413 3.78451 10.5402L4.90664 10.4816C4.92051 10.4794 4.93544 10.4858 4.94611 10.4965C4.95677 10.5061 4.96317 10.521 4.96317 10.5349V11.3776C4.96317 11.4064 4.93971 11.4309 4.90984 11.4309L3.78771 11.4384ZM3.84104 10.6448V11.3317L4.85651 11.3253V10.5914L3.84104 10.6448ZM5.66397 11.4266C5.56264 11.4266 5.46664 11.385 5.39091 11.3104C5.29917 11.2197 5.24691 11.0864 5.24691 10.9456C5.24691 10.68 5.43357 10.4549 5.66397 10.4432C5.76851 10.4368 5.86984 10.4762 5.94984 10.552C6.04584 10.6426 6.10131 10.7781 6.10131 10.9242C6.10131 11.2005 5.90717 11.4256 5.66717 11.4277C5.66504 11.4266 5.66504 11.4266 5.66397 11.4266ZM5.68211 10.5488H5.66824C5.49437 10.5573 5.35251 10.7354 5.35251 10.9445C5.35251 11.0576 5.39411 11.1632 5.46557 11.2336C5.52211 11.2901 5.59037 11.32 5.66504 11.3189C5.84531 11.3178 5.99251 11.1397 5.99251 10.9221C5.99251 10.8058 5.94984 10.6981 5.87517 10.6277C5.82077 10.5765 5.75251 10.5488 5.68211 10.5488Z" fill="black"/>
<path d="M8.00257 15.9197C7.99084 15.9197 7.97804 15.9154 7.96844 15.908C7.96225 15.903 7.9573 15.8966 7.95397 15.8894C7.95064 15.8822 7.94902 15.8743 7.94924 15.8664V7.09837C7.94924 7.08237 7.9567 7.06744 7.96844 7.05677C7.98124 7.04611 7.99724 7.04291 8.01324 7.04611L12.2276 7.90797C12.2522 7.91331 12.2703 7.93464 12.2703 7.96024V15.0098C12.2703 15.0354 12.2522 15.0568 12.2276 15.0621L8.01324 15.9176C8.01004 15.9197 8.00577 15.9197 8.00257 15.9197ZM8.0559 7.16344V15.8013L12.1636 14.9672V8.00397L8.0559 7.16344Z" fill="black"/>
<path d="M12.217 10.2426H12.2127L7.99829 9.92367C7.9849 9.92258 7.97242 9.91648 7.96333 9.9066C7.95424 9.89671 7.9492 9.88377 7.94922 9.87034V8.88581C7.94922 8.87088 7.95562 8.85594 7.96735 8.84634C7.97909 8.83567 7.99402 8.83141 8.00895 8.83354L12.2234 9.34554C12.25 9.34874 12.2703 9.37114 12.2703 9.39887V10.1903C12.2703 10.2053 12.2639 10.2191 12.2532 10.2298C12.2429 10.238 12.2301 10.2425 12.217 10.2426ZM8.05589 9.82021L12.1636 10.1317V9.44474L8.05589 8.94554V9.82021ZM9.55562 11.4213L8.00255 11.4117C7.97269 11.4117 7.94922 11.3871 7.94922 11.3583V10.3738C7.94922 10.3589 7.95562 10.345 7.96629 10.3354C7.97695 10.3258 7.99082 10.3183 8.00575 10.3205L9.55882 10.4015C9.58762 10.4026 9.60895 10.4261 9.60895 10.4549V11.3679C9.60895 11.3818 9.60362 11.3957 9.59295 11.4053C9.58819 11.4104 9.58241 11.4145 9.57598 11.4172C9.56955 11.42 9.56261 11.4214 9.55562 11.4213ZM8.05589 11.305L9.50229 11.3146V10.5061L8.05589 10.4303V11.305ZM12.217 11.4383L11.0938 11.4309C11.0639 11.4309 11.0404 11.4063 11.0404 11.3775V10.5349C11.0404 10.5199 11.0468 10.5061 11.0575 10.4965C11.0682 10.4869 11.0831 10.4805 11.097 10.4815L12.2191 10.5402C12.2479 10.5413 12.2692 10.5647 12.2692 10.5935V11.385C12.2692 11.3989 12.2639 11.4127 12.2532 11.4223C12.2447 11.433 12.2308 11.4383 12.217 11.4383ZM11.1482 11.3253L12.1636 11.3317V10.6447L11.1482 10.5914V11.3253ZM10.3407 11.4266H10.3386C10.0996 11.4255 9.90442 11.1994 9.90442 10.9231C9.90442 10.7781 9.95989 10.6426 10.0559 10.5509C10.1359 10.4751 10.2372 10.4357 10.3418 10.4421C10.5711 10.4538 10.7588 10.6799 10.7588 10.9445C10.7588 11.0853 10.7066 11.2186 10.6148 11.3093C10.538 11.385 10.442 11.4266 10.3407 11.4266ZM10.3226 10.5487C10.2522 10.5487 10.1839 10.5765 10.1295 10.6287C10.0548 10.7002 10.0122 10.8069 10.0122 10.9231C10.0122 11.1407 10.1594 11.3189 10.3396 11.3199C10.41 11.3199 10.4826 11.2911 10.5391 11.2346C10.6106 11.1631 10.6522 11.0575 10.6522 10.9455C10.6522 10.7365 10.5103 10.5583 10.3364 10.5498C10.3311 10.5487 10.3268 10.5487 10.3226 10.5487Z" fill="black"/>
<path d="M4.24609 14.7608L5.89409 15.0957V11.7314L4.24609 11.7464V14.7608Z" fill="#FAA82C"/>
<path d="M5.89381 15.1487C5.89061 15.1487 5.88634 15.1487 5.88314 15.1476L4.23407 14.8127C4.22205 14.8102 4.21126 14.8036 4.2035 14.7941C4.19573 14.7846 4.19146 14.7727 4.19141 14.7604V11.7449C4.19141 11.7161 4.21487 11.6916 4.24474 11.6916L5.89381 11.6777C5.91087 11.682 5.92154 11.6831 5.93221 11.6927C5.94181 11.7023 5.94821 11.7161 5.94821 11.7311V15.0953C5.94821 15.1113 5.94074 15.1263 5.92901 15.1369C5.91834 15.1444 5.90661 15.1487 5.89381 15.1487ZM4.29914 14.7177L5.84154 15.0313V11.7855L4.29914 11.7993V14.7177Z" fill="black"/>
</g>
<defs>
<clipPath id="clip0_15096_51241">
<rect width="16" height="16" fill="white"/>
</clipPath>
</defs>
</svg>
