<svg width="16" height="16" viewBox="0 0 16 16" fill="none" xmlns="http://www.w3.org/2000/svg">
<path d="M5.09724 1.96632C5.06573 1.96632 5.03906 1.93965 5.03906 1.90813V1.19783C5.03906 1.16632 5.06573 1.13965 5.09724 1.13965C5.12876 1.13965 5.15543 1.16632 5.15543 1.19783V1.90571C5.15543 1.93965 5.13118 1.96632 5.09724 1.96632ZM10.9591 1.96632C10.9275 1.96632 10.9009 1.93965 10.9009 1.90813V1.19783C10.9009 1.16632 10.9275 1.13965 10.9591 1.13965C10.9906 1.13965 11.0172 1.16632 11.0172 1.19783V1.90571C11.0172 1.93965 10.9906 1.96632 10.9591 1.96632Z" fill="black"/>
<path d="M5.82859 5.19072V9.37739H4.37405V5.19072C4.08072 4.97254 3.90617 4.53375 3.97647 4.17496C4.04678 3.81618 4.33768 3.51315 4.69162 3.42102V2.35921C4.69162 2.32042 4.70617 2.28405 4.73041 2.25496L5.06496 1.86708C5.08435 1.84769 5.11587 1.84769 5.13526 1.86708L5.46981 2.25496C5.49405 2.28405 5.50859 2.32042 5.50859 2.35921V3.42102C5.86496 3.51072 6.15102 3.81618 6.22375 4.17496C6.29647 4.53375 6.1195 4.97254 5.82859 5.19072Z" fill="#FF7A43"/>
<path d="M5.61404 5.1906V5.19302H4.59101V5.1906C4.38495 4.97241 4.26131 4.53363 4.31222 4.17484C4.36313 3.81605 4.56677 3.51302 4.81404 3.4209H5.39101C5.64071 3.5106 5.84192 3.81605 5.89283 4.17484C5.94131 4.53363 5.81768 4.97241 5.61404 5.1906Z" fill="white"/>
<path d="M4.7781 5.55654C4.56476 4.74199 4.56234 3.87412 4.7781 3.05957C4.99386 3.87412 4.99143 4.73957 4.7781 5.55654ZM5.42052 5.55654C5.20719 4.74199 5.20476 3.87412 5.42052 3.05957C5.63628 3.87412 5.63386 4.73957 5.42052 5.55654Z" fill="#FF7A43"/>
<path d="M5.54701 1.02561C5.50822 1.24137 5.3264 1.42318 5.11064 1.46197C4.89489 1.50076 4.64034 1.40864 4.53125 1.21712C4.56519 1.23167 4.60398 1.24137 4.64034 1.24622C4.82216 1.27288 5.0161 1.20743 5.13731 1.06682C5.27792 0.909245 5.31186 0.664397 5.22216 0.470458C5.21973 0.463185 5.22701 0.453488 5.23428 0.458336C5.37489 0.535912 5.5058 0.708033 5.53973 0.87773C5.55186 0.928639 5.55428 0.977124 5.54701 1.02561Z" fill="#FFCD3B"/>
<path d="M5.82955 5.3291V7.70486C5.655 7.83577 5.43682 7.91334 5.21621 7.92789C4.9447 7.94728 4.66833 7.88425 4.41864 7.76789L4.375 7.74607V6.6988C4.45742 6.77153 4.58106 6.79819 4.6853 6.76425C4.81136 6.72304 4.90591 6.5994 4.90833 6.46607C4.91076 6.39819 4.88894 6.32304 4.91803 6.26001C4.95682 6.17759 5.05864 6.15092 5.14591 6.13153C5.23561 6.11213 5.33742 6.08062 5.36409 5.99334C5.39318 5.90607 5.33015 5.81395 5.3253 5.72183C5.32045 5.60062 5.41742 5.4988 5.52652 5.44547C5.62348 5.39698 5.73015 5.37274 5.82955 5.3291Z" fill="#F26636"/>
<path d="M11.6878 5.19072V9.37739H10.2333V5.19072C9.94238 4.97254 9.76541 4.53375 9.83571 4.17496C9.90844 3.81618 10.1969 3.51315 10.5509 3.42102V2.35921C10.5509 2.32042 10.5654 2.28405 10.5897 2.25496L10.9242 1.86708C10.9436 1.84769 10.9751 1.84769 10.9945 1.86708L11.329 2.25496C11.3533 2.28405 11.3678 2.32042 11.3678 2.35921V3.42102C11.7242 3.51072 12.0103 3.81618 12.083 4.17496C12.1557 4.53375 11.9787 4.97254 11.6878 5.19072Z" fill="#FF7A43"/>
<path d="M11.4734 5.1906V5.19302H10.4504V5.1906C10.2443 4.97241 10.1207 4.53363 10.1716 4.17484C10.2225 3.81605 10.4261 3.51302 10.6734 3.4209H11.2504C11.5001 3.5106 11.7013 3.81605 11.7522 4.17484C11.8031 4.53363 11.6795 4.97241 11.4734 5.1906Z" fill="white"/>
<path d="M10.6375 5.55654C10.4241 4.74199 10.4217 3.87412 10.6375 3.05957C10.8532 3.87412 10.8508 4.73957 10.6375 5.55654ZM11.2799 5.55654C11.0666 4.74199 11.0641 3.87412 11.2799 3.05957C11.4957 3.87791 11.4957 4.7382 11.2799 5.55654Z" fill="#FF7A43"/>
<path d="M11.6889 5.23926V7.29259C11.6283 7.32411 11.5677 7.34835 11.5023 7.36774C11.2307 7.44532 10.9374 7.41865 10.661 7.3532C10.5132 7.31683 10.3629 7.26592 10.2344 7.18835V6.26471C10.2974 6.3035 10.3653 6.33017 10.4356 6.33744C10.5616 6.35198 10.7071 6.28168 10.7289 6.15805C10.7435 6.08774 10.7168 6.01017 10.7556 5.94714C10.7968 5.88411 10.8841 5.87683 10.9616 5.87441C11.0368 5.87441 11.1241 5.86471 11.1629 5.80168C11.2065 5.72653 11.1556 5.62229 11.2016 5.54714C11.2404 5.48168 11.3326 5.47198 11.4077 5.46956C11.4853 5.46714 11.575 5.45259 11.6089 5.38229C11.621 5.35805 11.6235 5.32653 11.6307 5.29986C11.6429 5.27077 11.6623 5.24411 11.6889 5.23926Z" fill="#F26636"/>
<path d="M11.4064 1.02561C11.3676 1.24137 11.1858 1.42318 10.97 1.46197C10.7543 1.50076 10.4997 1.40864 10.3906 1.21712C10.3955 1.21955 10.3979 1.21955 10.4027 1.22197C10.6088 1.2947 10.8537 1.23167 10.9991 1.06682C11.1397 0.909245 11.1737 0.664397 11.084 0.470458C11.0815 0.463185 11.0888 0.453488 11.0961 0.458336C11.227 0.533488 11.3506 0.688639 11.3943 0.848639C11.4112 0.909245 11.4161 0.967427 11.4064 1.02561Z" fill="#FFCD3B"/>
<path d="M8.39376 5.87695V15.4842L8.08831 15.46L3.46043 15.1085C3.30285 15.0963 3.18164 14.9654 3.18164 14.8079V7.70483C3.18164 7.6321 3.20831 7.56423 3.25437 7.51089C3.28831 7.46726 3.33922 7.43332 3.39497 7.41635L4.83255 6.97271L8.39376 5.87695Z" fill="#1D2856"/>
<path d="M4.87423 7.34599C4.84635 7.42114 4.79704 7.48645 4.7324 7.53385C4.66777 7.58125 4.59065 7.60865 4.5106 7.61266C4.40635 7.6175 4.30938 7.58357 4.20757 7.57144C4.10575 7.55932 3.98938 7.57872 3.92878 7.66114C3.87302 7.73872 3.88757 7.84538 3.84635 7.93023C3.78817 8.05629 3.6306 8.10963 3.49484 8.09266C3.3809 8.07811 3.27908 8.02235 3.17969 7.96175V7.73629L3.25241 7.51084C3.28635 7.4672 3.33726 7.43326 3.39302 7.41629L4.8306 6.97266C4.89605 7.08417 4.91787 7.22235 4.87423 7.34599Z" fill="#0B183D"/>
<path d="M3.67077 8.64062C3.47684 8.64062 3.27805 8.55578 3.13744 8.41275C3.12694 8.40159 3.12109 8.38685 3.12109 8.37153C3.12109 8.35622 3.12694 8.34148 3.13744 8.33032C3.16168 8.3085 3.19805 8.3085 3.21987 8.33032C3.33865 8.45153 3.5035 8.52184 3.66835 8.52184H3.6732C3.86714 8.51941 4.05865 8.42002 4.17017 8.26244L4.19926 8.21881C4.2332 8.16547 4.26956 8.11214 4.32774 8.07335C4.44168 7.99578 4.58229 8.02002 4.70593 8.03941L4.73502 8.04426C4.81744 8.05881 4.9629 8.07093 5.02108 7.98366C5.05017 7.94002 5.05017 7.87456 5.05259 7.80669C5.05259 7.71699 5.05502 7.61517 5.13017 7.54002C5.19562 7.47699 5.2829 7.46729 5.35805 7.46002C5.38471 7.45759 5.41381 7.45517 5.44047 7.4479C5.56411 7.42123 5.67077 7.30972 5.71199 7.17153C5.75562 7.01396 5.71684 6.85396 5.67562 6.74729C5.67562 6.74487 5.67077 6.74002 5.66835 6.73275C5.6538 6.70366 5.6635 6.66244 5.69259 6.6479C5.72168 6.63335 5.75562 6.64063 5.77017 6.66972C5.77259 6.67699 5.77502 6.68426 5.77987 6.68911C5.77987 6.69153 5.78471 6.70123 5.78471 6.70366C5.85259 6.8782 5.86714 7.05032 5.82593 7.20063C5.77502 7.38244 5.63441 7.52547 5.46714 7.55941C5.43562 7.56669 5.40411 7.56911 5.37259 7.57153C5.30714 7.57881 5.24896 7.58366 5.21502 7.61759C5.1738 7.65638 5.1738 7.72426 5.1738 7.80184C5.1738 7.88184 5.17138 7.96911 5.1229 8.04426C5.05259 8.1485 4.90956 8.18729 4.71805 8.15335L4.68896 8.1485C4.58229 8.13153 4.4732 8.11214 4.39805 8.16305C4.35926 8.18972 4.33259 8.23093 4.30108 8.27699L4.26956 8.32305C4.13623 8.50972 3.91077 8.6285 3.67805 8.63093C3.6732 8.64062 3.67077 8.64062 3.67077 8.64062ZM8.3932 7.97153V15.1012C8.30108 15.2273 8.19684 15.3485 8.08774 15.46L3.45987 15.1085C3.30229 15.0964 3.18108 14.9655 3.18108 14.8079V14.4273L3.31441 14.1146C3.79199 14.5485 4.63805 14.4709 5.02835 13.957C5.26593 13.6443 5.34108 13.2176 5.62714 12.9461C5.97865 12.614 6.58471 12.5727 6.80532 12.1461C6.92653 11.9134 6.89017 11.637 6.8732 11.3752C6.85381 11.1158 6.87077 10.8249 7.05744 10.6406C7.21744 10.483 7.47684 10.4418 7.60532 10.26C7.81381 9.96911 7.56411 9.57638 7.55926 9.21759C7.55199 8.77881 7.9132 8.43456 8.2332 8.13396C8.28168 8.08305 8.33744 8.02729 8.3932 7.97153Z" fill="#0B183D"/>
<path d="M5.65454 10.8389V14.4049L4.00848 14.7807L3.96484 14.7904V11.1565C3.96484 11.0959 4.00606 11.0449 4.06424 11.0328L4.45212 10.9456L4.68969 10.8922L4.80606 10.8656L5.48242 10.7152L5.49697 10.7128C5.57697 10.6959 5.65454 10.7565 5.65454 10.8389Z" fill="#FFCD3B"/>
<path d="M5.65454 10.8392V14.4052L4.00848 14.781C3.99393 14.7713 3.97939 14.7616 3.96484 14.7495V13.6271C4.04727 13.7119 4.16606 13.7604 4.28242 13.7483C4.35143 13.7408 4.41729 13.7154 4.47343 13.6746C4.52957 13.6337 4.57404 13.5789 4.60242 13.5156C4.67515 13.3434 4.62181 13.1301 4.71393 12.9677C4.82787 12.7713 5.12363 12.701 5.16484 12.4804C5.19878 12.3059 5.04848 12.1265 5.10181 11.9568C5.1406 11.8356 5.27636 11.7604 5.30303 11.6343C5.33212 11.4889 5.19393 11.358 5.19393 11.2077C5.19393 11.0646 5.31272 10.958 5.40484 10.8489C5.43878 10.8101 5.46787 10.764 5.48727 10.718L5.50181 10.7156C5.57697 10.6962 5.65454 10.7568 5.65454 10.8392Z" fill="#FCB910"/>
<path d="M12.8217 7.54726V14.7957C12.8217 14.9509 12.7029 15.0818 12.5477 15.0963L8.39258 15.4842V5.87695L12.6132 7.2612C12.7368 7.30241 12.8217 7.41877 12.8217 7.54726Z" fill="#07132D"/>
<path d="M8.39376 14.1524V15.4858L3.46043 15.11C3.30285 15.0979 3.18164 14.967 3.18164 14.8094V14.0264L8.39376 14.1524Z" fill="#BC593C"/>
<path d="M12.8236 13.9688V14.7954C12.8236 14.9506 12.7048 15.0815 12.5497 15.096L8.39453 15.4839V14.1506L12.8236 13.9688Z" fill="#A5402E"/>
<path d="M8.39376 7.53906V8.53058L3.18164 9.67967V8.87482L8.39376 7.53906Z" fill="#FFCD3B"/>
<path d="M12.8217 8.78027V9.61906L8.39258 8.53058V7.53906L12.8217 8.78027Z" fill="#FCB910"/>
<path d="M8.39181 8.91895V9.68258L3.17969 10.6789V10.0608L8.39181 8.91895Z" fill="#FFCD3B"/>
<path d="M8.39335 15.5424H8.3885L4.48062 15.2442C4.44911 15.2418 4.42487 15.2127 4.42729 15.1812C4.42971 15.1497 4.4588 15.1254 4.49032 15.1278L8.33517 15.4212V5.9545L3.41153 7.47208C3.30971 7.5036 3.23941 7.59814 3.23941 7.70481V11.8163C3.23941 11.8478 3.21274 11.8745 3.18123 11.8745C3.14971 11.8745 3.12305 11.8478 3.12305 11.8163V7.70481C3.12305 7.54481 3.22487 7.40663 3.37759 7.36057L8.37638 5.81875C8.39335 5.8139 8.41274 5.81632 8.42971 5.82844C8.44426 5.84057 8.45396 5.85754 8.45396 5.8745V15.4818C8.45396 15.4987 8.44668 15.5133 8.43456 15.5254C8.42244 15.5375 8.4079 15.5424 8.39335 15.5424Z" fill="black"/>
<path d="M12.8236 10.1117V10.7565L8.39453 9.68258V8.91895L12.8236 10.1117Z" fill="#FCB910"/>
<path d="M8.39412 15.5417C8.37957 15.5417 8.36503 15.5369 8.35533 15.5272C8.34931 15.5216 8.34449 15.5148 8.34116 15.5073C8.33782 15.4998 8.33605 15.4917 8.33594 15.4835V5.87625C8.33594 5.85686 8.34563 5.83989 8.36018 5.82777C8.37473 5.81565 8.39412 5.81322 8.41351 5.8205L11.8584 6.95262C11.8899 6.96232 11.9068 6.99625 11.8947 7.02777C11.885 7.05929 11.8511 7.07625 11.8196 7.06413L8.44988 5.95868V15.4181L12.542 15.0375C12.6024 15.032 12.6586 15.0041 12.6995 14.9592C12.7403 14.9143 12.7629 14.8557 12.7626 14.795V12.7611C12.7626 12.7296 12.7893 12.7029 12.8208 12.7029C12.8523 12.7029 12.879 12.7296 12.879 12.7611V14.795C12.879 14.9817 12.7384 15.1369 12.5517 15.1538L8.39654 15.5417H8.39412Z" fill="black"/>
<path d="M4.03461 10.9259C3.99097 10.9259 3.95703 10.8919 3.95703 10.8483V9.68952C3.95703 9.64588 3.99097 9.61194 4.03461 9.61194C4.07824 9.61194 4.11218 9.64588 4.11218 9.68952V10.8483C4.11461 10.8895 4.07824 10.9259 4.03461 10.9259ZM5.11339 10.7029C5.06976 10.7029 5.03582 10.6689 5.03582 10.6253V9.46649C5.03582 9.42285 5.06976 9.38891 5.11339 9.38891C5.15703 9.38891 5.19097 9.42285 5.19097 9.46649V10.6253C5.19097 10.6665 5.15703 10.7029 5.11339 10.7029ZM6.19218 10.4798C6.14855 10.4798 6.11461 10.4459 6.11461 10.4022V9.24346C6.11461 9.19982 6.14855 9.16588 6.19218 9.16588C6.23582 9.16588 6.26976 9.19982 6.26976 9.24346V10.4022C6.26976 10.4435 6.23582 10.4798 6.19218 10.4798ZM7.26855 10.2544C7.22491 10.2544 7.19097 10.2204 7.19097 10.1768V9.01801C7.19097 8.97437 7.22491 8.94043 7.26855 8.94043C7.31218 8.94043 7.34612 8.97437 7.34612 9.01801V10.1768C7.34855 10.2204 7.31218 10.2544 7.26855 10.2544Z" fill="#1D2856"/>
<path d="M12.2822 10.9259C12.2386 10.9259 12.2046 10.8919 12.2046 10.8483V9.68952C12.2046 9.64588 12.2386 9.61194 12.2822 9.61194C12.3259 9.61194 12.3598 9.64588 12.3598 9.68952V10.8483C12.3598 10.8895 12.3259 10.9259 12.2822 10.9259ZM11.2034 10.7029C11.1598 10.7029 11.1259 10.6689 11.1259 10.6253V9.46649C11.1259 9.42285 11.1598 9.38891 11.2034 9.38891C11.2471 9.38891 11.281 9.42285 11.281 9.46649V10.6253C11.2834 10.6665 11.2471 10.7029 11.2034 10.7029ZM10.1271 10.4798C10.0834 10.4798 10.0495 10.4459 10.0495 10.4022V9.24346C10.0495 9.19982 10.0834 9.16588 10.1271 9.16588C10.1707 9.16588 10.2046 9.19982 10.2046 9.24346V10.4022C10.2046 10.4435 10.1707 10.4798 10.1271 10.4798ZM9.04828 10.2544C9.00464 10.2544 8.9707 10.2204 8.9707 10.1768V9.01801C8.9707 8.97437 9.00464 8.94043 9.04828 8.94043C9.09192 8.94043 9.12585 8.97437 9.12585 9.01801V10.1768C9.12585 10.2204 9.09192 10.2544 9.04828 10.2544Z" fill="#07132D"/>
<path d="M8.79532 7.22697C8.79048 7.15424 8.78805 7.08152 8.7832 7.00879C8.80017 7.08152 8.80502 7.15424 8.79532 7.22697Z" fill="#0B183D"/>
<path d="M5.54639 1.0256C5.5076 1.24136 5.32579 1.42318 5.11003 1.46197C4.89427 1.50075 4.63973 1.40863 4.53063 1.21712C4.56457 1.23166 4.60336 1.24136 4.63973 1.24621C4.66882 1.285 4.71003 1.31409 4.75609 1.33106C4.81427 1.35045 4.87973 1.34803 4.93548 1.32378C4.96942 1.30924 5.00094 1.28742 5.0373 1.28015C5.07851 1.27288 5.12457 1.285 5.16579 1.29227C5.207 1.29954 5.25548 1.29954 5.28942 1.27045C5.33548 1.22924 5.32821 1.14439 5.3767 1.10318C5.39851 1.08621 5.4276 1.08136 5.45185 1.06924C5.49791 1.04257 5.51973 0.986815 5.52942 0.935906C5.53185 0.916512 5.5367 0.897118 5.5367 0.880148C5.55124 0.928633 5.55366 0.977118 5.54639 1.0256ZM11.4058 1.0256C11.367 1.24136 11.1852 1.42318 10.9694 1.46197C10.7537 1.50075 10.4991 1.40863 10.39 1.21712C10.3949 1.21954 10.3973 1.21954 10.4021 1.22197C10.4531 1.27045 10.504 1.31894 10.567 1.34803C10.6373 1.38197 10.7294 1.38924 10.7925 1.3456C10.8215 1.32621 10.8434 1.29954 10.8749 1.28257C10.9185 1.25833 10.9694 1.26318 11.0179 1.26318C11.0664 1.26318 11.1221 1.25591 11.1537 1.21954C11.1997 1.16863 11.1828 1.07651 11.2385 1.0353C11.2749 1.00863 11.3258 1.01591 11.3597 0.986815C11.3888 0.960148 11.3937 0.914087 11.3937 0.872875V0.848633C11.4106 0.909239 11.4155 0.967421 11.4058 1.0256ZM4.74882 11.7117C4.71488 11.7408 4.67851 11.7674 4.64215 11.7892C4.58397 11.828 4.52821 11.862 4.50154 11.9129C4.46276 11.9832 4.47973 12.0705 4.49669 12.1626C4.51124 12.2498 4.52579 12.3371 4.50639 12.4268C4.47488 12.5529 4.36579 12.6644 4.22033 12.7177C4.13548 12.7492 4.04579 12.7589 3.96094 12.7614V12.645C4.03609 12.6426 4.11124 12.6329 4.18154 12.6086C4.26639 12.5771 4.36579 12.5044 4.39245 12.3977C4.407 12.3347 4.39488 12.2595 4.38033 12.182C4.36094 12.0729 4.34154 11.9614 4.3973 11.8547C4.43851 11.7771 4.51124 11.7335 4.57669 11.6898C4.61063 11.668 4.64215 11.6486 4.67124 11.622C4.80215 11.5056 4.81912 11.3092 4.79003 11.1686C4.77063 11.0741 4.73427 10.982 4.68821 10.8947L4.80457 10.868C4.84821 10.9553 4.88457 11.0474 4.90397 11.1444C4.95003 11.3674 4.89185 11.5832 4.74882 11.7117ZM4.14518 11.6438C4.12821 11.7117 4.1573 11.7795 4.18397 11.845C4.20821 11.9105 4.22276 11.988 4.18397 12.0462C4.14276 12.1044 4.05306 12.1141 3.9876 12.085C3.98033 12.0826 3.97306 12.0777 3.96336 12.0729V11.1589C3.96336 11.0983 4.00457 11.0474 4.06276 11.0353L4.45063 10.948C4.45306 10.9505 4.45548 10.9553 4.45791 10.9601C4.53306 11.108 4.52094 11.3068 4.39973 11.4183C4.31245 11.4935 4.17427 11.5323 4.14518 11.6438Z" fill="#FCB910"/>
<path d="M7.46688 6.60118C7.49839 6.71027 7.35294 6.85088 7.14203 6.91633C6.93112 6.98179 6.72748 6.95027 6.69112 6.84361C6.65475 6.73694 6.80021 6.59633 7.01597 6.52846C7.23415 6.46058 7.43536 6.49209 7.46688 6.60118ZM7.81112 6.49209C7.82324 6.54058 7.78203 6.59391 7.71657 6.61573C7.65112 6.63755 7.58566 6.61573 7.57112 6.56724C7.55657 6.52118 7.60021 6.46543 7.66566 6.44361C7.73354 6.42421 7.799 6.44603 7.81112 6.49209Z" fill="white"/>
<path d="M3.53567 13.1684C3.64813 13.1684 3.7393 12.9969 3.7393 12.7854C3.7393 12.5738 3.64813 12.4023 3.53567 12.4023C3.4232 12.4023 3.33203 12.5738 3.33203 12.7854C3.33203 12.9969 3.4232 13.1684 3.53567 13.1684Z" fill="white"/>
<path d="M3.53501 13.51C3.58455 13.51 3.62471 13.4569 3.62471 13.3912C3.62471 13.3256 3.58455 13.2725 3.53501 13.2725C3.48547 13.2725 3.44531 13.3256 3.44531 13.3912C3.44531 13.4569 3.48547 13.51 3.53501 13.51Z" fill="white"/>
<path d="M7.3412 11.5251C7.23454 11.5251 7.13757 11.576 7.06726 11.6609C6.99696 11.7433 6.95332 11.8572 6.95332 11.9857C6.95332 11.7336 6.7812 11.5275 6.56544 11.5275C6.67211 11.5275 6.76908 11.4766 6.83938 11.3942C6.90969 11.3118 6.95332 11.1978 6.95332 11.0693C6.95332 11.1954 6.99696 11.3093 7.06726 11.3942C7.13757 11.4718 7.23454 11.5251 7.3412 11.5251ZM6.88544 12.1602C6.82241 12.1602 6.76666 12.1893 6.72544 12.2402C6.68423 12.2887 6.65757 12.3566 6.65757 12.4293C6.65757 12.2815 6.55575 12.1602 6.42969 12.1602C6.49272 12.1602 6.54848 12.1312 6.58969 12.0827C6.6309 12.0342 6.65514 11.9663 6.65514 11.8936C6.65514 11.9687 6.68181 12.0342 6.72302 12.0827C6.76423 12.1312 6.82241 12.1602 6.88544 12.1602Z" fill="white"/>
<path d="M8.88499 8.4025H7.11287C7.08135 8.4025 7.05469 8.37584 7.05469 8.34432V7.65584C7.05469 7.62432 7.08135 7.59766 7.11287 7.59766H8.88499C8.91651 7.59766 8.94317 7.62432 8.94317 7.65584V8.34432C8.9456 8.37826 8.91893 8.4025 8.88499 8.4025ZM7.17348 8.28614H8.82681V7.71402H7.17348V8.28614Z" fill="#FF7A43"/>
<path d="M8.88499 8.4025H7.11287C7.08135 8.4025 7.05469 8.37584 7.05469 8.34432V7.65584C7.05469 7.62432 7.08135 7.59766 7.11287 7.59766H8.88499C8.91651 7.59766 8.94317 7.62432 8.94317 7.65584V8.34432C8.9456 8.37826 8.91893 8.4025 8.88499 8.4025ZM7.17348 8.28614H8.82681V7.71402H7.17348V8.28614Z" fill="#FF7A43"/>
</svg>
