<svg width="10" height="10" viewBox="0 0 10 10" fill="none" xmlns="http://www.w3.org/2000/svg">
<path d="M9.16659 4.99967C9.16659 7.3008 7.30113 9.16634 4.99992 9.16634C2.69872 9.16634 0.833252 7.3008 0.833252 4.99967C0.833252 2.69848 2.69872 0.833008 4.99992 0.833008C7.30113 0.833008 9.16659 2.69848 9.16659 4.99967Z" stroke="white" stroke-width="0.5" stroke-linecap="round" stroke-linejoin="round"/>
<path d="M7.5 4.58301V4.99967C7.5 5.69005 6.94038 6.24967 6.25 6.24967" stroke="white" stroke-width="0.5" stroke-linecap="round" stroke-linejoin="round"/>
<path d="M4.58325 3.33301V5.20801C4.58325 5.43813 4.76979 5.62467 4.99992 5.62467H5.41659C5.64671 5.62467 5.83325 5.43813 5.83325 5.20801" stroke="white" stroke-width="0.5" stroke-linecap="round" stroke-linejoin="round"/>
<path d="M3.54175 3.33301V5.20801C3.54175 5.43813 3.3552 5.62467 3.12508 5.62467H2.70841C2.4783 5.62467 2.29175 5.43813 2.29175 5.20801" stroke="white" stroke-width="0.5" stroke-linecap="round" stroke-linejoin="round"/>
<path d="M4.58325 6.4541V6.45827" stroke="white" stroke-width="0.5" stroke-linecap="round" stroke-linejoin="round"/>
<path d="M5.41675 6.45801V6.46217" stroke="white" stroke-width="0.5" stroke-linecap="round" stroke-linejoin="round"/>
</svg>
